<svg width="242" height="103" viewBox="0 0 242 103" fill="none" xmlns="http://www.w3.org/2000/svg">
<g clip-path="url(#clip0_3350_3996)">
<rect width="63.4571" height="63.4571" rx="31.7285" transform="matrix(-1 0 0 1 152.729 0.261719)" fill="#5C35B0"/>
<g clip-path="url(#clip1_3350_3996)">
<path d="M157.593 42.5664H83.5595V63.7188H157.593V42.5664Z" fill="#FFCE00"/>
<path d="M157.594 0.261719H83.5605V21.4141H157.594V0.261719Z" fill="black"/>
<path d="M157.593 21.4141H83.5595V42.5664H157.593V21.4141Z" fill="#DD0000"/>
</g>
</g>
<circle cx="8.63271" cy="95.1034" r="7.78896" fill="url(#paint0_linear_3350_3996)"/>
<circle cx="33.6034" cy="95.1034" r="7.78896" fill="url(#paint1_linear_3350_3996)"/>
<circle cx="58.5741" cy="95.1034" r="7.78896" fill="url(#paint2_linear_3350_3996)"/>
<circle cx="83.5438" cy="95.1034" r="7.78896" fill="url(#paint3_linear_3350_3996)"/>
<circle cx="108.515" cy="95.1034" r="7.78896" fill="url(#paint4_linear_3350_3996)"/>
<circle cx="133.485" cy="95.1034" r="7.78896" fill="url(#paint5_linear_3350_3996)"/>
<circle cx="158.456" cy="95.1034" r="7.78896" fill="url(#paint6_linear_3350_3996)"/>
<circle opacity="0.13" cx="183.426" cy="95.1034" r="7.78896" fill="#D9D9D9"/>
<circle opacity="0.13" cx="208.396" cy="95.1034" r="7.78896" fill="#D9D9D9"/>
<circle opacity="0.13" cx="233.367" cy="95.1034" r="7.78896" fill="#D9D9D9"/>
<defs>
<linearGradient id="paint0_linear_3350_3996" x1="1.74804" y1="95.5616" x2="16.072" y2="95.5616" gradientUnits="userSpaceOnUse">
<stop stop-color="#1AD69E"/>
<stop offset="1" stop-color="#6AF8CE"/>
</linearGradient>
<linearGradient id="paint1_linear_3350_3996" x1="26.7187" y1="95.5616" x2="41.0427" y2="95.5616" gradientUnits="userSpaceOnUse">
<stop stop-color="#1AD69E"/>
<stop offset="1" stop-color="#6AF8CE"/>
</linearGradient>
<linearGradient id="paint2_linear_3350_3996" x1="51.6894" y1="95.5616" x2="66.0134" y2="95.5616" gradientUnits="userSpaceOnUse">
<stop stop-color="#1AD69E"/>
<stop offset="1" stop-color="#6AF8CE"/>
</linearGradient>
<linearGradient id="paint3_linear_3350_3996" x1="76.6592" y1="95.5616" x2="90.9831" y2="95.5616" gradientUnits="userSpaceOnUse">
<stop stop-color="#1AD69E"/>
<stop offset="1" stop-color="#6AF8CE"/>
</linearGradient>
<linearGradient id="paint4_linear_3350_3996" x1="101.63" y1="95.5616" x2="115.954" y2="95.5616" gradientUnits="userSpaceOnUse">
<stop stop-color="#1AD69E"/>
<stop offset="1" stop-color="#6AF8CE"/>
</linearGradient>
<linearGradient id="paint5_linear_3350_3996" x1="126.601" y1="95.5616" x2="140.925" y2="95.5616" gradientUnits="userSpaceOnUse">
<stop stop-color="#1AD69E"/>
<stop offset="1" stop-color="#6AF8CE"/>
</linearGradient>
<linearGradient id="paint6_linear_3350_3996" x1="151.571" y1="95.5616" x2="165.895" y2="95.5616" gradientUnits="userSpaceOnUse">
<stop stop-color="#1AD69E"/>
<stop offset="1" stop-color="#6AF8CE"/>
</linearGradient>
<clipPath id="clip0_3350_3996">
<rect width="63.4571" height="63.4571" rx="31.7285" transform="matrix(-1 0 0 1 152.729 0.261719)" fill="white"/>
</clipPath>
<clipPath id="clip1_3350_3996">
<rect width="74.0333" height="63.4571" fill="white" transform="matrix(-1 0 0 1 157.594 0.261719)"/>
</clipPath>
</defs>
</svg>
