<svg width="242" height="104" viewBox="0 0 242 104" fill="none" xmlns="http://www.w3.org/2000/svg">
<g clip-path="url(#clip0_3346_3047)">
<rect x="89.2715" y="0.630859" width="63.4571" height="63.4571" rx="31.7285" fill="#5C35B0"/>
<g clip-path="url(#clip1_3346_3047)">
<path d="M73.4072 0.630859V64.088H168.593V0.630859H73.4072Z" fill="#012169"/>
<path d="M73.4072 0.630859L168.593 64.088L73.4072 0.630859ZM168.593 0.630859L73.4072 64.088Z" fill="black"/>
<path d="M168.593 0.630859L73.4072 64.088M73.4072 0.630859L168.593 64.088L73.4072 0.630859Z" stroke="white" stroke-width="6.34571"/>
<path d="M73.4072 0.630859L168.593 64.088L73.4072 0.630859ZM168.593 0.630859L73.4072 64.088Z" fill="black"/>
<path d="M168.593 0.630859L73.4072 64.088M73.4072 0.630859L168.593 64.088L73.4072 0.630859Z" stroke="#C8102E" stroke-width="4.23047"/>
<path d="M121 0.630859V64.088V0.630859ZM73.4072 32.3594H168.593Z" fill="black"/>
<path d="M73.4072 32.3594H168.593M121 0.630859V64.088V0.630859Z" stroke="white" stroke-width="10.5762"/>
<path d="M121 0.630859V64.0879V0.630859ZM73.4072 32.3594H168.593Z" fill="black"/>
<path d="M73.4072 32.3594H168.593M121 0.630859V64.0879V0.630859Z" stroke="#C8102E" stroke-width="6.34571"/>
</g>
</g>
<circle cx="8.63271" cy="95.4725" r="7.78896" fill="url(#paint0_linear_3346_3047)"/>
<circle cx="33.6034" cy="95.4725" r="7.78896" fill="url(#paint1_linear_3346_3047)"/>
<circle cx="58.5741" cy="95.4725" r="7.78896" fill="url(#paint2_linear_3346_3047)"/>
<circle cx="83.5438" cy="95.4725" r="7.78896" fill="url(#paint3_linear_3346_3047)"/>
<circle cx="108.515" cy="95.4725" r="7.78896" fill="url(#paint4_linear_3346_3047)"/>
<circle cx="133.485" cy="95.4725" r="7.78896" fill="url(#paint5_linear_3346_3047)"/>
<circle cx="158.456" cy="95.4725" r="7.78896" fill="url(#paint6_linear_3346_3047)"/>
<circle cx="183.426" cy="95.4725" r="7.78896" fill="url(#paint7_linear_3346_3047)"/>
<circle cx="208.396" cy="95.4725" r="7.78896" fill="url(#paint8_linear_3346_3047)"/>
<circle cx="233.367" cy="95.4725" r="7.78896" fill="url(#paint9_linear_3346_3047)"/>
<defs>
<linearGradient id="paint0_linear_3346_3047" x1="1.74804" y1="95.9307" x2="16.072" y2="95.9307" gradientUnits="userSpaceOnUse">
<stop stop-color="#1AD69E"/>
<stop offset="1" stop-color="#6AF8CE"/>
</linearGradient>
<linearGradient id="paint1_linear_3346_3047" x1="26.7187" y1="95.9307" x2="41.0427" y2="95.9307" gradientUnits="userSpaceOnUse">
<stop stop-color="#1AD69E"/>
<stop offset="1" stop-color="#6AF8CE"/>
</linearGradient>
<linearGradient id="paint2_linear_3346_3047" x1="51.6894" y1="95.9307" x2="66.0134" y2="95.9307" gradientUnits="userSpaceOnUse">
<stop stop-color="#1AD69E"/>
<stop offset="1" stop-color="#6AF8CE"/>
</linearGradient>
<linearGradient id="paint3_linear_3346_3047" x1="76.6592" y1="95.9307" x2="90.9831" y2="95.9307" gradientUnits="userSpaceOnUse">
<stop stop-color="#1AD69E"/>
<stop offset="1" stop-color="#6AF8CE"/>
</linearGradient>
<linearGradient id="paint4_linear_3346_3047" x1="101.63" y1="95.9307" x2="115.954" y2="95.9307" gradientUnits="userSpaceOnUse">
<stop stop-color="#1AD69E"/>
<stop offset="1" stop-color="#6AF8CE"/>
</linearGradient>
<linearGradient id="paint5_linear_3346_3047" x1="126.601" y1="95.9307" x2="140.925" y2="95.9307" gradientUnits="userSpaceOnUse">
<stop stop-color="#1AD69E"/>
<stop offset="1" stop-color="#6AF8CE"/>
</linearGradient>
<linearGradient id="paint6_linear_3346_3047" x1="151.571" y1="95.9307" x2="165.895" y2="95.9307" gradientUnits="userSpaceOnUse">
<stop stop-color="#1AD69E"/>
<stop offset="1" stop-color="#6AF8CE"/>
</linearGradient>
<linearGradient id="paint7_linear_3346_3047" x1="176.541" y1="95.9307" x2="190.865" y2="95.9307" gradientUnits="userSpaceOnUse">
<stop stop-color="#1AD69E"/>
<stop offset="1" stop-color="#6AF8CE"/>
</linearGradient>
<linearGradient id="paint8_linear_3346_3047" x1="201.512" y1="95.9307" x2="215.836" y2="95.9307" gradientUnits="userSpaceOnUse">
<stop stop-color="#1AD69E"/>
<stop offset="1" stop-color="#6AF8CE"/>
</linearGradient>
<linearGradient id="paint9_linear_3346_3047" x1="226.482" y1="95.9307" x2="240.806" y2="95.9307" gradientUnits="userSpaceOnUse">
<stop stop-color="#1AD69E"/>
<stop offset="1" stop-color="#6AF8CE"/>
</linearGradient>
<clipPath id="clip0_3346_3047">
<rect x="89.2715" y="0.630859" width="63.4571" height="63.4571" rx="31.7285" fill="white"/>
</clipPath>
<clipPath id="clip1_3346_3047">
<rect width="95.1856" height="63.4571" fill="white" transform="translate(73.4072 0.630859)"/>
</clipPath>
</defs>
</svg>
