<svg width="899" height="142" viewBox="0 0 899 142" fill="none" xmlns="http://www.w3.org/2000/svg">
<g clip-path="url(#clip0_3336_5683)">
<rect width="141.201" height="141.201" rx="70.6005" fill="#5C35B0"/>
<g clip-path="url(#clip1_3336_5683)">
<path d="M-11.2959 0H176.502V142.613H-11.2959V0Z" fill="#C8102E"/>
<path d="M49.4209 0H69.189V141.201H49.4209V0Z" fill="white"/>
<path d="M-11.9746 59.8701H177.151V79.8362H-11.9746V59.8701Z" fill="white"/>
</g>
</g>
<circle cx="220.533" cy="70.6001" r="17.3315" fill="url(#paint0_linear_3336_5683)"/>
<circle cx="276.095" cy="70.6001" r="17.3315" fill="url(#paint1_linear_3336_5683)"/>
<circle cx="331.659" cy="70.6001" r="17.3315" fill="url(#paint2_linear_3336_5683)"/>
<circle cx="387.221" cy="70.6001" r="17.3315" fill="url(#paint3_linear_3336_5683)"/>
<circle cx="442.785" cy="70.6001" r="17.3315" fill="url(#paint4_linear_3336_5683)"/>
<circle cx="498.347" cy="70.6001" r="17.3315" fill="url(#paint5_linear_3336_5683)"/>
<circle cx="553.91" cy="70.6001" r="17.3315" fill="url(#paint6_linear_3336_5683)"/>
<circle cx="609.473" cy="70.6001" r="17.3315" fill="url(#paint7_linear_3336_5683)"/>
<circle cx="665.036" cy="70.6001" r="17.3315" fill="url(#paint8_linear_3336_5683)"/>
<circle cx="720.598" cy="70.6001" r="17.3315" fill="url(#paint9_linear_3336_5683)"/>
<defs>
<linearGradient id="paint0_linear_3336_5683" x1="205.213" y1="71.6196" x2="237.086" y2="71.6196" gradientUnits="userSpaceOnUse">
<stop stop-color="#1AD69E"/>
<stop offset="1" stop-color="#6AF8CE"/>
</linearGradient>
<linearGradient id="paint1_linear_3336_5683" x1="260.776" y1="71.6196" x2="292.649" y2="71.6196" gradientUnits="userSpaceOnUse">
<stop stop-color="#1AD69E"/>
<stop offset="1" stop-color="#6AF8CE"/>
</linearGradient>
<linearGradient id="paint2_linear_3336_5683" x1="316.339" y1="71.6196" x2="348.212" y2="71.6196" gradientUnits="userSpaceOnUse">
<stop stop-color="#1AD69E"/>
<stop offset="1" stop-color="#6AF8CE"/>
</linearGradient>
<linearGradient id="paint3_linear_3336_5683" x1="371.902" y1="71.6196" x2="403.775" y2="71.6196" gradientUnits="userSpaceOnUse">
<stop stop-color="#1AD69E"/>
<stop offset="1" stop-color="#6AF8CE"/>
</linearGradient>
<linearGradient id="paint4_linear_3336_5683" x1="427.465" y1="71.6196" x2="459.338" y2="71.6196" gradientUnits="userSpaceOnUse">
<stop stop-color="#1AD69E"/>
<stop offset="1" stop-color="#6AF8CE"/>
</linearGradient>
<linearGradient id="paint5_linear_3336_5683" x1="483.028" y1="71.6196" x2="514.901" y2="71.6196" gradientUnits="userSpaceOnUse">
<stop stop-color="#1AD69E"/>
<stop offset="1" stop-color="#6AF8CE"/>
</linearGradient>
<linearGradient id="paint6_linear_3336_5683" x1="538.59" y1="71.6196" x2="570.463" y2="71.6196" gradientUnits="userSpaceOnUse">
<stop stop-color="#1AD69E"/>
<stop offset="1" stop-color="#6AF8CE"/>
</linearGradient>
<linearGradient id="paint7_linear_3336_5683" x1="594.154" y1="71.6196" x2="626.027" y2="71.6196" gradientUnits="userSpaceOnUse">
<stop stop-color="#1AD69E"/>
<stop offset="1" stop-color="#6AF8CE"/>
</linearGradient>
<linearGradient id="paint8_linear_3336_5683" x1="649.716" y1="71.6196" x2="681.589" y2="71.6196" gradientUnits="userSpaceOnUse">
<stop stop-color="#1AD69E"/>
<stop offset="1" stop-color="#6AF8CE"/>
</linearGradient>
<linearGradient id="paint9_linear_3336_5683" x1="705.279" y1="71.6196" x2="737.152" y2="71.6196" gradientUnits="userSpaceOnUse">
<stop stop-color="#1AD69E"/>
<stop offset="1" stop-color="#6AF8CE"/>
</linearGradient>
<clipPath id="clip0_3336_5683">
<rect width="141.201" height="141.201" rx="70.6005" fill="white"/>
</clipPath>
<clipPath id="clip1_3336_5683">
<rect width="187.797" height="141.201" fill="white" transform="translate(-11.2959)"/>
</clipPath>
</defs>
</svg>
