<svg width="899" height="100" viewBox="0 0 899 100" fill="none" xmlns="http://www.w3.org/2000/svg">
<g clip-path="url(#clip0_2285_1360)">
<rect x="141" y="41.5" width="758" height="17" rx="8.5" fill="#AFB4B3" fill-opacity="0.84"/>
<g clip-path="url(#clip1_2285_1360)">
<path d="M111 41.5H813.281V58.5H111V41.5Z" fill="url(#paint0_linear_2285_1360)"/>
</g>
<rect x="215" y="41.5" width="2" height="17" fill="black"/>
<rect x="292" y="41.5" width="2" height="17" fill="black"/>
<rect x="367" y="41.5" width="2" height="17" fill="black"/>
<rect x="443" y="41.5" width="2" height="17" fill="black"/>
<rect x="519" y="41.5" width="2" height="17" fill="black"/>
<rect x="595" y="41.5" width="2" height="17" fill="black"/>
<rect x="671" y="41.5" width="2" height="17" fill="black"/>
<rect x="746" y="41.5" width="2" height="17" fill="black"/>
<rect x="823" y="41.5" width="2" height="17" fill="black"/>
</g>
<g clip-path="url(#clip2_2285_1360)">
<rect width="100" height="100" rx="50" transform="matrix(-1 0 0 1 100 0)" fill="#5C35B0"/>
<g clip-path="url(#clip3_2285_1360)">
<path d="M107.666 66.667H-9.00064V100H107.666V66.667Z" fill="#FFCE00"/>
<path d="M107.667 0H-8.99967V33.3333H107.667V0Z" fill="black"/>
<path d="M107.666 33.333H-9.00064V66.6663H107.666V33.333Z" fill="#DD0000"/>
</g>
</g>
<defs>
<linearGradient id="paint0_linear_2285_1360" x1="151.767" y1="50.5" x2="797.518" y2="50.5" gradientUnits="userSpaceOnUse">
<stop stop-color="#1AD69E"/>
<stop offset="1" stop-color="#6AF8CE"/>
</linearGradient>
<clipPath id="clip0_2285_1360">
<rect x="141" y="41.5" width="758" height="17" rx="8.5" fill="white"/>
</clipPath>
<clipPath id="clip1_2285_1360">
<rect width="562" height="17" fill="white" transform="translate(111 41.5)"/>
</clipPath>
<clipPath id="clip2_2285_1360">
<rect width="100" height="100" rx="50" transform="matrix(-1 0 0 1 100 0)" fill="white"/>
</clipPath>
<clipPath id="clip3_2285_1360">
<rect width="116.667" height="100" fill="white" transform="matrix(-1 0 0 1 107.667 0)"/>
</clipPath>
</defs>
</svg>
