<svg width="142" height="142" viewBox="0 0 142 142" fill="none" xmlns="http://www.w3.org/2000/svg">
<g clip-path="url(#clip0_3855_1031)">
<rect y="0.201172" width="141.201" height="141.201" rx="70.6005" fill="#5C35B0"/>
<g clip-path="url(#clip1_3855_1031)">
<path d="M-35.3008 0.201172V141.402H176.501V0.201172H-35.3008Z" fill="#012169"/>
<path d="M-35.3008 0.201172L176.501 141.402L-35.3008 0.201172ZM176.501 0.201172L-35.3008 141.402Z" fill="black"/>
<path d="M176.501 0.201172L-35.3008 141.402M-35.3008 0.201172L176.501 141.402L-35.3008 0.201172Z" stroke="white" stroke-width="14.1201"/>
<path d="M-35.3008 0.201172L176.501 141.402L-35.3008 0.201172ZM176.501 0.201172L-35.3008 141.402Z" fill="black"/>
<path d="M176.501 0.201172L-35.3008 141.402M-35.3008 0.201172L176.501 141.402L-35.3008 0.201172Z" stroke="#C8102E" stroke-width="9.4134"/>
<path d="M70.6 0.201172V141.402V0.201172ZM-35.3008 70.8017H176.501Z" fill="black"/>
<path d="M-35.3008 70.8017H176.501M70.6 0.201172V141.402V0.201172Z" stroke="white" stroke-width="23.5335"/>
<path d="M70.6 0.201172V141.402V0.201172ZM-35.3008 70.8017H176.501Z" fill="black"/>
<path d="M-35.3008 70.8017H176.501M70.6 0.201172V141.402V0.201172Z" stroke="#C8102E" stroke-width="14.1201"/>
</g>
</g>
<defs>
<clipPath id="clip0_3855_1031">
<rect y="0.201172" width="141.201" height="141.201" rx="70.6005" fill="white"/>
</clipPath>
<clipPath id="clip1_3855_1031">
<rect width="211.802" height="141.201" fill="white" transform="translate(-35.2998 0.201172)"/>
</clipPath>
</defs>
</svg>
