<svg width="899" height="100" viewBox="0 0 899 100" fill="none" xmlns="http://www.w3.org/2000/svg">
<g clip-path="url(#clip0_2285_1440)">
<rect width="100" height="100" rx="50" fill="#5C35B0"/>
<g clip-path="url(#clip1_2285_1440)">
<path d="M-8 0H125V101H-8V0Z" fill="#C8102E"/>
<path d="M35 0H49V100H35V0Z" fill="white"/>
<path d="M-8.48047 42.4004H125.46V56.5406H-8.48047V42.4004Z" fill="white"/>
</g>
</g>
<g clip-path="url(#clip2_2285_1440)">
<rect x="141" y="41.5" width="758" height="17" rx="8.5" fill="#AFB4B3" fill-opacity="0.84"/>
<g clip-path="url(#clip3_2285_1440)">
<path d="M98 41.5H899V58.5H98V41.5Z" fill="url(#paint0_linear_2285_1440)"/>
</g>
<rect x="215" y="41.5" width="2" height="17" fill="black"/>
<rect x="292" y="41.5" width="2" height="17" fill="black"/>
<rect x="367" y="41.5" width="2" height="17" fill="black"/>
<rect x="443" y="41.5" width="2" height="17" fill="black"/>
<rect x="519" y="41.5" width="2" height="17" fill="black"/>
<rect x="595" y="41.5" width="2" height="17" fill="black"/>
<rect x="671" y="41.5" width="2" height="17" fill="black"/>
<rect x="746" y="41.5" width="2" height="17" fill="black"/>
<rect x="823" y="41.5" width="2" height="17" fill="black"/>
</g>
<defs>
<linearGradient id="paint0_linear_2285_1440" x1="144.498" y1="50.5" x2="881.021" y2="50.5" gradientUnits="userSpaceOnUse">
<stop stop-color="#1AD69E"/>
<stop offset="1" stop-color="#6AF8CE"/>
</linearGradient>
<clipPath id="clip0_2285_1440">
<rect width="100" height="100" rx="50" fill="white"/>
</clipPath>
<clipPath id="clip1_2285_1440">
<rect width="133" height="100" fill="white" transform="translate(-8)"/>
</clipPath>
<clipPath id="clip2_2285_1440">
<rect x="141" y="41.5" width="758" height="17" rx="8.5" fill="white"/>
</clipPath>
<clipPath id="clip3_2285_1440">
<rect width="801" height="17" fill="white" transform="translate(98 41.5)"/>
</clipPath>
</defs>
</svg>
