<svg width="242" height="103" viewBox="0 0 242 103" fill="none" xmlns="http://www.w3.org/2000/svg">
<g clip-path="url(#clip0_3346_3045)">
<rect x="89.2715" width="63.4571" height="63.4571" rx="31.7285" fill="#5C35B0"/>
<g clip-path="url(#clip1_3346_3045)">
<path d="M84.1943 0H168.592V64.0917H84.1943V0Z" fill="#C8102E"/>
<path d="M111.481 0H120.365V63.4571H111.481V0Z" fill="white"/>
<path d="M83.8896 26.9062H168.885V35.8792H83.8896V26.9062Z" fill="white"/>
</g>
</g>
<circle cx="8.63271" cy="94.8417" r="7.78896" fill="url(#paint0_linear_3346_3045)"/>
<circle cx="33.6034" cy="94.8417" r="7.78896" fill="url(#paint1_linear_3346_3045)"/>
<circle cx="58.5741" cy="94.8417" r="7.78896" fill="url(#paint2_linear_3346_3045)"/>
<circle cx="83.5438" cy="94.8417" r="7.78896" fill="url(#paint3_linear_3346_3045)"/>
<circle cx="108.515" cy="94.8417" r="7.78896" fill="url(#paint4_linear_3346_3045)"/>
<circle cx="133.485" cy="94.8417" r="7.78896" fill="url(#paint5_linear_3346_3045)"/>
<circle cx="158.456" cy="94.8417" r="7.78896" fill="url(#paint6_linear_3346_3045)"/>
<circle cx="183.426" cy="94.8417" r="7.78896" fill="url(#paint7_linear_3346_3045)"/>
<circle cx="208.396" cy="94.8417" r="7.78896" fill="url(#paint8_linear_3346_3045)"/>
<circle cx="233.367" cy="94.8417" r="7.78896" fill="url(#paint9_linear_3346_3045)"/>
<defs>
<linearGradient id="paint0_linear_3346_3045" x1="1.74804" y1="95.2999" x2="16.072" y2="95.2999" gradientUnits="userSpaceOnUse">
<stop stop-color="#1AD69E"/>
<stop offset="1" stop-color="#6AF8CE"/>
</linearGradient>
<linearGradient id="paint1_linear_3346_3045" x1="26.7187" y1="95.2999" x2="41.0427" y2="95.2999" gradientUnits="userSpaceOnUse">
<stop stop-color="#1AD69E"/>
<stop offset="1" stop-color="#6AF8CE"/>
</linearGradient>
<linearGradient id="paint2_linear_3346_3045" x1="51.6894" y1="95.2999" x2="66.0134" y2="95.2999" gradientUnits="userSpaceOnUse">
<stop stop-color="#1AD69E"/>
<stop offset="1" stop-color="#6AF8CE"/>
</linearGradient>
<linearGradient id="paint3_linear_3346_3045" x1="76.6592" y1="95.2999" x2="90.9831" y2="95.2999" gradientUnits="userSpaceOnUse">
<stop stop-color="#1AD69E"/>
<stop offset="1" stop-color="#6AF8CE"/>
</linearGradient>
<linearGradient id="paint4_linear_3346_3045" x1="101.63" y1="95.2999" x2="115.954" y2="95.2999" gradientUnits="userSpaceOnUse">
<stop stop-color="#1AD69E"/>
<stop offset="1" stop-color="#6AF8CE"/>
</linearGradient>
<linearGradient id="paint5_linear_3346_3045" x1="126.601" y1="95.2999" x2="140.925" y2="95.2999" gradientUnits="userSpaceOnUse">
<stop stop-color="#1AD69E"/>
<stop offset="1" stop-color="#6AF8CE"/>
</linearGradient>
<linearGradient id="paint6_linear_3346_3045" x1="151.571" y1="95.2999" x2="165.895" y2="95.2999" gradientUnits="userSpaceOnUse">
<stop stop-color="#1AD69E"/>
<stop offset="1" stop-color="#6AF8CE"/>
</linearGradient>
<linearGradient id="paint7_linear_3346_3045" x1="176.541" y1="95.2999" x2="190.865" y2="95.2999" gradientUnits="userSpaceOnUse">
<stop stop-color="#1AD69E"/>
<stop offset="1" stop-color="#6AF8CE"/>
</linearGradient>
<linearGradient id="paint8_linear_3346_3045" x1="201.512" y1="95.2999" x2="215.836" y2="95.2999" gradientUnits="userSpaceOnUse">
<stop stop-color="#1AD69E"/>
<stop offset="1" stop-color="#6AF8CE"/>
</linearGradient>
<linearGradient id="paint9_linear_3346_3045" x1="226.482" y1="95.2999" x2="240.806" y2="95.2999" gradientUnits="userSpaceOnUse">
<stop stop-color="#1AD69E"/>
<stop offset="1" stop-color="#6AF8CE"/>
</linearGradient>
<clipPath id="clip0_3346_3045">
<rect x="89.2715" width="63.4571" height="63.4571" rx="31.7285" fill="white"/>
</clipPath>
<clipPath id="clip1_3346_3045">
<rect width="84.3979" height="63.4571" fill="white" transform="translate(84.1943)"/>
</clipPath>
</defs>
</svg>
