<svg width="899" height="142" viewBox="0 0 899 142" fill="none" xmlns="http://www.w3.org/2000/svg">
<g clip-path="url(#clip0_3350_4116)">
<rect y="0.201172" width="141.201" height="141.201" rx="70.6005" fill="#5C35B0"/>
<g clip-path="url(#clip1_3350_4116)">
<path d="M-35.3008 0.201172V141.402H176.501V0.201172H-35.3008Z" fill="#012169"/>
<path d="M-35.3008 0.201172L176.501 141.402L-35.3008 0.201172ZM176.501 0.201172L-35.3008 141.402Z" fill="black"/>
<path d="M176.501 0.201172L-35.3008 141.402M-35.3008 0.201172L176.501 141.402L-35.3008 0.201172Z" stroke="white" stroke-width="14.1201"/>
<path d="M-35.3008 0.201172L176.501 141.402L-35.3008 0.201172ZM176.501 0.201172L-35.3008 141.402Z" fill="black"/>
<path d="M176.501 0.201172L-35.3008 141.402M-35.3008 0.201172L176.501 141.402L-35.3008 0.201172Z" stroke="#C8102E" stroke-width="9.4134"/>
<path d="M70.6 0.201172V141.402V0.201172ZM-35.3008 70.8017H176.501Z" fill="black"/>
<path d="M-35.3008 70.8017H176.501M70.6 0.201172V141.402V0.201172Z" stroke="white" stroke-width="23.5335"/>
<path d="M70.6 0.201172V141.402V0.201172ZM-35.3008 70.8017H176.501Z" fill="black"/>
<path d="M-35.3008 70.8017H176.501M70.6 0.201172V141.402V0.201172Z" stroke="#C8102E" stroke-width="14.1201"/>
</g>
</g>
<circle cx="220.533" cy="70.8013" r="17.3315" fill="url(#paint0_linear_3350_4116)"/>
<circle cx="276.095" cy="70.8013" r="17.3315" fill="url(#paint1_linear_3350_4116)"/>
<circle cx="331.659" cy="70.8013" r="17.3315" fill="url(#paint2_linear_3350_4116)"/>
<circle cx="387.221" cy="70.8013" r="17.3315" fill="url(#paint3_linear_3350_4116)"/>
<circle cx="442.785" cy="70.8013" r="17.3315" fill="url(#paint4_linear_3350_4116)"/>
<circle cx="498.347" cy="70.8013" r="17.3315" fill="url(#paint5_linear_3350_4116)"/>
<circle cx="553.91" cy="70.8013" r="17.3315" fill="url(#paint6_linear_3350_4116)"/>
<circle cx="609.473" cy="70.8013" r="17.3315" fill="url(#paint7_linear_3350_4116)"/>
<circle cx="665.036" cy="70.8013" r="17.3315" fill="url(#paint8_linear_3350_4116)"/>
<circle cx="720.598" cy="70.8013" r="17.3315" fill="url(#paint9_linear_3350_4116)"/>
<defs>
<linearGradient id="paint0_linear_3350_4116" x1="205.213" y1="71.8208" x2="237.086" y2="71.8208" gradientUnits="userSpaceOnUse">
<stop stop-color="#1AD69E"/>
<stop offset="1" stop-color="#6AF8CE"/>
</linearGradient>
<linearGradient id="paint1_linear_3350_4116" x1="260.776" y1="71.8208" x2="292.649" y2="71.8208" gradientUnits="userSpaceOnUse">
<stop stop-color="#1AD69E"/>
<stop offset="1" stop-color="#6AF8CE"/>
</linearGradient>
<linearGradient id="paint2_linear_3350_4116" x1="316.339" y1="71.8208" x2="348.212" y2="71.8208" gradientUnits="userSpaceOnUse">
<stop stop-color="#1AD69E"/>
<stop offset="1" stop-color="#6AF8CE"/>
</linearGradient>
<linearGradient id="paint3_linear_3350_4116" x1="371.902" y1="71.8208" x2="403.775" y2="71.8208" gradientUnits="userSpaceOnUse">
<stop stop-color="#1AD69E"/>
<stop offset="1" stop-color="#6AF8CE"/>
</linearGradient>
<linearGradient id="paint4_linear_3350_4116" x1="427.465" y1="71.8208" x2="459.338" y2="71.8208" gradientUnits="userSpaceOnUse">
<stop stop-color="#1AD69E"/>
<stop offset="1" stop-color="#6AF8CE"/>
</linearGradient>
<linearGradient id="paint5_linear_3350_4116" x1="483.028" y1="71.8208" x2="514.901" y2="71.8208" gradientUnits="userSpaceOnUse">
<stop stop-color="#1AD69E"/>
<stop offset="1" stop-color="#6AF8CE"/>
</linearGradient>
<linearGradient id="paint6_linear_3350_4116" x1="538.59" y1="71.8208" x2="570.463" y2="71.8208" gradientUnits="userSpaceOnUse">
<stop stop-color="#1AD69E"/>
<stop offset="1" stop-color="#6AF8CE"/>
</linearGradient>
<linearGradient id="paint7_linear_3350_4116" x1="594.154" y1="71.8208" x2="626.027" y2="71.8208" gradientUnits="userSpaceOnUse">
<stop stop-color="#1AD69E"/>
<stop offset="1" stop-color="#6AF8CE"/>
</linearGradient>
<linearGradient id="paint8_linear_3350_4116" x1="649.716" y1="71.8208" x2="681.589" y2="71.8208" gradientUnits="userSpaceOnUse">
<stop stop-color="#1AD69E"/>
<stop offset="1" stop-color="#6AF8CE"/>
</linearGradient>
<linearGradient id="paint9_linear_3350_4116" x1="705.279" y1="71.8208" x2="737.152" y2="71.8208" gradientUnits="userSpaceOnUse">
<stop stop-color="#1AD69E"/>
<stop offset="1" stop-color="#6AF8CE"/>
</linearGradient>
<clipPath id="clip0_3350_4116">
<rect y="0.201172" width="141.201" height="141.201" rx="70.6005" fill="white"/>
</clipPath>
<clipPath id="clip1_3350_4116">
<rect width="211.802" height="141.201" fill="white" transform="translate(-35.2998 0.201172)"/>
</clipPath>
</defs>
</svg>
