<svg width="899" height="100" viewBox="0 0 899 100" fill="none" xmlns="http://www.w3.org/2000/svg">
<g clip-path="url(#clip0_2285_1426)">
<rect width="100" height="100" rx="50" fill="#5C35B0"/>
<g clip-path="url(#clip1_2285_1426)">
<path d="M-25 0V100H125V0H-25Z" fill="#012169"/>
<path d="M-25 0L125 100L-25 0ZM125 0L-25 100Z" fill="black"/>
<path d="M125 0L-25 100M-25 0L125 100L-25 0Z" stroke="white" stroke-width="10"/>
<path d="M-25 0L125 100L-25 0ZM125 0L-25 100Z" fill="black"/>
<path d="M125 0L-25 100M-25 0L125 100L-25 0Z" stroke="#C8102E" stroke-width="6.66667"/>
<path d="M50 0V100V0ZM-25 50H125Z" fill="black"/>
<path d="M-25 50H125M50 0V100V0Z" stroke="white" stroke-width="16.6667"/>
<path d="M50 0V100V0ZM-25 50H125Z" fill="black"/>
<path d="M-25 50H125M50 0V100V0Z" stroke="#C8102E" stroke-width="10"/>
</g>
</g>
<g clip-path="url(#clip2_2285_1426)">
<rect x="141" y="41.5" width="758" height="17" rx="8.5" fill="#3B2273" fill-opacity="0.13"/>
<g clip-path="url(#clip3_2285_1426)">
<path d="M98 41.5H899V58.5H98V41.5Z" fill="url(#paint0_linear_2285_1426)"/>
</g>
<rect x="215" y="41.5" width="2" height="17" fill="black" fill-opacity="0.31"/>
<rect x="292" y="41.5" width="2" height="17" fill="black" fill-opacity="0.31"/>
<rect x="367" y="41.5" width="2" height="17" fill="black" fill-opacity="0.31"/>
<rect x="443" y="41.5" width="2" height="17" fill="black" fill-opacity="0.31"/>
<rect x="519" y="41.5" width="2" height="17" fill="black" fill-opacity="0.31"/>
<rect x="595" y="41.5" width="2" height="17" fill="black" fill-opacity="0.31"/>
<rect x="671" y="41.5" width="2" height="17" fill="black" fill-opacity="0.31"/>
<rect x="746" y="41.5" width="2" height="17" fill="black" fill-opacity="0.31"/>
<rect x="823" y="41.5" width="2" height="17" fill="black" fill-opacity="0.31"/>
</g>
<defs>
<linearGradient id="paint0_linear_2285_1426" x1="144.498" y1="50.5" x2="881.021" y2="50.5" gradientUnits="userSpaceOnUse">
<stop stop-color="#1AD69E"/>
<stop offset="1" stop-color="#6AF8CE"/>
</linearGradient>
<clipPath id="clip0_2285_1426">
<rect width="100" height="100" rx="50" fill="white"/>
</clipPath>
<clipPath id="clip1_2285_1426">
<rect width="150" height="100" fill="white" transform="translate(-25)"/>
</clipPath>
<clipPath id="clip2_2285_1426">
<path d="M141 50C141 45.3056 144.806 41.5 149.5 41.5H890.5C895.194 41.5 899 45.3056 899 50V50C899 54.6944 895.194 58.5 890.5 58.5H149.5C144.806 58.5 141 54.6944 141 50V50Z" fill="white"/>
</clipPath>
<clipPath id="clip3_2285_1426">
<rect width="801" height="17" fill="white" transform="translate(98 41.5)"/>
</clipPath>
</defs>
</svg>
