<svg width="1293" height="2088" viewBox="0 0 1293 2088" fill="none" xmlns="http://www.w3.org/2000/svg">
    <path opacity="0.2" d="M412.358 1363.91L669.739 1512.51C682.027 1519.6 689.597 1532.71 689.597 1546.9V1844.1C689.597 1858.29 682.027 1871.4 669.739 1878.49L412.358 2027.09C400.07 2034.19 384.93 2034.19 372.642 2027.09L115.261 1878.49C102.973 1871.4 95.4032 1858.29 95.4032 1844.1L95.4032 1546.9C95.4032 1532.71 102.973 1519.6 115.261 1512.51L372.642 1363.91C384.93 1356.81 400.07 1356.81 412.358 1363.91Z" stroke="#37DEAD" stroke-width="85.6364" />
    <path opacity="0.2" d="M880.15 67.3753L1164.86 231.756C1178.46 239.604 1186.83 254.107 1186.83 269.803V598.564C1186.83 614.259 1178.46 628.763 1164.86 636.611L880.15 800.991C866.557 808.839 849.81 808.839 836.217 800.991L551.502 636.611C537.909 628.763 529.535 614.259 529.535 598.564V269.803C529.535 254.107 537.909 239.604 551.502 231.756L836.217 67.3753C849.81 59.5274 866.557 59.5274 880.15 67.3753Z" stroke="#37DEAD" stroke-width="94.7309" />
</svg>
    