<svg width="2567" height="1880" viewBox="0 0 2567 1880" fill="none" xmlns="http://www.w3.org/2000/svg">
    <path opacity="0.2" d="M600.5 713.15C620.302 701.717 644.698 701.717 664.5 713.15L1079.26 952.612C1099.06 964.044 1111.26 985.173 1111.26 1008.04V1486.96C1111.26 1509.83 1099.06 1530.96 1079.26 1542.39L664.5 1781.85C644.698 1793.28 620.302 1793.28 600.5 1781.85L185.739 1542.39C165.937 1530.96 153.739 1509.83 153.739 1486.96L153.739 1008.04C153.739 985.173 165.937 964.044 185.739 952.612L600.5 713.15Z" stroke="#37DEAD" stroke-width="138" />
    <path opacity="0.2" d="M1902.5 98.1496C1922.3 86.717 1946.7 86.7171 1966.5 98.1495L2381.26 337.612C2401.06 349.044 2413.26 370.173 2413.26 393.038V871.962C2413.26 894.827 2401.06 915.956 2381.26 927.388L1966.5 1166.85C1946.7 1178.28 1922.3 1178.28 1902.5 1166.85L1487.74 927.388C1467.94 915.956 1455.74 894.827 1455.74 871.962V393.038C1455.74 370.173 1467.94 349.044 1487.74 337.612L1902.5 98.1496Z" stroke="#37DEAD" stroke-width="138" />
</svg>
    