<svg width="820" height="1627" viewBox="0 0 820 1627" fill="none" xmlns="http://www.w3.org/2000/svg">
    <g clip-path="url(#clip0)">
    <path fill-rule="evenodd" clip-rule="evenodd" d="M774.964 -61.7015C778.113 -57.8556 777.547 -52.1852 773.702 -49.0363L331.174 313.283L491.867 482.01L519.152 335.354C519.54 333.266 520.655 331.382 522.298 330.036L1002.3 -62.9637C1006.14 -66.1125 1011.81 -65.5474 1014.96 -61.7015C1018.11 -57.8556 1017.55 -52.1852 1013.7 -49.0363L536.247 341.88L507.184 498.093L774.517 778.793C776.111 780.467 777 782.689 777 785V1627C777 1631.97 772.971 1636 768 1636C763.03 1636 759 1631.97 759 1627V788.6L503.121 519.927L296.848 1628.65C295.939 1633.53 291.24 1636.76 286.354 1635.85C281.467 1634.94 278.243 1630.24 279.152 1625.35L487.805 503.845L317.208 324.718L293.702 343.964C292.636 344.836 291.386 345.452 290.045 345.765L57 400.142V1627C57 1631.97 52.9706 1636 48 1636C43.0294 1636 39 1631.97 39 1627V393C39 388.817 41.8816 385.186 45.9549 384.235L283.917 328.711L304.759 311.647L281.483 287.207C279.889 285.533 279 283.311 279 281V-56C279 -60.9705 283.03 -65 288 -65C292.971 -65 297 -60.9705 297 -56V277.4L318.726 300.212L762.298 -62.9637C766.144 -66.1125 771.815 -65.5474 774.964 -61.7015Z" fill="url(#paint0_linear)"/>
    </g>
    <defs>
    <linearGradient id="paint0_linear" x1="528" y1="-65.0001" x2="528" y2="1636" gradientUnits="userSpaceOnUse">
    <stop stop-color="#37DEAD"/>
    <stop offset="1" stop-color="#6F01FF" stop-opacity="0"/>
    </linearGradient>
    <clipPath id="clip0">
    <rect width="820" height="1627" fill="white"/>
    </clipPath>
    </defs>
    </svg>
    