<svg width="50" height="50" fill="none" xmlns="http://www.w3.org/2000/svg"><g clip-path="url(#a)"><rect width="50" height="50" rx="25" fill="#5C35B0"/><g clip-path="url(#b)"><path d="M-25 0v50H75V0H-25Z" fill="#012169"/><path d="M-25 0 75 50-25 0ZM75 0-25 50Z" fill="#000"/><path d="M75 0-25 50m0-50L75 50-25 0Z" stroke="#fff" stroke-width="10"/><path d="M-25 0 75 50-25 0ZM75 0-25 50Z" fill="#000"/><path d="M75 0-25 50m0-50L75 50-25 0Z" stroke="#C8102E" stroke-width="6.667"/><path d="M25 0v50V0Zm-50 25H75Z" fill="#000"/><path d="M-25 25H75M25 0v50V0Z" stroke="#fff" stroke-width="16.667"/><path d="M25 0v50V0Zm-50 25H75Z" fill="#000"/><path d="M-25 25H75M25 0v50V0Z" stroke="#C8102E" stroke-width="10"/></g></g><defs><clipPath id="a"><rect width="50" height="50" rx="25" fill="#fff"/></clipPath><clipPath id="b"><path fill="#fff" transform="translate(-25)" d="M0 0h100v50H0z"/></clipPath></defs></svg>