<svg width="603" height="900" fill="none" xmlns="http://www.w3.org/2000/svg"><g opacity=".38" clip-path="url(#a)" fill-rule="evenodd" clip-rule="evenodd"><path d="M196.682 7H6v900h366.696c6.717 0 12.163-5.445 12.163-12.162 0-6.717-5.446-12.162-12.163-12.162H83.62c-6.718 0-12.163-5.446-12.163-12.163 0-6.716 5.445-12.162 12.162-12.162h392.222c6.717 0 12.162-5.445 12.162-12.162 0-6.717-5.445-12.162-12.162-12.162H164.945c-6.717 0-12.162-5.445-12.162-12.162 0-6.717 5.445-12.162 12.162-12.162h207.751c6.717 0 12.163-5.445 12.163-12.162 0-6.708-5.431-12.148-12.136-12.163H119.323c-6.717 0-12.162-5.445-12.162-12.162 0-6.717 5.445-12.162 12.162-12.162h187.916c6.717 0 12.162-5.445 12.162-12.162 0-6.704-5.424-12.141-12.123-12.162h-74.892c-6.717 0-12.162-5.445-12.162-12.162 0-6.717 5.445-12.163 12.162-12.163h140.31c6.717 0 12.163-5.445 12.163-12.162 0-6.708-5.431-12.147-12.136-12.162H89.57c-6.717 0-12.162-5.445-12.162-12.162 0-6.717 5.445-12.162 12.162-12.162h412.057c6.717 0 12.162-5.445 12.162-12.162 0-6.717-5.445-12.163-12.162-12.163H164.945c-6.717 0-12.162-5.445-12.162-12.162 0-6.717 5.445-12.162 12.162-12.162h207.751c6.717 0 12.163-5.445 12.163-12.162 0-6.717-5.446-12.162-12.163-12.162H248.254c-6.717 0-12.162-5.445-12.162-12.162 0-6.717 5.445-12.163 12.162-12.163h314.863c6.717 0 12.163-5.445 12.163-12.162 0-6.717-5.446-12.162-12.163-12.162H113.373c-6.717 0-12.162-5.445-12.162-12.162 0-6.717 5.445-12.162 12.162-12.162h326.764c6.717 0 12.162-5.445 12.162-12.162 0-6.717-5.445-12.163-12.162-12.163H145.109c-6.717 0-12.162-5.445-12.162-12.162 0-6.717 5.445-12.162 12.162-12.162H303.3c6.704-.015 12.134-5.454 12.134-12.162 0-6.717-5.445-12.162-12.162-12.162H101.472c-6.717 0-12.162-5.445-12.162-12.162 0-6.717 5.445-12.163 12.162-12.163l184.528.001 86.697-.001.027.001h132.87c6.717 0 12.163-5.446 12.163-12.163 0-6.717-5.446-12.162-12.163-12.162H153.044c-6.717 0-12.162-5.445-12.162-12.162 0-6.717 5.445-12.162 12.162-12.162h410.073c6.717 0 12.163-5.445 12.163-12.162 0-6.717-5.446-12.162-12.163-12.162H93.537c-6.717 0-12.162-5.446-12.162-12.163 0-6.717 5.445-12.162 12.162-12.162h384.288c6.717 0 12.162-5.445 12.162-12.162 0-6.717-5.445-12.162-12.162-12.162H262.139c-6.717 0-12.162-5.445-12.162-12.162 0-6.717 5.445-12.162 12.162-12.162h45.1c6.717 0 12.162-5.446 12.162-12.163 0-6.717-5.445-12.162-12.162-12.162h-70.886c-6.717 0-12.163-5.445-12.163-12.162 0-6.717 5.446-12.162 12.163-12.162h279.159c6.717 0 12.162-5.445 12.162-12.162 0-6.717-5.445-12.162-12.162-12.162H117.34c-6.717 0-12.162-5.446-12.162-12.163 0-6.717 5.445-12.162 12.162-12.162h306.929c6.717 0 12.162-5.445 12.162-12.162 0-6.717-5.445-12.162-12.162-12.162H67.751c-6.717 0-12.162-5.445-12.162-12.162 0-6.717 5.445-12.162 12.162-12.162h459.663c6.716 0 12.162-5.446 12.162-12.163 0-6.717-5.446-12.162-12.162-12.162H157.011c-6.717 0-12.162-5.445-12.162-12.162 0-6.717 5.445-12.162 12.162-12.162h146.292c6.703-.017 12.131-5.456 12.131-12.162 0-6.717-5.445-12.162-12.162-12.162h-106.59c-6.717 0-12.162-5.446-12.162-12.163 0-6.716 5.445-12.162 12.162-12.162h265.274c6.717 0 12.162-5.445 12.162-12.162 0-6.717-5.445-12.162-12.162-12.162H196.682Zm245.7 596.847c0-6.717 5.445-12.162 12.162-12.162h82.787c6.717 0 12.162 5.445 12.162 12.162 0 6.717-5.445 12.162-12.162 12.162h-82.787c-6.717 0-12.162-5.445-12.162-12.162ZM395.037 55.649c-6.717 0-12.162 5.445-12.162 12.162 0 6.717 5.445 12.162 12.162 12.162h51.051c6.717 0 12.162-5.445 12.162-12.162 0-6.717-5.445-12.162-12.162-12.162h-51.051Zm-16.129 206.756c0-6.717 5.445-12.162 12.162-12.162h41.133c6.717 0 12.162 5.445 12.162 12.162 0 6.717-5.445 12.163-12.162 12.163H391.07c-6.717 0-12.162-5.446-12.162-12.163Zm-5.69 182.433h39.149c6.717 0 12.163 5.445 12.163 12.162 0 6.717-5.446 12.162-12.163 12.162h-39.149c-6.717 0-12.162-5.445-12.162-12.162 0-6.717 5.445-12.162 12.162-12.162Zm15.608 304.054c0-6.717 5.445-12.162 12.162-12.162h49.067c6.717 0 12.162 5.445 12.162 12.162 0 6.717-5.445 12.162-12.162 12.162h-49.067c-6.717 0-12.162-5.445-12.162-12.162Z" fill="#000" fill-opacity=".21"/><path d="M190.682 0H0v900h366.696c6.717 0 12.163-5.445 12.163-12.162 0-6.717-5.446-12.162-12.163-12.162H77.62c-6.718 0-12.163-5.446-12.163-12.163 0-6.716 5.445-12.162 12.162-12.162h392.222c6.717 0 12.162-5.445 12.162-12.162 0-6.717-5.445-12.162-12.162-12.162H158.945c-6.717 0-12.162-5.445-12.162-12.162 0-6.717 5.445-12.162 12.162-12.162h207.751c6.717 0 12.163-5.445 12.163-12.162 0-6.708-5.431-12.148-12.136-12.163H113.323c-6.717 0-12.162-5.445-12.162-12.162 0-6.717 5.445-12.162 12.162-12.162h187.916c6.717 0 12.162-5.445 12.162-12.162 0-6.704-5.424-12.141-12.123-12.162h-74.892c-6.717 0-12.162-5.445-12.162-12.162 0-6.717 5.445-12.163 12.162-12.163h140.31c6.717 0 12.163-5.445 12.163-12.162 0-6.708-5.431-12.147-12.136-12.162H83.57c-6.717 0-12.162-5.445-12.162-12.162 0-6.717 5.445-12.162 12.162-12.162h412.057c6.717 0 12.162-5.445 12.162-12.162 0-6.717-5.445-12.163-12.162-12.163H158.945c-6.717 0-12.162-5.445-12.162-12.162 0-6.717 5.445-12.162 12.162-12.162h207.751c6.717 0 12.163-5.445 12.163-12.162 0-6.717-5.446-12.162-12.163-12.162H242.254c-6.717 0-12.162-5.445-12.162-12.162 0-6.717 5.445-12.163 12.162-12.163h314.863c6.717 0 12.163-5.445 12.163-12.162 0-6.717-5.446-12.162-12.163-12.162H107.373c-6.717 0-12.162-5.445-12.162-12.162 0-6.717 5.445-12.162 12.162-12.162h326.764c6.717 0 12.162-5.445 12.162-12.162 0-6.717-5.445-12.163-12.162-12.163H139.109c-6.717 0-12.162-5.445-12.162-12.162 0-6.717 5.445-12.162 12.162-12.162H297.3c6.704-.015 12.134-5.454 12.134-12.162 0-6.717-5.445-12.162-12.162-12.162H95.472c-6.717 0-12.162-5.445-12.162-12.162 0-6.717 5.445-12.163 12.162-12.163l184.528.001 86.697-.001.027.001h132.87c6.717 0 12.163-5.446 12.163-12.163 0-6.717-5.446-12.162-12.163-12.162H147.044c-6.717 0-12.162-5.445-12.162-12.162 0-6.717 5.445-12.162 12.162-12.162h410.073c6.717 0 12.163-5.445 12.163-12.162 0-6.717-5.446-12.162-12.163-12.162H87.537c-6.717 0-12.162-5.446-12.162-12.163 0-6.717 5.445-12.162 12.162-12.162h384.288c6.717 0 12.162-5.445 12.162-12.162 0-6.717-5.445-12.162-12.162-12.162H256.139c-6.717 0-12.162-5.445-12.162-12.162 0-6.717 5.445-12.162 12.162-12.162h45.1c6.717 0 12.162-5.446 12.162-12.163 0-6.717-5.445-12.162-12.162-12.162h-70.886c-6.717 0-12.163-5.445-12.163-12.162 0-6.717 5.446-12.162 12.163-12.162h279.159c6.717 0 12.162-5.445 12.162-12.162 0-6.717-5.445-12.162-12.162-12.162H111.34c-6.717 0-12.162-5.446-12.162-12.163 0-6.717 5.445-12.162 12.162-12.162h306.929c6.717 0 12.162-5.445 12.162-12.162 0-6.717-5.445-12.162-12.162-12.162H61.751c-6.717 0-12.162-5.445-12.162-12.162 0-6.717 5.445-12.162 12.162-12.162h459.663c6.716 0 12.162-5.446 12.162-12.163 0-6.717-5.446-12.162-12.162-12.162H151.011c-6.717 0-12.162-5.445-12.162-12.162 0-6.717 5.445-12.162 12.162-12.162h146.292c6.703-.017 12.131-5.456 12.131-12.162 0-6.717-5.445-12.162-12.162-12.162h-106.59c-6.717 0-12.162-5.446-12.162-12.163 0-6.716 5.445-12.162 12.162-12.162h265.274c6.717 0 12.162-5.445 12.162-12.162C468.118 5.445 462.673 0 455.956 0H190.682Zm245.7 596.847c0-6.717 5.445-12.162 12.162-12.162h82.787c6.717 0 12.162 5.445 12.162 12.162 0 6.717-5.445 12.162-12.162 12.162h-82.787c-6.717 0-12.162-5.445-12.162-12.162ZM389.037 48.649c-6.717 0-12.162 5.445-12.162 12.162 0 6.717 5.445 12.162 12.162 12.162h51.051c6.717 0 12.162-5.445 12.162-12.162 0-6.717-5.445-12.162-12.162-12.162h-51.051Zm-16.129 206.756c0-6.717 5.445-12.162 12.162-12.162h41.133c6.717 0 12.162 5.445 12.162 12.162 0 6.717-5.445 12.163-12.162 12.163H385.07c-6.717 0-12.162-5.446-12.162-12.163Zm-5.69 182.433h39.149c6.717 0 12.163 5.445 12.163 12.162 0 6.717-5.446 12.162-12.163 12.162h-39.149c-6.717 0-12.162-5.445-12.162-12.162 0-6.717 5.445-12.162 12.162-12.162Zm15.608 304.054c0-6.717 5.445-12.162 12.162-12.162h49.067c6.717 0 12.162 5.445 12.162 12.162 0 6.717-5.445 12.162-12.162 12.162h-49.067c-6.717 0-12.162-5.445-12.162-12.162Z" fill="#37DEAD"/></g><defs><clipPath id="a"><path fill="#fff" d="M0 0h603v900H0z"/></clipPath></defs></svg>