<svg width="304" height="1024" viewBox="0 0 304 1024" fill="none" xmlns="http://www.w3.org/2000/svg">
    <g opacity="0.38" clip-path="url(#clip0)">
    <path fill-rule="evenodd" clip-rule="evenodd" d="M109.838 7H6V1031H109.838H147H183.162C190.805 1031 197 1024.8 197 1017.16C197 1009.52 190.805 1003.32 183.162 1003.32H147H52.8379C45.1954 1003.32 39 997.129 39 989.487C39 981.844 45.1954 975.649 52.8379 975.649L147 975.649L183.162 975.649L235.162 975.649C242.805 975.649 249 969.453 249 961.811C249 954.168 242.805 947.973 235.162 947.973H183.204L183.162 947.973L147 947.973L93.8378 947.973C86.1954 947.973 80 941.778 80 934.135C80 926.493 86.1954 920.297 93.8378 920.297L147 920.297H183.162C190.805 920.297 197 914.102 197 906.459C197 898.827 190.82 892.637 183.191 892.622H183.162H147L70.8379 892.622C63.1954 892.622 57 886.426 57 878.784C57 871.141 63.1954 864.946 70.8379 864.946H147H150.162C157.805 864.946 164 858.75 164 851.108C164 843.466 157.805 837.27 150.162 837.27H147H127.838C120.195 837.27 114 831.075 114 823.432C114 815.79 120.195 809.595 127.838 809.595H147H183.162C190.805 809.595 197 803.399 197 795.757C197 788.114 190.805 781.919 183.162 781.919H147H55.8379C48.1954 781.919 42 775.724 42 768.081C42 760.439 48.1954 754.243 55.8379 754.243L147 754.243L183.162 754.243L248.162 754.243C255.805 754.243 262 748.048 262 740.405C262 732.763 255.805 726.568 248.162 726.568H183.204L183.162 726.568L147 726.568L93.8378 726.568C86.1954 726.568 80 720.372 80 712.73C80 705.087 86.1954 698.892 93.8378 698.892L147 698.892H183.162C190.805 698.892 197 692.696 197 685.054C197 677.412 190.805 671.216 183.162 671.216H147H135.838C128.195 671.216 122 665.021 122 657.378C122 649.736 128.195 643.541 135.838 643.541H147H183.162H279.162C286.805 643.541 293 637.345 293 629.703C293 622.06 286.805 615.865 279.162 615.865H183.162H147H67.8378C60.1954 615.865 54 609.669 54 602.027C54 594.385 60.1954 588.189 67.8378 588.189H147H183.162H217.162C224.805 588.189 231 581.994 231 574.351C231 566.709 224.805 560.513 217.162 560.513H183.162H147H83.8378C76.1954 560.513 70 554.318 70 546.676C70 539.033 76.1954 532.838 83.8378 532.838H147H148.162C155.805 532.838 162 526.642 162 519C162 511.358 155.805 505.162 148.162 505.162H147H61.8378C54.1954 505.162 48 498.967 48 491.324C48 483.682 54.1954 477.486 61.8378 477.486H147H183.162H250.162C257.805 477.486 264 471.291 264 463.649C264 456.006 257.805 449.811 250.162 449.811H183.162H147H87.8378C80.1954 449.811 74 443.615 74 435.973C74 428.331 80.1954 422.135 87.8378 422.135H147H183.162H279.162C286.805 422.135 293 415.94 293 408.297C293 400.655 286.805 394.459 279.162 394.459H183.162H147H57.8378C50.1954 394.459 44 388.264 44 380.622C44 372.979 50.1954 366.784 57.8378 366.784H147H183.162H236.162C243.805 366.784 250 360.588 250 352.946C250 345.303 243.805 339.108 236.162 339.108H183.162H147H142.838C135.195 339.108 129 332.913 129 325.27C129 317.628 135.195 311.432 142.838 311.432H147H150.162C157.805 311.432 164 305.237 164 297.595C164 289.962 157.82 283.773 150.192 283.757L150.162 283.757H147L129.838 283.757C122.195 283.757 116 277.561 116 269.919C116 262.277 122.195 256.081 129.838 256.081L147 256.081L183.162 256.081L255.162 256.081C262.805 256.081 269 249.886 269 242.243C269 234.601 262.805 228.405 255.162 228.405H183.183L183.162 228.405L147 228.405L69.8378 228.405C62.1954 228.405 56 222.21 56 214.568C56 206.925 62.1954 200.73 69.8378 200.73L147 200.73L183.162 200.73L209.162 200.73C216.805 200.73 223 194.534 223 186.892C223 179.249 216.805 173.054 209.162 173.054H183.183L183.162 173.054L147 173.054L44.8378 173.054C37.1954 173.054 31 166.859 31 159.216C31 151.574 37.1954 145.378 44.8378 145.378L147 145.378L183.162 145.378L261.162 145.378C268.805 145.378 275 139.183 275 131.541C275 123.898 268.805 117.703 261.162 117.703H183.183L183.162 117.703H89.8378C82.1954 117.703 76 111.507 76 103.865C76 96.2225 82.1954 90.027 89.8378 90.027L147 90.027H148.162C155.805 90.027 162 83.8316 162 76.1892C162 68.5528 155.814 62.3611 148.18 62.3514H109.838C102.195 62.3514 96 56.156 96 48.5135C96 40.8711 102.195 34.6757 109.838 34.6757L147 34.6757H228.162C235.805 34.6757 242 28.4803 242 20.8378C242 13.1954 235.805 7 228.162 7H147H109.838ZM226 686.079C226 678.437 232.195 672.241 239.838 672.241H266.162C273.805 672.241 280 678.437 280 686.079C280 693.721 273.805 699.917 266.162 699.917H239.838C232.195 699.917 226 693.721 226 686.079ZM209.838 62.3514C202.195 62.3514 196 68.5468 196 76.1892C196 83.8316 202.195 90.027 209.838 90.027H220.162C227.805 90.027 234 83.8316 234 76.1892C234 68.5468 227.805 62.3514 220.162 62.3514H209.838ZM194 297.595C194 289.952 200.195 283.757 207.838 283.757H213.162C220.805 283.757 227 289.952 227 297.595C227 305.237 220.805 311.432 213.162 311.432H207.838C200.195 311.432 194 305.237 194 297.595ZM185 519C185 511.358 191.195 505.162 198.838 505.162H203.162C210.805 505.162 217 511.358 217 519C217 526.642 210.805 532.838 203.162 532.838H198.838C191.195 532.838 185 526.642 185 519ZM199 851.108C199 843.466 205.195 837.27 212.838 837.27H222.162C229.805 837.27 236 843.466 236 851.108C236 858.75 229.805 864.946 222.162 864.946H212.838C205.195 864.946 199 858.75 199 851.108Z" fill="#0D0D0D" fill-opacity="0.21"/>
    <path fill-rule="evenodd" clip-rule="evenodd" d="M103.838 0H0V1024H103.838H141H177.162C184.805 1024 191 1017.8 191 1010.16C191 1002.52 184.805 996.324 177.162 996.324H141H46.8379C39.1954 996.324 33 990.129 33 982.487C33 974.844 39.1954 968.649 46.8379 968.649L141 968.649L177.162 968.649L229.162 968.649C236.805 968.649 243 962.453 243 954.811C243 947.168 236.805 940.973 229.162 940.973H177.204L177.162 940.973L141 940.973L87.8378 940.973C80.1954 940.973 74 934.778 74 927.135C74 919.493 80.1954 913.297 87.8378 913.297L141 913.297H177.162C184.805 913.297 191 907.102 191 899.459C191 891.827 184.82 885.637 177.191 885.622H177.162H141L64.8379 885.622C57.1954 885.622 51 879.426 51 871.784C51 864.141 57.1954 857.946 64.8379 857.946H141H144.162C151.805 857.946 158 851.75 158 844.108C158 836.466 151.805 830.27 144.162 830.27H141H121.838C114.195 830.27 108 824.075 108 816.432C108 808.79 114.195 802.595 121.838 802.595H141H177.162C184.805 802.595 191 796.399 191 788.757C191 781.114 184.805 774.919 177.162 774.919H141H49.8379C42.1954 774.919 36 768.724 36 761.081C36 753.439 42.1954 747.243 49.8379 747.243L141 747.243L177.162 747.243L242.162 747.243C249.805 747.243 256 741.048 256 733.405C256 725.763 249.805 719.568 242.162 719.568H177.204L177.162 719.568L141 719.568L87.8378 719.568C80.1954 719.568 74 713.372 74 705.73C74 698.087 80.1954 691.892 87.8378 691.892L141 691.892H177.162C184.805 691.892 191 685.696 191 678.054C191 670.412 184.805 664.216 177.162 664.216H141H129.838C122.195 664.216 116 658.021 116 650.378C116 642.736 122.195 636.541 129.838 636.541H141H177.162H273.162C280.805 636.541 287 630.345 287 622.703C287 615.06 280.805 608.865 273.162 608.865H177.162H141H61.8378C54.1954 608.865 48 602.669 48 595.027C48 587.385 54.1954 581.189 61.8378 581.189H141H177.162H211.162C218.805 581.189 225 574.994 225 567.351C225 559.709 218.805 553.513 211.162 553.513H177.162H141H77.8378C70.1954 553.513 64 547.318 64 539.676C64 532.033 70.1954 525.838 77.8378 525.838H141H142.162C149.805 525.838 156 519.642 156 512C156 504.358 149.805 498.162 142.162 498.162H141H55.8378C48.1954 498.162 42 491.967 42 484.324C42 476.682 48.1954 470.486 55.8378 470.486H141H177.162H244.162C251.805 470.486 258 464.291 258 456.649C258 449.006 251.805 442.811 244.162 442.811H177.162H141H81.8378C74.1954 442.811 68 436.615 68 428.973C68 421.331 74.1954 415.135 81.8378 415.135H141H177.162H273.162C280.805 415.135 287 408.94 287 401.297C287 393.655 280.805 387.459 273.162 387.459H177.162H141H51.8378C44.1954 387.459 38 381.264 38 373.622C38 365.979 44.1954 359.784 51.8378 359.784H141H177.162H230.162C237.805 359.784 244 353.588 244 345.946C244 338.303 237.805 332.108 230.162 332.108H177.162H141H136.838C129.195 332.108 123 325.913 123 318.27C123 310.628 129.195 304.432 136.838 304.432H141H144.162C151.805 304.432 158 298.237 158 290.595C158 282.962 151.82 276.773 144.192 276.757L144.162 276.757H141L123.838 276.757C116.195 276.757 110 270.561 110 262.919C110 255.277 116.195 249.081 123.838 249.081L141 249.081L177.162 249.081L249.162 249.081C256.805 249.081 263 242.886 263 235.243C263 227.601 256.805 221.405 249.162 221.405H177.183L177.162 221.405L141 221.405L63.8378 221.405C56.1954 221.405 50 215.21 50 207.568C50 199.925 56.1954 193.73 63.8378 193.73L141 193.73L177.162 193.73L203.162 193.73C210.805 193.73 217 187.534 217 179.892C217 172.249 210.805 166.054 203.162 166.054H177.183L177.162 166.054L141 166.054L38.8378 166.054C31.1954 166.054 25 159.859 25 152.216C25 144.574 31.1954 138.378 38.8378 138.378L141 138.378L177.162 138.378L255.162 138.378C262.805 138.378 269 132.183 269 124.541C269 116.898 262.805 110.703 255.162 110.703H177.183L177.162 110.703H83.8378C76.1954 110.703 70 104.507 70 96.8649C70 89.2225 76.1954 83.027 83.8378 83.027L141 83.027H142.162C149.805 83.027 156 76.8316 156 69.1892C156 61.5528 149.814 55.3611 142.18 55.3514H103.838C96.1954 55.3514 90 49.156 90 41.5135C90 33.8711 96.1954 27.6757 103.838 27.6757L141 27.6757H222.162C229.805 27.6757 236 21.4803 236 13.8378C236 6.19541 229.805 0 222.162 0H141H103.838ZM220 679.079C220 671.437 226.195 665.241 233.838 665.241H260.162C267.805 665.241 274 671.437 274 679.079C274 686.721 267.805 692.917 260.162 692.917H233.838C226.195 692.917 220 686.721 220 679.079ZM203.838 55.3514C196.195 55.3514 190 61.5468 190 69.1892C190 76.8316 196.195 83.027 203.838 83.027H214.162C221.805 83.027 228 76.8316 228 69.1892C228 61.5468 221.805 55.3514 214.162 55.3514H203.838ZM188 290.595C188 282.952 194.195 276.757 201.838 276.757H207.162C214.805 276.757 221 282.952 221 290.595C221 298.237 214.805 304.432 207.162 304.432H201.838C194.195 304.432 188 298.237 188 290.595ZM179 512C179 504.358 185.195 498.162 192.838 498.162H197.162C204.805 498.162 211 504.358 211 512C211 519.642 204.805 525.838 197.162 525.838H192.838C185.195 525.838 179 519.642 179 512ZM193 844.108C193 836.466 199.195 830.27 206.838 830.27H216.162C223.805 830.27 230 836.466 230 844.108C230 851.75 223.805 857.946 216.162 857.946H206.838C199.195 857.946 193 851.75 193 844.108Z" fill="#37DEAD"/>
    </g>
    <defs>
    <clipPath id="clip0">
    <rect width="304" height="1024" fill="white"/>
    </clipPath>
    </defs>
    </svg>
    