<svg width="304" height="1024" fill="none" xmlns="http://www.w3.org/2000/svg"><g opacity=".38" clip-path="url(#a)" fill-rule="evenodd" clip-rule="evenodd"><path d="M109.838 7H6v1024h177.162c7.643 0 13.838-6.2 13.838-13.84s-6.195-13.84-13.838-13.84H52.838c-7.643 0-13.838-6.191-13.838-13.833 0-7.643 6.195-13.838 13.838-13.838h182.324c7.643 0 13.838-6.196 13.838-13.838 0-7.643-6.195-13.838-13.838-13.838H93.838c-7.643 0-13.838-6.195-13.838-13.838 0-7.642 6.195-13.838 13.838-13.838h89.324c7.643 0 13.838-6.195 13.838-13.838 0-7.632-6.18-13.822-13.809-13.837H70.838c-7.643 0-13.838-6.196-13.838-13.838 0-7.643 6.195-13.838 13.838-13.838H150.162c7.643 0 13.838-6.196 13.838-13.838 0-7.642-6.195-13.838-13.838-13.838H127.838c-7.643 0-13.838-6.195-13.838-13.838 0-7.642 6.195-13.837 13.838-13.837h55.324c7.643 0 13.838-6.196 13.838-13.838 0-7.643-6.195-13.838-13.838-13.838H55.838c-7.643 0-13.838-6.195-13.838-13.838 0-7.642 6.195-13.838 13.838-13.838h192.324c7.643 0 13.838-6.195 13.838-13.838 0-7.642-6.195-13.837-13.838-13.837H93.838c-7.643 0-13.838-6.196-13.838-13.838 0-7.643 6.195-13.838 13.838-13.838h89.324c7.643 0 13.838-6.196 13.838-13.838 0-7.642-6.195-13.838-13.838-13.838h-47.324c-7.643 0-13.838-6.195-13.838-13.838 0-7.642 6.195-13.837 13.838-13.837h143.324c7.643 0 13.838-6.196 13.838-13.838 0-7.643-6.195-13.838-13.838-13.838H67.838c-7.643 0-13.838-6.196-13.838-13.838 0-7.642 6.195-13.838 13.838-13.838h149.324c7.643 0 13.838-6.195 13.838-13.838 0-7.642-6.195-13.838-13.838-13.838H83.838c-7.643 0-13.838-6.195-13.838-13.837 0-7.643 6.195-13.838 13.838-13.838h64.324c7.643 0 13.838-6.196 13.838-13.838 0-7.642-6.195-13.838-13.838-13.838H61.838c-7.643 0-13.838-6.195-13.838-13.838 0-7.642 6.195-13.838 13.838-13.838h188.324c7.643 0 13.838-6.195 13.838-13.837 0-7.643-6.195-13.838-13.838-13.838H87.838c-7.643 0-13.838-6.196-13.838-13.838 0-7.642 6.195-13.838 13.838-13.838h191.324c7.643 0 13.838-6.195 13.838-13.838 0-7.642-6.195-13.838-13.838-13.838H57.838c-7.643 0-13.838-6.195-13.838-13.837 0-7.643 6.195-13.838 13.838-13.838h178.324c7.643 0 13.838-6.196 13.838-13.838 0-7.643-6.195-13.838-13.838-13.838H142.838c-7.643 0-13.838-6.195-13.838-13.838 0-7.642 6.195-13.838 13.838-13.838h7.324c7.643 0 13.838-6.195 13.838-13.837 0-7.633-6.18-13.822-13.808-13.838h-20.354c-7.643 0-13.838-6.196-13.838-13.838 0-7.642 6.195-13.838 13.838-13.838h125.324c7.643 0 13.838-6.195 13.838-13.838 0-7.642-6.195-13.838-13.838-13.838H69.838c-7.643 0-13.838-6.195-13.838-13.837 0-7.643 6.195-13.838 13.838-13.838h139.324c7.643 0 13.838-6.196 13.838-13.838 0-7.643-6.195-13.838-13.838-13.838H44.838c-7.643 0-13.838-6.195-13.838-13.838 0-7.642 6.195-13.838 13.838-13.838h216.324c7.643 0 13.838-6.195 13.838-13.837 0-7.643-6.195-13.838-13.838-13.838H89.838c-7.643 0-13.838-6.196-13.838-13.838 0-7.642 6.195-13.838 13.838-13.838h58.324c7.643 0 13.838-6.195 13.838-13.838 0-7.636-6.186-13.828-13.82-13.838h-38.342C102.195 62.351 96 56.156 96 48.514c0-7.643 6.195-13.838 13.838-13.838H228.162c7.643 0 13.838-6.196 13.838-13.838C242 13.195 235.805 7 228.162 7H109.838ZM226 686.079c0-7.642 6.195-13.838 13.838-13.838h26.324c7.643 0 13.838 6.196 13.838 13.838 0 7.642-6.195 13.838-13.838 13.838h-26.324c-7.643 0-13.838-6.196-13.838-13.838ZM209.838 62.351c-7.643 0-13.838 6.196-13.838 13.838 0 7.643 6.195 13.838 13.838 13.838h10.324c7.643 0 13.838-6.195 13.838-13.838 0-7.642-6.195-13.838-13.838-13.838h-10.324ZM194 297.595c0-7.643 6.195-13.838 13.838-13.838h5.324c7.643 0 13.838 6.195 13.838 13.838 0 7.642-6.195 13.837-13.838 13.837h-5.324c-7.643 0-13.838-6.195-13.838-13.837ZM185 519c0-7.642 6.195-13.838 13.838-13.838h4.324c7.643 0 13.838 6.196 13.838 13.838 0 7.642-6.195 13.838-13.838 13.838h-4.324c-7.643 0-13.838-6.196-13.838-13.838Zm14 332.108c0-7.642 6.195-13.838 13.838-13.838h9.324c7.643 0 13.838 6.196 13.838 13.838 0 7.642-6.195 13.838-13.838 13.838h-9.324c-7.643 0-13.838-6.196-13.838-13.838Z" fill="#0D0D0D" fill-opacity=".21"/><path d="M103.838 0H0v1024h177.162c7.643 0 13.838-6.2 13.838-13.84s-6.195-13.836-13.838-13.836H46.838c-7.643 0-13.838-6.195-13.838-13.837 0-7.643 6.195-13.838 13.838-13.838h182.324c7.643 0 13.838-6.196 13.838-13.838 0-7.643-6.195-13.838-13.838-13.838H87.838c-7.643 0-13.838-6.195-13.838-13.838 0-7.642 6.195-13.838 13.838-13.838h89.324c7.643 0 13.838-6.195 13.838-13.838 0-7.632-6.18-13.822-13.809-13.837H64.838c-7.643 0-13.838-6.196-13.838-13.838 0-7.643 6.195-13.838 13.838-13.838H144.162c7.643 0 13.838-6.196 13.838-13.838 0-7.642-6.195-13.838-13.838-13.838H121.838c-7.643 0-13.838-6.195-13.838-13.838 0-7.642 6.195-13.837 13.838-13.837h55.324c7.643 0 13.838-6.196 13.838-13.838 0-7.643-6.195-13.838-13.838-13.838H49.838c-7.643 0-13.838-6.195-13.838-13.838 0-7.642 6.195-13.838 13.838-13.838h192.324c7.643 0 13.838-6.195 13.838-13.838 0-7.642-6.195-13.837-13.838-13.837H87.838c-7.643 0-13.838-6.196-13.838-13.838 0-7.643 6.195-13.838 13.838-13.838h89.324c7.643 0 13.838-6.196 13.838-13.838 0-7.642-6.195-13.838-13.838-13.838h-47.324c-7.643 0-13.838-6.195-13.838-13.838 0-7.642 6.195-13.837 13.838-13.837h143.324c7.643 0 13.838-6.196 13.838-13.838 0-7.643-6.195-13.838-13.838-13.838H61.838c-7.643 0-13.838-6.196-13.838-13.838 0-7.642 6.195-13.838 13.838-13.838h149.324c7.643 0 13.838-6.195 13.838-13.838 0-7.642-6.195-13.838-13.838-13.838H77.838c-7.643 0-13.838-6.195-13.838-13.837 0-7.643 6.195-13.838 13.838-13.838h64.324c7.643 0 13.838-6.196 13.838-13.838 0-7.642-6.195-13.838-13.838-13.838H55.838c-7.643 0-13.838-6.195-13.838-13.838 0-7.642 6.195-13.838 13.838-13.838h188.324c7.643 0 13.838-6.195 13.838-13.837 0-7.643-6.195-13.838-13.838-13.838H81.838c-7.643 0-13.838-6.196-13.838-13.838 0-7.642 6.195-13.838 13.838-13.838h191.324c7.643 0 13.838-6.195 13.838-13.838 0-7.642-6.195-13.838-13.838-13.838H51.838c-7.643 0-13.838-6.195-13.838-13.837 0-7.643 6.195-13.838 13.838-13.838h178.324c7.643 0 13.838-6.196 13.838-13.838 0-7.643-6.195-13.838-13.838-13.838H136.838c-7.643 0-13.838-6.195-13.838-13.838 0-7.642 6.195-13.838 13.838-13.838h7.324c7.643 0 13.838-6.195 13.838-13.837 0-7.633-6.18-13.822-13.808-13.838h-20.354c-7.643 0-13.838-6.196-13.838-13.838 0-7.642 6.195-13.838 13.838-13.838h125.324c7.643 0 13.838-6.195 13.838-13.838 0-7.642-6.195-13.838-13.838-13.838H63.838c-7.643 0-13.838-6.195-13.838-13.837 0-7.643 6.195-13.838 13.838-13.838h139.324c7.643 0 13.838-6.196 13.838-13.838 0-7.643-6.195-13.838-13.838-13.838H38.838c-7.643 0-13.838-6.195-13.838-13.838 0-7.642 6.195-13.838 13.838-13.838h216.324c7.643 0 13.838-6.195 13.838-13.837 0-7.643-6.195-13.838-13.838-13.838H83.838c-7.643 0-13.838-6.196-13.838-13.838 0-7.642 6.195-13.838 13.838-13.838h58.324c7.643 0 13.838-6.195 13.838-13.838 0-7.636-6.186-13.828-13.82-13.838h-38.342C96.195 55.351 90 49.156 90 41.514c0-7.643 6.195-13.838 13.838-13.838H222.162c7.643 0 13.838-6.196 13.838-13.838C236 6.195 229.805 0 222.162 0H103.838ZM220 679.079c0-7.642 6.195-13.838 13.838-13.838h26.324c7.643 0 13.838 6.196 13.838 13.838 0 7.642-6.195 13.838-13.838 13.838h-26.324c-7.643 0-13.838-6.196-13.838-13.838ZM203.838 55.351c-7.643 0-13.838 6.196-13.838 13.838 0 7.643 6.195 13.838 13.838 13.838h10.324c7.643 0 13.838-6.195 13.838-13.838 0-7.642-6.195-13.838-13.838-13.838h-10.324ZM188 290.595c0-7.643 6.195-13.838 13.838-13.838h5.324c7.643 0 13.838 6.195 13.838 13.838 0 7.642-6.195 13.837-13.838 13.837h-5.324c-7.643 0-13.838-6.195-13.838-13.837ZM179 512c0-7.642 6.195-13.838 13.838-13.838h4.324c7.643 0 13.838 6.196 13.838 13.838 0 7.642-6.195 13.838-13.838 13.838h-4.324c-7.643 0-13.838-6.196-13.838-13.838Zm14 332.108c0-7.642 6.195-13.838 13.838-13.838h9.324c7.643 0 13.838 6.196 13.838 13.838 0 7.642-6.195 13.838-13.838 13.838h-9.324c-7.643 0-13.838-6.196-13.838-13.838Z" fill="#37DEAD"/></g><defs><clipPath id="a"><path fill="#fff" d="M0 0h304v1024H0z"/></clipPath></defs></svg>