<svg width="1440" height="4224" fill="none" xmlns="http://www.w3.org/2000/svg"><g opacity=".77" fill-rule="evenodd" clip-rule="evenodd"><path d="M848.322 544.431v.001h-112.47c-7.473 0-13.532 6.058-13.532 13.531 0 7.448 6.017 13.49 13.455 13.532h185.13c7.473 0 13.532 6.058 13.532 13.531 0 7.474-6.059 13.532-13.532 13.532H738.551c-7.464.011-13.511 6.065-13.511 13.531 0 7.474 6.058 13.532 13.532 13.532h106.187c7.473 0 13.531 6.058 13.531 13.532 0 7.473-6.058 13.531-13.531 13.531H637.932c-7.464.011-13.511 6.065-13.511 13.532 0 7.473 6.058 13.531 13.531 13.531H896.43c7.473 0 13.531 6.058 13.531 13.532 0 7.473-6.058 13.531-13.531 13.531h-46.296v.001h-97.058c-7.473 0-13.531 6.058-13.531 13.531 0 7.438 6.001 13.474 13.425 13.531h136.208c7.473 0 13.531 6.059 13.531 13.532s-6.058 13.532-13.531 13.532H739.477c-7.473 0-13.532 6.058-13.532 13.531 0 7.474 6.059 13.532 13.532 13.532h408.043c7.48 0 13.54-6.058 13.54-13.532 0-7.473-6.06-13.531-13.54-13.531H945.248c-7.473 0-13.531-6.059-13.531-13.532s6.058-13.532 13.531-13.532h215.982c7.42-.057 13.42-6.093 13.42-13.531 0-7.473-6.05-13.531-13.53-13.531h-123.35v-.001h-81.645c-7.473 0-13.531-6.058-13.531-13.531 0-7.474 6.058-13.532 13.531-13.532h358.195c7.47 0 13.53-6.058 13.53-13.531 0-7.467-6.05-13.521-13.51-13.532h-270.29c-7.47 0-13.53-6.058-13.53-13.531 0-7.474 6.06-13.532 13.53-13.532h326.47c7.47 0 13.53-6.058 13.53-13.532 0-7.473-6.06-13.531-13.53-13.531H980.602c-7.473 0-13.532-6.058-13.532-13.532 0-7.473 6.059-13.531 13.532-13.531h163.378c7.43-.042 13.45-6.084 13.45-13.532 0-7.473-6.06-13.531-13.53-13.531h-107.94v-.001h-34.51c-7.473 0-13.531-6.058-13.531-13.531 0-7.473 6.058-13.532 13.531-13.532h77.27c7.43-.044 13.44-6.085 13.44-13.531 0-7.473-6.05-13.532-13.53-13.532H825.594c-7.473 0-13.531 6.059-13.531 13.532 0 7.446 6.013 13.487 13.449 13.531h107.177c7.474 0 13.532 6.059 13.532 13.532s-6.058 13.531-13.532 13.531h-84.367Zm-256.535 67.658c0-7.473 6.058-13.531 13.532-13.531h51.8c7.473 0 13.532 6.058 13.532 13.531 0 7.474-6.059 13.532-13.532 13.532h-51.8c-7.474 0-13.532-6.058-13.532-13.532Z" fill="#6901F2"/><path d="M844.535 537.126h-112.47c-7.474 0-13.532 6.059-13.532 13.532 0 7.451 6.022 13.495 13.464 13.531h185.121c7.473 0 13.532 6.059 13.532 13.532s-6.059 13.531-13.532 13.531l-72.583.001-109.792-.001c-7.454.023-13.49 6.072-13.49 13.532 0 7.473 6.058 13.532 13.531 13.532h106.188c7.473 0 13.531 6.058 13.531 13.532 0 7.473-6.058 13.531-13.531 13.531H634.081c-7.435.046-13.447 6.086-13.447 13.531 0 7.474 6.058 13.532 13.531 13.532h258.477c7.474 0 13.532 6.058 13.532 13.531 0 7.474-6.058 13.532-13.532 13.532H749.289c-7.473 0-13.531 6.059-13.531 13.532 0 7.439 6.003 13.476 13.429 13.531h136.204c7.473 0 13.531 6.058 13.531 13.532 0 7.473-6.058 13.531-13.531 13.531H735.69c-7.474 0-13.532 6.059-13.532 13.532s6.058 13.531 13.532 13.531h408.05c7.47 0 13.53-6.058 13.53-13.531 0-7.473-6.06-13.532-13.53-13.532H941.461c-7.473 0-13.531-6.058-13.531-13.531 0-7.474 6.058-13.532 13.531-13.532h215.979c7.42-.055 13.43-6.092 13.43-13.531 0-7.473-6.06-13.532-13.53-13.532H952.338c-7.473 0-13.531-6.058-13.531-13.532 0-7.473 6.058-13.531 13.531-13.531h358.192c7.47 0 13.53-6.058 13.53-13.532 0-7.445-6.01-13.485-13.45-13.531h-270.34c-7.48 0-13.53-6.058-13.53-13.531 0-7.474 6.05-13.532 13.53-13.532h326.46c7.47 0 13.53-6.059 13.53-13.532s-6.06-13.532-13.53-13.532h-156.82l-177.73.001-55.365-.001c-7.474 0-13.532-6.058-13.532-13.531 0-7.473 6.058-13.532 13.532-13.532h163.365c7.44-.036 13.46-6.08 13.46-13.531 0-7.473-6.06-13.532-13.53-13.532H997.663c-7.473 0-13.531-6.058-13.531-13.532 0-7.473 6.058-13.531 13.531-13.531h77.257c7.44-.041 13.46-6.084 13.46-13.531 0-7.474-6.06-13.532-13.53-13.532H821.807c-7.473 0-13.531 6.058-13.531 13.532 0 7.447 6.016 13.49 13.454 13.531h107.172c7.474 0 13.532 6.058 13.532 13.531 0 7.474-6.058 13.532-13.532 13.532h-84.367ZM588 604.784c0-7.473 6.058-13.532 13.532-13.532h51.8c7.473 0 13.532 6.059 13.532 13.532s-6.059 13.532-13.532 13.532h-51.8c-7.474 0-13.532-6.059-13.532-13.532Z" fill="#5959DE"/></g><g opacity=".77" fill-rule="evenodd" clip-rule="evenodd"><path d="M1182 3057.65h17.49c7.44 0 13.47-6.03 13.47-13.47s-6.03-13.47-13.47-13.47H987.304c-7.437 0-13.466 6.03-13.466 13.47s6.029 13.47 13.466 13.47h62.066c7.43 0 13.46 6.03 13.46 13.46 0 7.44-6.03 13.47-13.46 13.47H931.476c-7.386.06-13.354 6.06-13.354 13.46 0 7.44 6.028 13.47 13.465 13.47h135.573c7.44 0 13.47 6.03 13.47 13.47 0 7.39-5.96 13.39-13.34 13.46h54.53c-7.37-.07-13.33-6.07-13.33-13.46 0-7.44 6.03-13.47 13.46-13.47H1276.1c7.44 0 13.47-6.03 13.47-13.47 0-7.4-5.97-13.4-13.36-13.46h-164.32c-7.43 0-13.46-6.03-13.46-13.47 0-7.43 6.03-13.46 13.46-13.46H1182Zm-60.16 80.79h152.05c7.39.06 13.36 6.07 13.36 13.47 0 7.43-6.03 13.46-13.47 13.46h-86.82c-7.44 0-13.47 6.03-13.47 13.47s6.03 13.46 13.47 13.46h172.91c7.35.11 13.27 6.1 13.27 13.47 0 7.44-6.03 13.46-13.46 13.46h-94.87v.01H852.346v-.01h-66.241c-7.437 0-13.466-6.02-13.466-13.46 0-7.37 5.922-13.36 13.267-13.47h227.084c7.44 0 13.47-6.02 13.47-13.46 0-7.44-6.03-13.47-13.47-13.47H738.127c-7.437 0-13.466-6.03-13.466-13.46 0-7.44 6.029-13.47 13.466-13.47h383.713Zm89.27 107.73h-68.26c-7.44 0-13.47-6.03-13.47-13.47 0-7.4 5.97-13.4 13.35-13.46h-54.55c7.38.06 13.35 6.06 13.35 13.46 0 7.44-6.03 13.47-13.47 13.47h-87.42c-6.122 1.29-10.713 6.72-10.713 13.22 0 7.47 6.053 13.53 13.523 13.53h16.82v.18h77.07c7.44 0 13.47 6.03 13.47 13.46 0 7.44-6.03 13.47-13.47 13.47h-95.3c-6.807.71-12.113 6.46-12.113 13.45 0 7.47 6.053 13.52 13.523 13.52h232.95c7.47 0 13.52-6.05 13.52-13.52 0-6.99-5.3-12.74-12.11-13.45h-88.77c-7.44 0-13.47-6.03-13.47-13.47 0-7.43 6.03-13.46 13.47-13.46h31.41v-.18h27.84c7.47 0 13.52-6.06 13.52-13.53 0-6.5-4.59-11.93-10.7-13.22Zm189.89-94.26c0-7.44-6.03-13.47-13.47-13.47h-40.39c-7.44 0-13.46 6.03-13.46 13.47 0 7.43 6.02 13.46 13.46 13.46h40.39c7.44 0 13.47-6.03 13.47-13.46Z" fill="#6901F2"/><path d="M1177.34 3048.93h17.49c7.44 0 13.46-6.03 13.46-13.46 0-7.44-6.02-13.47-13.46-13.47H982.643c-7.437 0-13.466 6.03-13.466 13.47 0 7.43 6.029 13.46 13.466 13.46H1044.71c7.43 0 13.46 6.03 13.46 13.47 0 7.43-6.03 13.46-13.46 13.46H926.815c-7.386.06-13.354 6.07-13.354 13.47 0 7.44 6.028 13.46 13.465 13.46h90.234v.01h45.34c7.44 0 13.47 6.02 13.47 13.46 0 7.4-5.96 13.4-13.34 13.47h54.53c-7.37-.07-13.33-6.07-13.33-13.47 0-7.44 6.03-13.46 13.46-13.46h60.05v-.01h94.1c7.44 0 13.47-6.02 13.47-13.46 0-7.4-5.97-13.41-13.36-13.47h-164.32c-7.43 0-13.46-6.03-13.46-13.46 0-7.44 6.03-13.47 13.46-13.47h70.11Zm-60.16 80.8h152.05c7.39.06 13.35 6.06 13.35 13.46 0 7.44-6.02 13.47-13.46 13.47H1182.3c-7.44 0-13.47 6.03-13.47 13.46 0 7.44 6.03 13.47 13.47 13.47h172.91c7.35.11 13.27 6.09 13.27 13.46 0 7.44-6.03 13.47-13.47 13.47H781.444c-7.437 0-13.466-6.03-13.466-13.47 0-7.37 5.922-13.35 13.267-13.46h227.085c7.44 0 13.47-6.03 13.47-13.47 0-7.43-6.03-13.46-13.47-13.46H733.466c-7.437 0-13.466-6.03-13.466-13.47 0-7.43 6.029-13.46 13.466-13.46h383.714Zm89.27 107.72h-68.26c-7.44 0-13.47-6.03-13.47-13.46 0-7.4 5.97-13.41 13.35-13.47h-54.56c7.39.06 13.35 6.07 13.35 13.47 0 7.43-6.02 13.46-13.46 13.46h-87.426c-6.117 1.3-10.708 6.73-10.708 13.23 0 7.47 6.053 13.52 13.521 13.52h16.823v.18h77.07c7.44 0 13.47 6.03 13.47 13.47s-6.03 13.47-13.47 13.47h-95.304c-6.804.7-12.11 6.45-12.11 13.44 0 7.47 6.053 13.53 13.521 13.53h232.953c7.47 0 13.52-6.06 13.52-13.53 0-6.99-5.3-12.74-12.11-13.44h-88.77c-7.44 0-13.47-6.03-13.47-13.47s6.03-13.47 13.47-13.47h31.41v-.18h27.84c7.47 0 13.52-6.05 13.52-13.52 0-6.5-4.59-11.93-10.7-13.23Zm189.89-94.26c0-7.43-6.03-13.46-13.47-13.46h-40.39c-7.44 0-13.47 6.03-13.47 13.46 0 7.44 6.03 13.47 13.47 13.47h40.39c7.44 0 13.47-6.03 13.47-13.47Z" fill="#5959DE"/></g><g opacity=".77" fill-rule="evenodd" clip-rule="evenodd"><path d="M487.37 1415.93h-88.922c-8.078 0-14.627 6.55-14.627 14.62 0 8.08 6.549 14.63 14.627 14.63H457.518c8.078 0 14.627 6.55 14.627 14.63 0 8.02-6.464 14.54-14.47 14.62h-63.727c-8.079 0-14.627 6.55-14.627 14.63 0 8.08 6.548 14.63 14.626 14.63h63.571c8.078 0 14.627 6.55 14.627 14.63 0 8.06-6.529 14.6-14.59 14.62h-64.17c-8.078 0-14.626 6.55-14.626 14.63 0 8.08 6.548 14.63 14.626 14.63h154.707c8.078 0 14.626 6.54 14.626 14.62 0 8.08-6.548 14.63-14.626 14.63H400.137c-8.079 0-14.627 6.55-14.627 14.63 0 8.07 6.548 14.62 14.627 14.62h186.929c8.006.09 14.47 6.6 14.47 14.63 0 8.08-6.549 14.63-14.627 14.63H368.07c-8.078 0-14.626 6.55-14.626 14.62 0 8.08 6.548 14.63 14.626 14.63H526.151c8.078 0 14.627 6.55 14.627 14.63 0 8.04-6.488 14.56-14.514 14.62H388.322c-8.078 0-14.627 6.55-14.627 14.63 0 8.08 6.549 14.63 14.627 14.63h244.184c8.065.01 14.597 6.56 14.597 14.62 0 8.07-6.526 14.61-14.584 14.63H427.702c-8.078 0-14.627 6.55-14.627 14.63 0 8.08 6.548 14.62 14.627 14.62H598.722c8.078 0 14.627 6.55 14.627 14.63 0 8.08-6.549 14.63-14.627 14.63H419.263c-8.078 0-14.626 6.55-14.626 14.62 0 8.08 6.548 14.63 14.626 14.63h77.073c8.078 0 14.626 6.55 14.626 14.63 0 8.08-6.548 14.63-14.626 14.63H485.24c-.052-.01-.104-.01-.157-.01h-63.007c-8.079 0-14.627 6.55-14.627 14.63 0 8.08 6.548 14.63 14.627 14.63h68.072c8.078 0 14.627 6.55 14.627 14.62 0 8.08-6.549 14.63-14.627 14.63h-82.135c-8.078 0-14.627 6.55-14.627 14.63 0 8.08 6.549 14.63 14.627 14.63h46.691c8.079 0 14.627 6.55 14.627 14.62 0 8.08-6.548 14.63-14.627 14.63h-168.77c-8.078 0-14.627-6.55-14.627-14.63 0-8.07 6.549-14.62 14.627-14.62h64.135c8.078 0 14.626-6.55 14.626-14.63 0-8.08-6.548-14.63-14.626-14.63H235.305c-8.079 0-14.627-6.55-14.627-14.63 0-8.07 6.548-14.62 14.627-14.62h80.446c8.078 0 14.627-6.55 14.627-14.63 0-8.08-6.549-14.63-14.627-14.63h-44.6c-8.006-.08-14.47-6.6-14.47-14.62 0-8.08 6.549-14.63 14.627-14.63h25.878c8.078 0 14.627-6.55 14.627-14.63 0-8.07-6.549-14.62-14.627-14.62H76.096c-8.079 0-14.627-6.55-14.627-14.63 0-8.08 6.548-14.63 14.627-14.63h259.908c8.079 0 14.627-6.54 14.627-14.62 0-8.08-6.548-14.63-14.627-14.63H76.096c-8.079 0-14.627-6.55-14.627-14.63 0-8.07 6.548-14.62 14.627-14.62H265.12c8.078 0 14.626-6.55 14.626-14.63 0-8.08-6.548-14.63-14.626-14.63H149.68c-8.026-.06-14.514-6.58-14.514-14.62 0-8.08 6.549-14.63 14.627-14.63H260.058c8.078 0 14.626-6.55 14.626-14.63 0-8.07-6.548-14.62-14.626-14.62h-83.261c-8.078 0-14.627-6.55-14.627-14.63 0-8.03 6.464-14.54 14.47-14.63h82.292c8.079 0 14.627-6.55 14.627-14.62 0-8.08-6.548-14.63-14.627-14.63H67.658c-8.078 0-14.627-6.55-14.627-14.63 0-8.08 6.549-14.62 14.627-14.62h221.089c8.079 0 14.627-6.55 14.627-14.63 0-8.08-6.548-14.63-14.627-14.63H180.172c-8.078 0-14.627-6.55-14.627-14.62 0-8.08 6.549-14.63 14.627-14.63h132.203c8.079 0 14.627-6.55 14.627-14.63 0-8.08-6.548-14.63-14.627-14.63h-29.411c-8.006-.08-14.469-6.6-14.469-14.62 0-8.08 6.548-14.63 14.627-14.63H320.251c8.078 0 14.627-6.55 14.627-14.63 0-8.07-6.549-14.62-14.627-14.62h-68.107c-8.061-.02-14.59-6.56-14.59-14.63 0-8.08 6.548-14.63 14.626-14.63h235.154c8.078 0 14.627 6.55 14.627 14.63 0 8.07-6.529 14.61-14.591 14.63Zm154.671 277.91c0 8.04-6.488 14.56-14.514 14.62h-51.419c-8.027-.06-14.514-6.58-14.514-14.62 0-8.08 6.548-14.63 14.627-14.63h51.193c8.078 0 14.627 6.55 14.627 14.63Zm-560.882-58.51c0-8.08 6.549-14.63 14.627-14.63h15.752c8.078 0 14.627 6.55 14.627 14.63 0 8.08-6.549 14.63-14.627 14.63H95.786c-8.078 0-14.627-6.55-14.627-14.63Zm128.829 219.4c-8.078 0-14.627 6.55-14.627 14.63 0 8.08 6.549 14.63 14.627 14.63h6.188c8.078 0 14.627-6.55 14.627-14.63 0-8.08-6.549-14.63-14.627-14.63h-6.188Z" fill="#6901F2"/><path d="M483.339 1406.25h-88.922c-8.079 0-14.627 6.55-14.627 14.63 0 8.08 6.548 14.63 14.627 14.63H453.487c8.078 0 14.626 6.55 14.626 14.62 0 8.03-6.463 14.55-14.469 14.63h-63.728c-8.078 0-14.627 6.55-14.627 14.63 0 8.08 6.549 14.62 14.627 14.62h63.571c8.078 0 14.627 6.55 14.627 14.63 0 8.07-6.529 14.61-14.59 14.63h-64.17c-8.078 0-14.627 6.55-14.627 14.62 0 8.08 6.549 14.63 14.627 14.63H544.06c8.079 0 14.627 6.55 14.627 14.63 0 8.08-6.548 14.62-14.627 14.62h-41.066v.01H396.105c-8.078 0-14.627 6.54-14.627 14.62 0 8.08 6.549 14.63 14.627 14.63h186.931c8.006.08 14.469 6.6 14.469 14.63 0 8.07-6.549 14.62-14.627 14.62H364.039c-8.078 0-14.627 6.55-14.627 14.63 0 8.08 6.549 14.63 14.627 14.63H522.12c8.078 0 14.627 6.54 14.627 14.62 0 8.04-6.488 14.57-14.514 14.63H384.291c-8.078 0-14.627 6.55-14.627 14.63 0 8.07 6.549 14.62 14.627 14.62h244.184c8.064.02 14.597 6.56 14.597 14.63 0 8.06-6.526 14.6-14.584 14.63H423.67c-8.078 0-14.626 6.54-14.626 14.62 0 8.08 6.548 14.63 14.626 14.63H594.691c8.078 0 14.626 6.55 14.626 14.63 0 8.08-6.548 14.62-14.626 14.62H415.232c-8.078 0-14.627 6.55-14.627 14.63 0 8.08 6.549 14.63 14.627 14.63H492.304c8.078 0 14.627 6.55 14.627 14.62 0 8.08-6.549 14.63-14.627 14.63h-74.26c-8.078 0-14.626 6.55-14.626 14.63 0 8.07 6.548 14.62 14.626 14.62H486.117c8.078 0 14.627 6.55 14.627 14.63 0 8.08-6.549 14.63-14.627 14.63h-82.136c-8.078 0-14.626 6.55-14.626 14.63 0 8.07 6.548 14.62 14.626 14.62h46.692c8.078 0 14.627 6.55 14.627 14.63 0 8.08-6.549 14.63-14.627 14.63h-168.77c-8.079 0-14.627-6.55-14.627-14.63 0-8.08 6.548-14.63 14.627-14.63h64.134c8.079 0 14.627-6.55 14.627-14.62 0-8.08-6.548-14.63-14.627-14.63H231.273c-8.078 0-14.626-6.55-14.626-14.63 0-8.08 6.548-14.63 14.626-14.63h80.447c8.078 0 14.627-6.55 14.627-14.62 0-8.08-6.549-14.63-14.627-14.63h-44.6c-8.006-.08-14.47-6.6-14.47-14.63 0-8.07 6.549-14.62 14.627-14.62h25.878c8.078 0 14.627-6.55 14.627-14.63 0-8.08-6.549-14.63-14.627-14.63H72.064c-8.078 0-14.626-6.54-14.626-14.62 0-8.08 6.548-14.63 14.626-14.63h259.909c8.078 0 14.627-6.55 14.627-14.63 0-8.08-6.549-14.62-14.627-14.62H72.065c-8.079 0-14.627-6.55-14.627-14.63 0-8.08 6.548-14.63 14.626-14.63H261.09c8.079 0 14.627-6.55 14.627-14.62 0-8.08-6.548-14.63-14.627-14.63h-115.44c-8.026-.06-14.514-6.59-14.514-14.63 0-8.08 6.549-14.62 14.627-14.62H256.026c8.078 0 14.627-6.55 14.627-14.63 0-8.08-6.549-14.63-14.627-14.63h-83.261c-8.078 0-14.626-6.55-14.626-14.62 0-8.03 6.463-14.55 14.468-14.63h82.294c8.078 0 14.627-6.55 14.627-14.63 0-8.08-6.549-14.62-14.627-14.62h-38.254v-.01H63.627c-8.078 0-14.627-6.54-14.627-14.62 0-8.08 6.549-14.63 14.627-14.63h221.089c8.078 0 14.627-6.55 14.627-14.63 0-8.07-6.549-14.62-14.627-14.62H176.141c-8.078 0-14.627-6.55-14.627-14.63 0-8.08 6.549-14.63 14.627-14.63h132.203c8.078 0 14.627-6.54 14.627-14.62 0-8.08-6.549-14.63-14.627-14.63h-29.411c-8.006-.08-14.469-6.6-14.469-14.63 0-8.07 6.548-14.62 14.626-14.62h37.13c8.078 0 14.626-6.55 14.626-14.63 0-8.08-6.548-14.63-14.626-14.63h-68.107c-8.061-.02-14.591-6.56-14.591-14.62 0-8.08 6.549-14.63 14.627-14.63h235.154c8.078 0 14.627 6.55 14.627 14.63 0 8.06-6.529 14.6-14.591 14.62Zm154.671 277.91c0 8.04-6.488 14.57-14.514 14.63h-51.42c-8.026-.06-14.513-6.59-14.513-14.63 0-8.08 6.548-14.62 14.626-14.62h51.194c8.078 0 14.627 6.54 14.627 14.62Zm-560.882-58.5c0-8.08 6.549-14.63 14.627-14.63h15.752c8.078 0 14.627 6.55 14.627 14.63 0 8.07-6.549 14.62-14.627 14.62H91.755c-8.078 0-14.627-6.55-14.627-14.62Zm128.829 219.4c-8.078 0-14.627 6.55-14.627 14.62 0 8.08 6.549 14.63 14.627 14.63h6.188c8.078 0 14.627-6.55 14.627-14.63 0-8.07-6.549-14.62-14.627-14.62h-6.188Z" fill="#5959DE"/></g><g opacity=".77" fill-rule="evenodd" clip-rule="evenodd"><path d="M188.431 3841.63h163.466c7.267 0 13.158-5.89 13.158-13.16 0-7.26-5.891-13.15-13.158-13.15h-54.152c-7.267 0-13.158-5.89-13.158-13.16 0-7.27 5.891-13.16 13.158-13.16h151.32c7.267 0 13.158 5.89 13.158 13.16 0 7.27-5.891 13.16-13.158 13.16h-46.56c-7.267 0-13.158 5.89-13.158 13.15 0 7.27 5.891 13.16 13.158 13.16h194.337c7.267 0 13.158 5.89 13.158 13.16 0 7.27-5.891 13.16-13.158 13.16H443.498c-7.267 0-13.158 5.89-13.158 13.16 0 7.26 5.891 13.16 13.158 13.16h118.424c7.267 0 13.158 5.89 13.158 13.15 0 7.27-5.891 13.16-13.158 13.16H371.634c-7.267 0-13.158 5.89-13.158 13.16 0 7.27 5.891 13.16 13.158 13.16H421.25c7.258.01 13.138 5.9 13.138 13.16s-5.891 13.15-13.158 13.15l-3.542.01-109.821-.01-2.53.01v-.25c-6.057-1.18-10.628-6.51-10.628-12.91s4.571-11.74 10.628-12.92v-.24h22.267c7.268 0 13.159-5.89 13.159-13.16 0-7.27-5.891-13.16-13.159-13.16H124.158c-7.267 0-13.158-5.89-13.158-13.16 0-7.26 5.891-13.15 13.158-13.15H377.007c7.267 0 13.158-5.9 13.158-13.16 0-7.27-5.891-13.16-13.158-13.16H188.431c-7.267 0-13.158-5.89-13.158-13.16 0-7.27 5.891-13.16 13.158-13.16Zm-64.273 0c-7.267 0-13.158 5.89-13.158 13.16 0 7.27 5.891 13.16 13.158 13.16h8.043c7.267 0 13.158-5.89 13.158-13.16 0-7.27-5.891-13.16-13.158-13.16h-8.043Z" fill="#6901F2"/><path d="M183.431 3829.63h163.466c7.267 0 13.158-5.89 13.158-13.16 0-7.26-5.891-13.15-13.158-13.15h-54.152c-7.267 0-13.158-5.89-13.158-13.16 0-7.27 5.891-13.16 13.158-13.16h151.32c7.267 0 13.158 5.89 13.158 13.16 0 7.27-5.891 13.16-13.158 13.16h-46.56c-7.267 0-13.158 5.89-13.158 13.15 0 7.27 5.891 13.16 13.158 13.16h194.337c7.267 0 13.158 5.89 13.158 13.16 0 7.27-5.891 13.16-13.158 13.16H438.498c-7.267 0-13.158 5.89-13.158 13.16 0 7.26 5.891 13.16 13.158 13.16h118.424c7.267 0 13.158 5.89 13.158 13.15 0 7.27-5.891 13.16-13.158 13.16H366.634c-7.267 0-13.158 5.89-13.158 13.16 0 7.27 5.891 13.16 13.158 13.16H416.25c7.258.01 13.138 5.9 13.138 13.16s-5.891 13.15-13.158 13.15l-3.542.01-109.821-.01-2.53.01v-.25c-6.057-1.18-10.628-6.51-10.628-12.91s4.571-11.74 10.628-12.92v-.24h22.267c7.268 0 13.159-5.89 13.159-13.16 0-7.27-5.891-13.16-13.159-13.16H119.158c-7.267 0-13.158-5.89-13.158-13.16 0-7.26 5.891-13.15 13.158-13.15H372.007c7.267 0 13.158-5.9 13.158-13.16 0-7.27-5.891-13.16-13.158-13.16H183.431c-7.267 0-13.158-5.89-13.158-13.16 0-7.27 5.891-13.16 13.158-13.16Zm-64.273 0c-7.267 0-13.158 5.89-13.158 13.16 0 7.27 5.891 13.16 13.158 13.16h8.043c7.267 0 13.158-5.89 13.158-13.16 0-7.27-5.891-13.16-13.158-13.16h-8.043Z" fill="#5959DE"/></g></svg>