<svg width="1440" height="4224" viewBox="0 0 1440 4224" fill="none" xmlns="http://www.w3.org/2000/svg">
    <g opacity="0.77">
    <path fill-rule="evenodd" clip-rule="evenodd" d="M848.322 544.431V544.432H735.852C728.379 544.432 722.32 550.49 722.32 557.963C722.32 565.411 728.337 571.453 735.775 571.495H920.905C928.378 571.495 934.437 577.553 934.437 585.026C934.437 592.5 928.378 598.558 920.905 598.558L848.322 598.558L738.551 598.558C731.087 598.569 725.04 604.623 725.04 612.089C725.04 619.563 731.098 625.621 738.572 625.621H751.327V625.621H844.759C852.232 625.621 858.29 631.679 858.29 639.153C858.29 646.626 852.232 652.684 844.759 652.684L751.327 652.684H637.952L637.932 652.684C630.468 652.695 624.421 658.749 624.421 666.216C624.421 673.689 630.479 679.747 637.952 679.747H663.254C663.28 679.747 663.307 679.747 663.333 679.747H896.43C903.903 679.747 909.961 685.805 909.961 693.279C909.961 700.752 903.903 706.81 896.43 706.81H850.134V706.811H753.076C745.603 706.811 739.545 712.869 739.545 720.342C739.545 727.78 745.546 733.816 752.97 733.873H889.178C896.651 733.873 902.709 739.932 902.709 747.405C902.709 754.878 896.651 760.937 889.178 760.937L850.134 760.937H739.477C732.004 760.937 725.945 766.995 725.945 774.468C725.945 781.942 732.004 788 739.477 788H1147.52C1155 788 1161.06 781.942 1161.06 774.468C1161.06 766.995 1155 760.937 1147.52 760.937H1037.77L945.248 760.937C937.775 760.937 931.717 754.878 931.717 747.405C931.717 739.932 937.775 733.873 945.248 733.873H1161.23C1168.65 733.816 1174.65 727.78 1174.65 720.342C1174.65 712.869 1168.6 706.811 1161.12 706.811H1037.77V706.81H956.125C948.652 706.81 942.594 700.752 942.594 693.279C942.594 685.805 948.652 679.747 956.125 679.747H1189.22L1189.3 679.747H1314.32C1321.79 679.747 1327.85 673.689 1327.85 666.216C1327.85 658.749 1321.8 652.695 1314.34 652.684L1314.32 652.684H1234.48L1044.05 652.684C1036.58 652.684 1030.52 646.626 1030.52 639.153C1030.52 631.679 1036.58 625.621 1044.05 625.621L1234.48 625.621H1370.52C1377.99 625.621 1384.05 619.563 1384.05 612.089C1384.05 604.616 1377.99 598.558 1370.52 598.558H1234.48L1213.71 598.558L1213.7 598.558L1035.96 598.558L980.602 598.558C973.129 598.558 967.07 592.5 967.07 585.026C967.07 577.553 973.129 571.495 980.602 571.495H1143.98C1151.41 571.453 1157.43 565.411 1157.43 557.963C1157.43 550.49 1151.37 544.432 1143.9 544.432H1035.96V544.431H1001.45C993.977 544.431 987.919 538.373 987.919 530.9C987.919 523.427 993.977 517.368 1001.45 517.368H1078.72C1086.15 517.324 1092.16 511.283 1092.16 503.837C1092.16 496.364 1086.11 490.305 1078.63 490.305H1035.96H848.322H825.594C818.121 490.305 812.063 496.364 812.063 503.837C812.063 511.283 818.076 517.324 825.512 517.368H932.689C940.163 517.368 946.221 523.427 946.221 530.9C946.221 538.373 940.163 544.431 932.689 544.431H848.322ZM591.787 612.089C591.787 604.616 597.845 598.558 605.319 598.558H657.119C664.592 598.558 670.651 604.616 670.651 612.089C670.651 619.563 664.592 625.621 657.119 625.621H605.319C597.845 625.621 591.787 619.563 591.787 612.089Z" fill="#6901F2"/>
    <path fill-rule="evenodd" clip-rule="evenodd" d="M844.535 537.126V537.126H732.065C724.591 537.126 718.533 543.185 718.533 550.658C718.533 558.109 724.555 564.153 731.997 564.189H917.118C924.591 564.189 930.65 570.248 930.65 577.721C930.65 585.194 924.591 591.252 917.118 591.252L844.535 591.253L734.743 591.252C727.289 591.275 721.253 597.324 721.253 604.784C721.253 612.257 727.311 618.316 734.784 618.316H747.54V618.316H840.972C848.445 618.316 854.503 624.374 854.503 631.848C854.503 639.321 848.445 645.379 840.972 645.379H634.081C626.646 645.425 620.634 651.465 620.634 658.91C620.634 666.384 626.692 672.442 634.165 672.442H659.475C659.499 672.442 659.522 672.442 659.546 672.442H892.642C900.116 672.442 906.174 678.5 906.174 685.973C906.174 693.447 900.116 699.505 892.642 699.505H846.347V699.505H749.289C741.816 699.505 735.758 705.564 735.758 713.037C735.758 720.476 741.761 726.513 749.187 726.568H885.391C892.864 726.568 898.922 732.626 898.922 740.1C898.922 747.573 892.864 753.631 885.391 753.631L846.347 753.631H735.69C728.216 753.631 722.158 759.69 722.158 767.163C722.158 774.636 728.216 780.694 735.69 780.694H1143.74C1151.21 780.694 1157.27 774.636 1157.27 767.163C1157.27 759.69 1151.21 753.631 1143.74 753.631H1033.99L941.461 753.631C933.988 753.631 927.93 747.573 927.93 740.1C927.93 732.626 933.988 726.568 941.461 726.568H1157.44C1164.86 726.513 1170.87 720.476 1170.87 713.037C1170.87 705.564 1164.81 699.505 1157.34 699.505H1033.99V699.505H952.338C944.865 699.505 938.807 693.447 938.807 685.973C938.807 678.5 944.865 672.442 952.338 672.442H1185.43L1185.51 672.442H1310.53C1318 672.442 1324.06 666.384 1324.06 658.91C1324.06 651.465 1318.05 645.425 1310.61 645.379H1040.27C1032.79 645.379 1026.74 639.321 1026.74 631.848C1026.74 624.374 1032.79 618.316 1040.27 618.316L1230.69 618.316H1366.73C1374.2 618.316 1380.26 612.257 1380.26 604.784C1380.26 597.311 1374.2 591.252 1366.73 591.252H1230.69L1209.95 591.252L1209.91 591.252L1032.18 591.253L976.815 591.252C969.341 591.252 963.283 585.194 963.283 577.721C963.283 570.248 969.341 564.189 976.815 564.189H1140.18C1147.62 564.153 1153.64 558.109 1153.64 550.658C1153.64 543.185 1147.58 537.126 1140.11 537.126H1032.18V537.126H997.663C990.19 537.126 984.132 531.068 984.132 523.594C984.132 516.121 990.19 510.063 997.663 510.063H1074.92C1082.36 510.022 1088.38 503.979 1088.38 496.532C1088.38 489.058 1082.32 483 1074.85 483H1032.18H844.535H821.807C814.334 483 808.276 489.058 808.276 496.532C808.276 503.979 814.292 510.022 821.73 510.063H928.902C936.376 510.063 942.434 516.121 942.434 523.594C942.434 531.068 936.376 537.126 928.902 537.126H844.535ZM588 604.784C588 597.311 594.058 591.252 601.532 591.252H653.332C660.805 591.252 666.864 597.311 666.864 604.784C666.864 612.257 660.805 618.316 653.332 618.316H601.532C594.058 618.316 588 612.257 588 604.784Z" fill="#5959DE"/>
    </g>
    <g opacity="0.77">
    <path fill-rule="evenodd" clip-rule="evenodd" d="M1182 3057.65V3057.65H1199.49C1206.93 3057.65 1212.96 3051.62 1212.96 3044.18C1212.96 3036.74 1206.93 3030.71 1199.49 3030.71H1182H1021.82H987.304C979.867 3030.71 973.838 3036.74 973.838 3044.18C973.838 3051.62 979.867 3057.65 987.304 3057.65H1021.82V3057.65H1049.37C1056.8 3057.65 1062.83 3063.68 1062.83 3071.11C1062.83 3078.55 1056.8 3084.58 1049.37 3084.58H931.476C924.09 3084.64 918.122 3090.64 918.122 3098.04C918.122 3105.48 924.15 3111.51 931.587 3111.51H1021.82V3111.51H1067.16C1074.6 3111.51 1080.63 3117.54 1080.63 3124.98C1080.63 3132.37 1074.67 3138.37 1067.29 3138.44H1121.82C1114.45 3138.37 1108.49 3132.37 1108.49 3124.98C1108.49 3117.54 1114.52 3111.51 1121.95 3111.51H1182V3111.51H1276.1C1283.54 3111.51 1289.57 3105.48 1289.57 3098.04C1289.57 3090.64 1283.6 3084.64 1276.21 3084.58H1111.89C1104.46 3084.58 1098.43 3078.55 1098.43 3071.11C1098.43 3063.68 1104.46 3057.65 1111.89 3057.65H1182ZM1121.84 3138.44C1121.88 3138.44 1121.92 3138.44 1121.95 3138.44H1273.89C1281.28 3138.5 1287.25 3144.51 1287.25 3151.91C1287.25 3159.34 1281.22 3165.37 1273.78 3165.37H1264.81V3165.37H1186.96C1179.52 3165.37 1173.49 3171.4 1173.49 3178.84C1173.49 3186.28 1179.52 3192.3 1186.96 3192.3H1359.87C1367.22 3192.41 1373.14 3198.4 1373.14 3205.77C1373.14 3213.21 1367.11 3219.23 1359.68 3219.23H1264.81V3219.24H1142.85C1142.81 3219.24 1142.78 3219.24 1142.75 3219.24H1088.16C1088.13 3219.24 1088.09 3219.24 1088.06 3219.24H892.898L892.845 3219.24L892.797 3219.24H852.346V3219.23H786.105C778.668 3219.23 772.639 3213.21 772.639 3205.77C772.639 3198.4 778.561 3192.41 785.906 3192.3H1012.99C1020.43 3192.3 1026.46 3186.28 1026.46 3178.84C1026.46 3171.4 1020.43 3165.37 1012.99 3165.37H852.346V3165.37H738.127C730.69 3165.37 724.661 3159.34 724.661 3151.91C724.661 3144.47 730.69 3138.44 738.127 3138.44H852.346H871.891L871.959 3138.44L872.002 3138.44H1067.16L1067.23 3138.44L1067.27 3138.44H1121.84ZM1211.11 3246.17H1142.85C1135.41 3246.17 1129.38 3240.14 1129.38 3232.7C1129.38 3225.3 1135.35 3219.3 1142.73 3219.24H1088.18C1095.56 3219.3 1101.53 3225.3 1101.53 3232.7C1101.53 3240.14 1095.5 3246.17 1088.06 3246.17H1000.64C994.518 3247.46 989.927 3252.89 989.927 3259.39C989.927 3266.86 995.98 3272.92 1003.45 3272.92H1020.27V3273.1H1097.34C1104.78 3273.1 1110.81 3279.13 1110.81 3286.56C1110.81 3294 1104.78 3300.03 1097.34 3300.03H1002.04C995.233 3300.74 989.927 3306.49 989.927 3313.48C989.927 3320.95 995.98 3327 1003.45 3327H1236.4C1243.87 3327 1249.92 3320.95 1249.92 3313.48C1249.92 3306.49 1244.62 3300.74 1237.81 3300.03H1149.04C1141.6 3300.03 1135.57 3294 1135.57 3286.56C1135.57 3279.13 1141.6 3273.1 1149.04 3273.1H1180.45V3272.92H1208.29C1215.76 3272.92 1221.81 3266.86 1221.81 3259.39C1221.81 3252.89 1217.22 3247.46 1211.11 3246.17ZM1401 3151.91C1401 3144.47 1394.97 3138.44 1387.53 3138.44H1347.14C1339.7 3138.44 1333.68 3144.47 1333.68 3151.91C1333.68 3159.34 1339.7 3165.37 1347.14 3165.37H1387.53C1394.97 3165.37 1401 3159.34 1401 3151.91Z" fill="#6901F2"/>
    <path fill-rule="evenodd" clip-rule="evenodd" d="M1177.34 3048.93V3048.93H1194.83C1202.27 3048.93 1208.29 3042.9 1208.29 3035.47C1208.29 3028.03 1202.27 3022 1194.83 3022H1177.34H1017.16H982.643C975.206 3022 969.177 3028.03 969.177 3035.47C969.177 3042.9 975.206 3048.93 982.643 3048.93H1017.16V3048.93H1044.71C1052.14 3048.93 1058.17 3054.96 1058.17 3062.4C1058.17 3069.83 1052.14 3075.86 1044.71 3075.86H926.815C919.429 3075.92 913.461 3081.93 913.461 3089.33C913.461 3096.77 919.489 3102.79 926.926 3102.79H1017.16V3102.8H1062.5C1069.94 3102.8 1075.97 3108.82 1075.97 3116.26C1075.97 3123.66 1070.01 3129.66 1062.63 3129.73H1117.16C1109.79 3129.66 1103.83 3123.66 1103.83 3116.26C1103.83 3108.82 1109.86 3102.8 1117.29 3102.8H1177.34V3102.79H1271.44C1278.88 3102.79 1284.91 3096.77 1284.91 3089.33C1284.91 3081.93 1278.94 3075.92 1271.55 3075.86H1107.23C1099.8 3075.86 1093.77 3069.83 1093.77 3062.4C1093.77 3054.96 1099.8 3048.93 1107.23 3048.93H1177.34ZM1117.18 3129.73C1117.22 3129.73 1117.26 3129.73 1117.29 3129.73H1269.23C1276.62 3129.79 1282.58 3135.79 1282.58 3143.19C1282.58 3150.63 1276.56 3156.66 1269.12 3156.66H1260.14V3156.66H1182.3C1174.86 3156.66 1168.83 3162.69 1168.83 3170.12C1168.83 3177.56 1174.86 3183.59 1182.3 3183.59H1355.21C1362.56 3183.7 1368.48 3189.68 1368.48 3197.05C1368.48 3204.49 1362.45 3210.52 1355.01 3210.52H1260.14V3210.52H1138.19C1138.15 3210.52 1138.12 3210.52 1138.09 3210.52H1083.5C1083.47 3210.52 1083.43 3210.52 1083.4 3210.52H888.237C888.203 3210.52 888.17 3210.52 888.137 3210.52H847.685V3210.52H781.444C774.007 3210.52 767.978 3204.49 767.978 3197.05C767.978 3189.68 773.9 3183.7 781.245 3183.59H1008.33C1015.77 3183.59 1021.8 3177.56 1021.8 3170.12C1021.8 3162.69 1015.77 3156.66 1008.33 3156.66H847.685V3156.66H733.466C726.029 3156.66 720 3150.63 720 3143.19C720 3135.76 726.029 3129.73 733.466 3129.73H847.685H867.23C867.267 3129.73 867.304 3129.73 867.341 3129.73H1062.5L1062.57 3129.73L1062.61 3129.73H1117.18ZM1206.45 3237.45H1138.19C1130.75 3237.45 1124.72 3231.42 1124.72 3223.99C1124.72 3216.59 1130.69 3210.58 1138.07 3210.52H1083.51C1090.9 3210.58 1096.86 3216.59 1096.86 3223.99C1096.86 3231.42 1090.84 3237.45 1083.4 3237.45H995.974C989.857 3238.75 985.266 3244.18 985.266 3250.68C985.266 3258.15 991.319 3264.2 998.787 3264.2H1015.61V3264.38H1092.68C1100.12 3264.38 1106.15 3270.41 1106.15 3277.85C1106.15 3285.29 1100.12 3291.32 1092.68 3291.32H997.376C990.572 3292.02 985.266 3297.77 985.266 3304.76C985.266 3312.23 991.319 3318.29 998.787 3318.29H1231.74C1239.21 3318.29 1245.26 3312.23 1245.26 3304.76C1245.26 3297.77 1239.96 3292.02 1233.15 3291.32H1144.38C1136.94 3291.32 1130.91 3285.29 1130.91 3277.85C1130.91 3270.41 1136.94 3264.38 1144.38 3264.38H1175.79V3264.2H1203.63C1211.1 3264.2 1217.15 3258.15 1217.15 3250.68C1217.15 3244.18 1212.56 3238.75 1206.45 3237.45ZM1396.34 3143.19C1396.34 3135.76 1390.31 3129.73 1382.87 3129.73H1342.48C1335.04 3129.73 1329.01 3135.76 1329.01 3143.19C1329.01 3150.63 1335.04 3156.66 1342.48 3156.66H1382.87C1390.31 3156.66 1396.34 3150.63 1396.34 3143.19Z" fill="#5959DE"/>
    </g>
    <g opacity="0.77">
    <path fill-rule="evenodd" clip-rule="evenodd" d="M487.37 1415.93H398.448C390.37 1415.93 383.821 1422.48 383.821 1430.55C383.821 1438.63 390.37 1445.18 398.448 1445.18H423.202V1445.18H457.518C465.596 1445.18 472.145 1451.73 472.145 1459.81C472.145 1467.83 465.681 1474.35 457.675 1474.43H393.948C385.869 1474.43 379.321 1480.98 379.321 1489.06C379.321 1497.14 385.869 1503.69 393.947 1503.69H423.202V1503.69H457.518C465.596 1503.69 472.145 1510.24 472.145 1518.32C472.145 1526.38 465.616 1532.92 457.555 1532.94H393.385C385.307 1532.94 378.759 1539.49 378.759 1547.57C378.759 1555.65 385.307 1562.2 393.385 1562.2H492.96L492.993 1562.2L493.075 1562.2H507.025H548.092C556.17 1562.2 562.718 1568.74 562.718 1576.82C562.718 1584.9 556.17 1591.45 548.092 1591.45H507.025V1591.45H400.137C392.058 1591.45 385.51 1598 385.51 1606.08C385.51 1614.15 392.058 1620.7 400.137 1620.7H587.066C595.072 1620.79 601.536 1627.3 601.536 1635.33C601.536 1643.41 594.987 1649.96 586.909 1649.96H507.025V1649.96H368.07C359.992 1649.96 353.444 1656.51 353.444 1664.58C353.444 1672.66 359.992 1679.21 368.07 1679.21H507.025V1679.21H526.151C534.229 1679.21 540.778 1685.76 540.778 1693.84C540.778 1701.88 534.29 1708.4 526.264 1708.46H388.322C380.244 1708.46 373.695 1715.01 373.695 1723.09C373.695 1731.17 380.244 1737.72 388.322 1737.72L507.025 1737.72H632.476L632.506 1737.72C640.571 1737.73 647.103 1744.28 647.103 1752.34C647.103 1760.41 640.577 1766.95 632.519 1766.97H427.702C419.624 1766.97 413.075 1773.52 413.075 1781.6C413.075 1789.68 419.623 1796.22 427.702 1796.22H507.025V1796.22H598.722C606.8 1796.22 613.349 1802.77 613.349 1810.85C613.349 1818.93 606.8 1825.48 598.722 1825.48H477.883C477.846 1825.48 477.808 1825.48 477.77 1825.48H419.263C411.185 1825.48 404.637 1832.03 404.637 1840.1C404.637 1848.18 411.185 1854.73 419.263 1854.73H430.515V1854.73H496.336C504.414 1854.73 510.962 1861.28 510.962 1869.36C510.962 1877.44 504.414 1883.99 496.336 1883.99H485.24C485.188 1883.98 485.136 1883.98 485.083 1883.98H422.076C413.997 1883.98 407.449 1890.53 407.449 1898.61C407.449 1906.69 413.997 1913.24 422.076 1913.24L430.515 1913.24H490.148C498.226 1913.24 504.775 1919.79 504.775 1927.86C504.775 1935.94 498.226 1942.49 490.148 1942.49H430.515V1942.49H408.013C399.935 1942.49 393.386 1949.04 393.386 1957.12C393.386 1965.2 399.935 1971.75 408.013 1971.75L430.515 1971.75H454.704C462.783 1971.75 469.331 1978.3 469.331 1986.37C469.331 1994.45 462.783 2001 454.704 2001H285.934C277.856 2001 271.307 1994.45 271.307 1986.37C271.307 1978.3 277.856 1971.75 285.934 1971.75H293.811L350.069 1971.75C358.147 1971.75 364.695 1965.2 364.695 1957.12C364.695 1949.04 358.147 1942.49 350.069 1942.49H293.811V1942.49H235.305C227.226 1942.49 220.678 1935.94 220.678 1927.86C220.678 1919.79 227.226 1913.24 235.305 1913.24H293.811L315.751 1913.24C323.829 1913.24 330.378 1906.69 330.378 1898.61C330.378 1890.53 323.829 1883.98 315.751 1883.98H271.151C263.145 1883.9 256.681 1877.38 256.681 1869.36C256.681 1861.28 263.23 1854.73 271.308 1854.73H293.811V1854.73H297.186C305.264 1854.73 311.813 1848.18 311.813 1840.1C311.813 1832.03 305.264 1825.48 297.186 1825.48H252.18C252.143 1825.48 252.105 1825.48 252.068 1825.48H76.0956C68.0174 1825.48 61.4688 1818.93 61.4688 1810.85C61.4688 1802.77 68.0174 1796.22 76.0956 1796.22H220.678V1796.22H336.004C344.083 1796.22 350.631 1789.68 350.631 1781.6C350.631 1773.52 344.083 1766.97 336.004 1766.97H126.729L126.686 1766.97H76.0955C68.0174 1766.97 61.4688 1760.42 61.4688 1752.34C61.4688 1744.27 68.0174 1737.72 76.0956 1737.72H126.699L126.729 1737.72L220.678 1737.72L265.121 1737.72C273.199 1737.72 279.747 1731.17 279.747 1723.09C279.747 1715.01 273.199 1708.46 265.121 1708.46H149.68C141.654 1708.4 135.166 1701.88 135.166 1693.84C135.166 1685.76 141.715 1679.21 149.793 1679.21H220.678V1679.21H260.058C268.136 1679.21 274.684 1672.66 274.684 1664.58C274.684 1656.51 268.136 1649.96 260.058 1649.96H220.678V1649.96H176.797C168.719 1649.96 162.17 1643.41 162.17 1635.33C162.17 1627.3 168.634 1620.79 176.64 1620.7H258.932C267.011 1620.7 273.559 1614.15 273.559 1606.08C273.559 1598 267.011 1591.45 258.932 1591.45H220.678V1591.45H67.6581C59.5799 1591.45 53.0312 1584.9 53.0312 1576.82C53.0312 1568.74 59.5799 1562.2 67.658 1562.2H194.684C194.722 1562.2 194.76 1562.2 194.798 1562.2H288.747C296.826 1562.2 303.374 1555.65 303.374 1547.57C303.374 1539.49 296.826 1532.94 288.747 1532.94H194.798L194.761 1532.94H180.172C172.094 1532.94 165.545 1526.39 165.545 1518.32C165.545 1510.24 172.094 1503.69 180.172 1503.69H288.185V1503.69H312.375C320.454 1503.69 327.002 1497.14 327.002 1489.06C327.002 1480.98 320.454 1474.43 312.375 1474.43H282.964C274.958 1474.35 268.495 1467.83 268.495 1459.81C268.495 1451.73 275.043 1445.18 283.122 1445.18H288.185V1445.18H320.251C328.329 1445.18 334.878 1438.63 334.878 1430.55C334.878 1422.48 328.329 1415.93 320.251 1415.93H252.144C244.083 1415.91 237.554 1409.37 237.554 1401.3C237.554 1393.22 244.102 1386.67 252.18 1386.67H288.185H423.202H487.334C495.412 1386.67 501.961 1393.22 501.961 1401.3C501.961 1409.37 495.432 1415.91 487.37 1415.93ZM642.041 1693.84C642.041 1701.88 635.553 1708.4 627.527 1708.46H576.108C568.081 1708.4 561.594 1701.88 561.594 1693.84C561.594 1685.76 568.142 1679.21 576.221 1679.21H627.414C635.492 1679.21 642.041 1685.76 642.041 1693.84ZM81.1593 1635.33C81.1593 1627.25 87.708 1620.7 95.7861 1620.7H111.538C119.616 1620.7 126.165 1627.25 126.165 1635.33C126.165 1643.41 119.616 1649.96 111.538 1649.96H95.7861C87.708 1649.96 81.1593 1643.41 81.1593 1635.33ZM209.988 1854.73C201.91 1854.73 195.361 1861.28 195.361 1869.36C195.361 1877.44 201.91 1883.99 209.988 1883.99H216.176C224.254 1883.99 230.803 1877.44 230.803 1869.36C230.803 1861.28 224.254 1854.73 216.176 1854.73H209.988Z" fill="#6901F2"/>
    <path fill-rule="evenodd" clip-rule="evenodd" d="M483.339 1406.25H394.417C386.338 1406.25 379.79 1412.8 379.79 1420.88C379.79 1428.96 386.338 1435.51 394.417 1435.51H419.171V1435.51H453.487C461.565 1435.51 468.113 1442.06 468.113 1450.13C468.113 1458.16 461.65 1464.68 453.644 1464.76H389.916C381.838 1464.76 375.289 1471.31 375.289 1479.39C375.289 1487.47 381.838 1494.01 389.916 1494.01H419.171V1494.01H453.487C461.565 1494.01 468.114 1500.56 468.114 1508.64C468.114 1516.71 461.585 1523.25 453.524 1523.27H389.354C381.276 1523.27 374.727 1529.82 374.727 1537.89C374.727 1545.97 381.276 1552.52 389.354 1552.52H488.929L488.986 1552.52L489.042 1552.52H502.994H544.06C552.139 1552.52 558.687 1559.07 558.687 1567.15C558.687 1575.23 552.139 1581.77 544.06 1581.77H502.994V1581.78H396.105C388.027 1581.78 381.478 1588.32 381.478 1596.4C381.478 1604.48 388.027 1611.03 396.105 1611.03H583.036C591.042 1611.11 597.505 1617.63 597.505 1625.66C597.505 1633.73 590.956 1640.28 582.878 1640.28H502.994V1640.28H364.039C355.961 1640.28 349.412 1646.83 349.412 1654.91C349.412 1662.99 355.961 1669.54 364.039 1669.54H502.994V1669.54H522.12C530.198 1669.54 536.747 1676.08 536.747 1684.16C536.747 1692.2 530.259 1698.73 522.233 1698.79H384.291C376.213 1698.79 369.664 1705.34 369.664 1713.42C369.664 1721.49 376.213 1728.04 384.291 1728.04L502.994 1728.04H628.445L628.475 1728.04C636.539 1728.06 643.072 1734.6 643.072 1742.67C643.072 1750.73 636.546 1757.27 628.488 1757.3H423.67C415.592 1757.3 409.044 1763.84 409.044 1771.92C409.044 1780 415.592 1786.55 423.67 1786.55H502.994V1786.55H594.691C602.769 1786.55 609.317 1793.1 609.317 1801.18C609.317 1809.26 602.769 1815.8 594.691 1815.8H473.856C473.817 1815.8 473.778 1815.8 473.739 1815.8H415.232C407.154 1815.8 400.605 1822.35 400.605 1830.43C400.605 1838.51 407.154 1845.06 415.232 1845.06H426.484V1845.06H492.304C500.382 1845.06 506.931 1851.61 506.931 1859.68C506.931 1867.76 500.382 1874.31 492.304 1874.31H481.209C481.157 1874.31 481.104 1874.31 481.052 1874.31H418.044C409.966 1874.31 403.418 1880.86 403.418 1888.94C403.418 1897.01 409.966 1903.56 418.044 1903.56L426.484 1903.56H486.117C494.195 1903.56 500.744 1910.11 500.744 1918.19C500.744 1926.27 494.195 1932.82 486.117 1932.82H426.484V1932.82H403.981C395.903 1932.82 389.355 1939.37 389.355 1947.45C389.355 1955.52 395.903 1962.07 403.981 1962.07L426.484 1962.07H450.673C458.751 1962.07 465.3 1968.62 465.3 1976.7C465.3 1984.78 458.751 1991.33 450.673 1991.33H281.903C273.824 1991.33 267.276 1984.78 267.276 1976.7C267.276 1968.62 273.824 1962.07 281.903 1962.07H289.779L346.037 1962.07C354.116 1962.07 360.664 1955.52 360.664 1947.45C360.664 1939.37 354.116 1932.82 346.037 1932.82H289.779V1932.82H231.273C223.195 1932.82 216.647 1926.27 216.647 1918.19C216.647 1910.11 223.195 1903.56 231.273 1903.56H289.779L311.72 1903.56C319.798 1903.56 326.347 1897.01 326.347 1888.94C326.347 1880.86 319.798 1874.31 311.72 1874.31H267.12C259.114 1874.23 252.65 1867.71 252.65 1859.68C252.65 1851.61 259.199 1845.06 267.277 1845.06H289.779V1845.06H293.155C301.233 1845.06 307.782 1838.51 307.782 1830.43C307.782 1822.35 301.233 1815.8 293.155 1815.8H248.149C248.11 1815.8 248.071 1815.8 248.032 1815.8H72.0643C63.9862 1815.8 57.4376 1809.26 57.4376 1801.18C57.4376 1793.1 63.9862 1786.55 72.0643 1786.55H216.647V1786.55H331.973C340.051 1786.55 346.6 1780 346.6 1771.92C346.6 1763.84 340.051 1757.3 331.973 1757.3H122.698L122.655 1757.3H72.0643C63.9861 1757.3 57.4376 1750.75 57.4376 1742.67C57.4376 1734.59 63.9862 1728.04 72.0643 1728.04H122.667L122.698 1728.04L216.647 1728.04L261.089 1728.04C269.168 1728.04 275.716 1721.49 275.716 1713.42C275.716 1705.34 269.168 1698.79 261.089 1698.79H145.649C137.623 1698.73 131.135 1692.2 131.135 1684.16C131.135 1676.08 137.684 1669.54 145.762 1669.54H216.647V1669.54H256.026C264.104 1669.54 270.653 1662.99 270.653 1654.91C270.653 1646.83 264.104 1640.28 256.026 1640.28H216.647V1640.28H172.765C164.687 1640.28 158.139 1633.73 158.139 1625.66C158.139 1617.63 164.602 1611.11 172.607 1611.03H254.901C262.979 1611.03 269.528 1604.48 269.528 1596.4C269.528 1588.32 262.979 1581.78 254.901 1581.78H216.647V1581.77H63.6268C55.5487 1581.77 49 1575.23 49 1567.15C49 1559.07 55.5486 1552.52 63.6268 1552.52H190.654L190.706 1552.52L190.767 1552.52H284.716C292.794 1552.52 299.343 1545.97 299.343 1537.89C299.343 1529.82 292.794 1523.27 284.716 1523.27H190.767L190.73 1523.27H176.141C168.063 1523.27 161.514 1516.72 161.514 1508.64C161.514 1500.56 168.063 1494.01 176.141 1494.01H284.154V1494.01H308.344C316.422 1494.01 322.971 1487.47 322.971 1479.39C322.971 1471.31 316.422 1464.76 308.344 1464.76H278.933C270.927 1464.68 264.464 1458.16 264.464 1450.13C264.464 1442.06 271.012 1435.51 279.09 1435.51H284.154V1435.51H316.22C324.298 1435.51 330.846 1428.96 330.846 1420.88C330.846 1412.8 324.298 1406.25 316.22 1406.25H248.113C240.052 1406.23 233.522 1399.69 233.522 1391.63C233.522 1383.55 240.071 1377 248.149 1377H284.154H419.171H483.303C491.381 1377 497.93 1383.55 497.93 1391.63C497.93 1399.69 491.401 1406.23 483.339 1406.25ZM638.01 1684.16C638.01 1692.2 631.522 1698.73 623.496 1698.79H572.076C564.05 1698.73 557.563 1692.2 557.563 1684.16C557.563 1676.08 564.111 1669.54 572.189 1669.54H623.383C631.461 1669.54 638.01 1676.08 638.01 1684.16ZM77.1281 1625.66C77.1281 1617.58 83.6767 1611.03 91.7549 1611.03H107.507C115.585 1611.03 122.134 1617.58 122.134 1625.66C122.134 1633.73 115.585 1640.28 107.507 1640.28H91.7549C83.6767 1640.28 77.1281 1633.73 77.1281 1625.66ZM205.957 1845.06C197.879 1845.06 191.33 1851.61 191.33 1859.68C191.33 1867.76 197.879 1874.31 205.957 1874.31H212.145C220.223 1874.31 226.772 1867.76 226.772 1859.68C226.772 1851.61 220.223 1845.06 212.145 1845.06H205.957Z" fill="#5959DE"/>
    </g>
    <g opacity="0.77">
    <path fill-rule="evenodd" clip-rule="evenodd" d="M188.431 3841.63H220.314H255.234H341.269H351.897C359.164 3841.63 365.055 3835.74 365.055 3828.47C365.055 3821.21 359.164 3815.32 351.897 3815.32H341.269H297.745C290.478 3815.32 284.587 3809.43 284.587 3802.16C284.587 3794.89 290.478 3789 297.745 3789H341.269H409.084H449.065C456.332 3789 462.223 3794.89 462.223 3802.16C462.223 3809.43 456.332 3815.32 449.065 3815.32H409.084H402.505C395.238 3815.32 389.347 3821.21 389.347 3828.47C389.347 3835.74 395.238 3841.63 402.505 3841.63H409.084H528.52H596.842C604.109 3841.63 610 3847.52 610 3854.79C610 3862.06 604.109 3867.95 596.842 3867.95H528.52H443.498C436.231 3867.95 430.34 3873.84 430.34 3881.11C430.34 3888.37 436.231 3894.27 443.498 3894.27H528.52H561.922C569.189 3894.27 575.08 3900.16 575.08 3907.42C575.08 3914.69 569.189 3920.58 561.922 3920.58H528.52H417.688H371.634C364.367 3920.58 358.476 3926.47 358.476 3933.74C358.476 3941.01 364.367 3946.9 371.634 3946.9L417.688 3946.9H421.23L421.25 3946.9C428.508 3946.91 434.388 3952.8 434.388 3960.06C434.388 3967.32 428.497 3973.21 421.23 3973.21L417.688 3973.22L307.867 3973.21L305.337 3973.22V3972.97C299.28 3971.79 294.709 3966.46 294.709 3960.06C294.709 3953.66 299.28 3948.32 305.337 3947.14V3946.9H327.604C334.872 3946.9 340.763 3941.01 340.763 3933.74C340.763 3926.47 334.872 3920.58 327.604 3920.58H305.337H255.234H150.981H124.158C116.891 3920.58 111 3914.69 111 3907.42C111 3900.16 116.891 3894.27 124.158 3894.27H164.959H255.234H377.007C384.274 3894.27 390.165 3888.37 390.165 3881.11C390.165 3873.84 384.274 3867.95 377.007 3867.95H255.234H188.431C181.164 3867.95 175.273 3862.06 175.273 3854.79C175.273 3847.52 181.164 3841.63 188.431 3841.63ZM124.158 3841.63C116.891 3841.63 111 3847.52 111 3854.79C111 3862.06 116.891 3867.95 124.158 3867.95H132.201C139.468 3867.95 145.359 3862.06 145.359 3854.79C145.359 3847.52 139.468 3841.63 132.201 3841.63H124.158Z" fill="#6901F2"/>
    <path fill-rule="evenodd" clip-rule="evenodd" d="M183.431 3829.63H215.314H250.234H336.269H346.897C354.164 3829.63 360.055 3823.74 360.055 3816.47C360.055 3809.21 354.164 3803.32 346.897 3803.32H336.269H292.745C285.478 3803.32 279.587 3797.43 279.587 3790.16C279.587 3782.89 285.478 3777 292.745 3777H336.269H404.084H444.065C451.332 3777 457.223 3782.89 457.223 3790.16C457.223 3797.43 451.332 3803.32 444.065 3803.32H404.084H397.505C390.238 3803.32 384.347 3809.21 384.347 3816.47C384.347 3823.74 390.238 3829.63 397.505 3829.63H404.084H523.52H591.842C599.109 3829.63 605 3835.52 605 3842.79C605 3850.06 599.109 3855.95 591.842 3855.95H523.52H438.498C431.231 3855.95 425.34 3861.84 425.34 3869.11C425.34 3876.37 431.231 3882.27 438.498 3882.27H523.52H556.922C564.189 3882.27 570.08 3888.16 570.08 3895.42C570.08 3902.69 564.189 3908.58 556.922 3908.58H523.52H412.688H366.634C359.367 3908.58 353.476 3914.47 353.476 3921.74C353.476 3929.01 359.367 3934.9 366.634 3934.9L412.688 3934.9H416.23L416.25 3934.9C423.508 3934.91 429.388 3940.8 429.388 3948.06C429.388 3955.32 423.497 3961.21 416.23 3961.21L412.688 3961.22L302.867 3961.21L300.337 3961.22V3960.97C294.28 3959.79 289.709 3954.46 289.709 3948.06C289.709 3941.66 294.28 3936.32 300.337 3935.14V3934.9H322.604C329.872 3934.9 335.763 3929.01 335.763 3921.74C335.763 3914.47 329.872 3908.58 322.604 3908.58H300.337H250.234H145.981H119.158C111.891 3908.58 106 3902.69 106 3895.42C106 3888.16 111.891 3882.27 119.158 3882.27H159.959H250.234H372.007C379.274 3882.27 385.165 3876.37 385.165 3869.11C385.165 3861.84 379.274 3855.95 372.007 3855.95H250.234H183.431C176.164 3855.95 170.273 3850.06 170.273 3842.79C170.273 3835.52 176.164 3829.63 183.431 3829.63ZM119.158 3829.63C111.891 3829.63 106 3835.52 106 3842.79C106 3850.06 111.891 3855.95 119.158 3855.95H127.201C134.468 3855.95 140.359 3850.06 140.359 3842.79C140.359 3835.52 134.468 3829.63 127.201 3829.63H119.158Z" fill="#5959DE"/>
    </g>
    </svg>
    