<svg width="1440" height="4165" viewBox="0 0 1440 4165" fill="none" xmlns="http://www.w3.org/2000/svg">
    <g opacity="0.21">
    <path opacity="0.33" fill-rule="evenodd" clip-rule="evenodd" d="M859.322 547.673V547.674H746.852C739.379 547.674 733.32 553.647 733.32 561.016C733.32 568.36 739.337 574.317 746.775 574.359H931.905C939.378 574.359 945.437 580.332 945.437 587.701C945.437 595.071 939.378 601.044 931.905 601.044H859.322H749.551C742.087 601.055 736.04 607.024 736.04 614.386C736.04 621.755 742.098 627.729 749.572 627.729H762.327H855.759C863.232 627.729 869.29 633.702 869.29 641.072C869.29 648.44 863.232 654.414 855.759 654.414H762.327H648.952H648.932C641.468 654.425 635.421 660.394 635.421 667.757C635.421 675.125 641.479 681.099 648.952 681.099H674.254C674.28 681.099 674.307 681.099 674.333 681.099H907.43C914.903 681.099 920.961 687.072 920.961 694.442C920.961 701.81 914.903 707.784 907.43 707.784H861.134V707.785H764.076C756.603 707.785 750.545 713.758 750.545 721.127C750.545 728.461 756.546 734.413 763.97 734.469H900.178C907.651 734.469 913.709 740.443 913.709 747.812C913.709 755.18 907.651 761.155 900.178 761.155H861.134H750.477C743.004 761.155 736.945 767.128 736.945 774.497C736.945 781.866 743.004 787.84 750.477 787.84H1158.52C1166 787.84 1172.06 781.866 1172.06 774.497C1172.06 767.128 1166 761.155 1158.52 761.155H1048.77H956.248C948.775 761.155 942.717 755.18 942.717 747.812C942.717 740.443 948.775 734.469 956.248 734.469H1172.23C1179.65 734.413 1185.65 728.461 1185.65 721.127C1185.65 713.758 1179.6 707.785 1172.12 707.785H1048.77V707.784H967.125C959.652 707.784 953.594 701.81 953.594 694.442C953.594 687.072 959.652 681.099 967.125 681.099H1200.22H1200.3H1325.32C1332.79 681.099 1338.85 675.125 1338.85 667.757C1338.85 660.394 1332.8 654.425 1325.34 654.414H1325.32H1245.48H1055.05C1047.58 654.414 1041.52 648.44 1041.52 641.072C1041.52 633.702 1047.58 627.729 1055.05 627.729H1245.48H1381.52C1388.99 627.729 1395.05 621.755 1395.05 614.386C1395.05 607.017 1388.99 601.044 1381.52 601.044H1245.48H1224.71H1224.7H1046.96H991.602C984.129 601.044 978.07 595.071 978.07 587.701C978.07 580.332 984.129 574.359 991.602 574.359H1154.98C1162.41 574.317 1168.43 568.36 1168.43 561.016C1168.43 553.647 1162.37 547.674 1154.9 547.674H1046.96V547.673H1012.45C1004.98 547.673 998.919 541.7 998.919 534.331C998.919 526.962 1004.98 520.988 1012.45 520.988H1089.72C1097.15 520.945 1103.16 514.988 1103.16 507.646C1103.16 500.277 1097.11 494.303 1089.63 494.303H1046.96H859.322H836.594C829.121 494.303 823.063 500.277 823.063 507.646C823.063 514.988 829.076 520.945 836.512 520.988H943.689C951.163 520.988 957.221 526.962 957.221 534.331C957.221 541.7 951.163 547.673 943.689 547.673H859.322ZM602.787 614.386C602.787 607.017 608.845 601.044 616.319 601.044H668.119C675.592 601.044 681.651 607.017 681.651 614.386C681.651 621.755 675.592 627.729 668.119 627.729H616.319C608.845 627.729 602.787 621.755 602.787 614.386Z" fill="black"/>
    <path opacity="0.33" fill-rule="evenodd" clip-rule="evenodd" d="M1116 2791.11H1133.49C1140.93 2791.11 1146.96 2785.17 1146.96 2777.83C1146.96 2770.49 1140.93 2764.55 1133.49 2764.55H1116H955.82H921.304C913.867 2764.55 907.838 2770.49 907.838 2777.83C907.838 2785.17 913.867 2791.11 921.304 2791.11H955.82H983.37C990.8 2791.11 996.83 2797.06 996.83 2804.38C996.83 2811.72 990.8 2817.67 983.37 2817.67H865.476C858.09 2817.73 852.122 2823.64 852.122 2830.94C852.122 2838.27 858.15 2844.22 865.587 2844.22H955.82H1001.16C1008.6 2844.22 1014.63 2850.17 1014.63 2857.5C1014.63 2864.79 1008.67 2870.7 1001.29 2870.77H1055.82C1048.45 2870.7 1042.49 2864.79 1042.49 2857.5C1042.49 2850.17 1048.52 2844.22 1055.95 2844.22H1116H1210.1C1217.54 2844.22 1223.57 2838.27 1223.57 2830.94C1223.57 2823.64 1217.6 2817.73 1210.21 2817.67H1045.89C1038.46 2817.67 1032.43 2811.72 1032.43 2804.38C1032.43 2797.06 1038.46 2791.11 1045.89 2791.11H1116ZM1055.84 2870.77C1055.88 2870.77 1055.92 2870.77 1055.95 2870.77H1207.89C1215.28 2870.83 1221.25 2876.76 1221.25 2884.06C1221.25 2891.38 1215.22 2897.33 1207.78 2897.33H1198.81H1120.96C1113.52 2897.33 1107.49 2903.27 1107.49 2910.61C1107.49 2917.95 1113.52 2923.88 1120.96 2923.88H1293.87C1301.22 2923.99 1307.14 2929.9 1307.14 2937.16C1307.14 2944.5 1301.11 2950.44 1293.68 2950.44H1198.81V2950.44H1076.85C1076.81 2950.44 1076.78 2950.44 1076.75 2950.44H1022.16C1022.13 2950.44 1022.09 2950.44 1022.06 2950.44H826.898H826.845H826.797H786.346V2950.44H720.105C712.668 2950.44 706.639 2944.5 706.639 2937.16C706.639 2929.9 712.561 2923.99 719.906 2923.88H946.99C954.43 2923.88 960.46 2917.95 960.46 2910.61C960.46 2903.27 954.43 2897.33 946.99 2897.33H786.346H672.127C664.69 2897.33 658.661 2891.38 658.661 2884.06C658.661 2876.72 664.69 2870.77 672.127 2870.77H786.346H805.891H805.959H806.002H1001.16H1001.23H1001.27H1055.84ZM1145.11 2977H1076.85C1069.41 2977 1063.38 2971.05 1063.38 2963.72C1063.38 2956.42 1069.35 2950.5 1076.73 2950.44H1022.18C1029.56 2950.5 1035.53 2956.42 1035.53 2963.72C1035.53 2971.05 1029.5 2977 1022.06 2977H934.64C928.518 2978.27 923.927 2983.62 923.927 2990.03C923.927 2997.4 929.98 3003.38 937.45 3003.38H954.27V3003.55H1031.34C1038.78 3003.55 1044.81 3009.5 1044.81 3016.82C1044.81 3024.16 1038.78 3030.11 1031.34 3030.11H936.04C929.233 3030.81 923.927 3036.48 923.927 3043.37C923.927 3050.73 929.98 3056.7 937.45 3056.7H1170.4C1177.87 3056.7 1183.92 3050.73 1183.92 3043.37C1183.92 3036.48 1178.62 3030.81 1171.81 3030.11H1083.04C1075.6 3030.11 1069.57 3024.16 1069.57 3016.82C1069.57 3009.5 1075.6 3003.55 1083.04 3003.55H1114.45V3003.38H1142.29C1149.76 3003.38 1155.81 2997.4 1155.81 2990.03C1155.81 2983.62 1151.22 2978.27 1145.11 2977ZM1335 2884.06C1335 2876.72 1328.97 2870.77 1321.53 2870.77H1281.14C1273.7 2870.77 1267.68 2876.72 1267.68 2884.06C1267.68 2891.38 1273.7 2897.33 1281.14 2897.33H1321.53C1328.97 2897.33 1335 2891.38 1335 2884.06Z" fill="black"/>
    <path opacity="0.33" fill-rule="evenodd" clip-rule="evenodd" d="M199.431 3798.82H231.314H266.234H352.269H362.897C370.164 3798.82 376.055 3793.01 376.055 3785.84C376.055 3778.68 370.164 3772.87 362.897 3772.87H352.269H308.745C301.478 3772.87 295.587 3767.07 295.587 3759.9C295.587 3752.73 301.478 3746.92 308.745 3746.92H352.269H420.084H460.065C467.332 3746.92 473.223 3752.73 473.223 3759.9C473.223 3767.07 467.332 3772.87 460.065 3772.87H420.084H413.505C406.238 3772.87 400.347 3778.68 400.347 3785.84C400.347 3793.01 406.238 3798.82 413.505 3798.82H420.084H539.52H607.842C615.109 3798.82 621 3804.63 621 3811.79C621 3818.96 615.109 3824.77 607.842 3824.77H539.52H454.498C447.231 3824.77 441.34 3830.58 441.34 3837.75C441.34 3844.9 447.231 3850.72 454.498 3850.72H539.52H572.922C580.189 3850.72 586.08 3856.53 586.08 3863.69C586.08 3870.86 580.189 3876.66 572.922 3876.66H539.52H428.688H382.634C375.367 3876.66 369.476 3882.47 369.476 3889.64C369.476 3896.81 375.367 3902.62 382.634 3902.62H428.688H432.23H432.25C439.508 3902.63 445.388 3908.43 445.388 3915.59C445.388 3922.75 439.497 3928.56 432.23 3928.56L428.688 3928.57L318.867 3928.56L316.337 3928.57V3928.32C310.28 3927.16 305.709 3921.9 305.709 3915.59C305.709 3909.28 310.28 3904.02 316.337 3902.85V3902.62H338.604C345.872 3902.62 351.763 3896.81 351.763 3889.64C351.763 3882.47 345.872 3876.66 338.604 3876.66H316.337H266.234H161.981H135.158C127.891 3876.66 122 3870.86 122 3863.69C122 3856.53 127.891 3850.72 135.158 3850.72H175.959H266.234H388.007C395.274 3850.72 401.165 3844.9 401.165 3837.75C401.165 3830.58 395.274 3824.77 388.007 3824.77H266.234H199.431C192.164 3824.77 186.273 3818.96 186.273 3811.79C186.273 3804.63 192.164 3798.82 199.431 3798.82ZM135.158 3798.82C127.891 3798.82 122 3804.63 122 3811.79C122 3818.96 127.891 3824.77 135.158 3824.77H143.201C150.468 3824.77 156.359 3818.96 156.359 3811.79C156.359 3804.63 150.468 3798.82 143.201 3798.82H135.158Z" fill="black"/>
    <path opacity="0.33" fill-rule="evenodd" clip-rule="evenodd" d="M288.903 1629.29V1629.29H251.609C244.35 1629.29 238.466 1623.4 238.466 1616.14C238.466 1608.88 244.35 1603 251.609 1603H288.903H480.38H512.071C519.33 1603 525.214 1608.88 525.214 1616.14C525.214 1623.4 519.33 1629.29 512.071 1629.29H480.38V1629.29H445.888C438.629 1629.29 432.745 1635.17 432.745 1642.43C432.745 1649.69 438.629 1655.57 445.888 1655.57H600.975C608.155 1655.66 613.947 1661.51 613.947 1668.71C613.947 1675.97 608.063 1681.86 600.805 1681.86H480.38V1681.86H462.701C455.442 1681.86 449.558 1687.74 449.558 1695C449.558 1702.26 455.442 1708.14 462.701 1708.14H666.187C666.229 1708.14 666.271 1708.14 666.313 1708.14H670.857C678.116 1708.14 684 1714.03 684 1721.29C684 1728.54 678.116 1734.43 670.857 1734.43H469.173V1734.43H432.812C425.553 1734.43 419.669 1740.31 419.669 1747.57C419.669 1754.83 425.553 1760.71 432.812 1760.71H550.42C557.654 1760.74 563.51 1766.62 563.51 1773.86C563.51 1781.12 557.625 1787 550.367 1787H113.372C106.114 1787 100.229 1781.12 100.229 1773.86C100.229 1766.62 106.085 1760.74 113.319 1760.71H304.716C311.974 1760.71 317.858 1754.83 317.858 1747.57C317.858 1740.31 311.974 1734.43 304.716 1734.43H287.971V1734.43H221.72C214.461 1734.43 208.577 1728.54 208.577 1721.29C208.577 1714.07 214.393 1708.21 221.594 1708.14H335.54C342.798 1708.14 348.683 1702.26 348.683 1695C348.683 1687.74 342.798 1681.86 335.54 1681.86H288.903V1681.86H119.91C112.652 1681.86 106.768 1675.97 106.768 1668.71C106.768 1661.46 112.652 1655.57 119.91 1655.57H134.684C134.741 1655.57 134.798 1655.57 134.855 1655.57H376.636C383.895 1655.57 389.779 1649.69 389.779 1642.43C389.779 1635.17 383.895 1629.29 376.636 1629.29H288.903ZM122.713 1708.14L122.67 1708.14L122.587 1708.14H74.1429C66.8843 1708.14 61 1714.03 61 1721.29C61 1728.54 66.8843 1734.43 74.1429 1734.43H129.118C136.377 1734.43 142.261 1728.54 142.261 1721.29C142.261 1714.07 136.445 1708.21 129.244 1708.14H122.713Z" fill="black"/>
    <path fill-rule="evenodd" clip-rule="evenodd" d="M848.322 536.827V536.828H735.852C728.379 536.828 722.32 542.801 722.32 550.17C722.32 557.513 728.337 563.471 735.775 563.512H920.905C928.378 563.512 934.437 569.486 934.437 576.855C934.437 584.224 928.378 590.197 920.905 590.197H848.322H738.551C731.087 590.208 725.04 596.178 725.04 603.539C725.04 610.909 731.098 616.882 738.572 616.882H751.327H844.759C852.232 616.882 858.29 622.856 858.29 630.225C858.29 637.594 852.232 643.567 844.759 643.567H751.327H637.952H637.932C630.468 643.578 624.421 649.548 624.421 656.91C624.421 664.279 630.479 670.252 637.952 670.252H663.254C663.28 670.252 663.307 670.252 663.333 670.252H896.43C903.903 670.252 909.961 676.226 909.961 683.595C909.961 690.964 903.903 696.937 896.43 696.937H850.134V696.938H753.076C745.603 696.938 739.545 702.912 739.545 710.28C739.545 717.615 745.546 723.566 752.97 723.622H889.178C896.651 723.622 902.709 729.597 902.709 736.965C902.709 744.334 896.651 750.308 889.178 750.308H850.134H739.477C732.004 750.308 725.945 756.282 725.945 763.65C725.945 771.02 732.004 776.993 739.477 776.993H1147.52C1155 776.993 1161.06 771.02 1161.06 763.65C1161.06 756.282 1155 750.308 1147.52 750.308H1037.77H945.248C937.775 750.308 931.717 744.334 931.717 736.965C931.717 729.597 937.775 723.622 945.248 723.622H1161.23C1168.65 723.566 1174.65 717.615 1174.65 710.28C1174.65 702.912 1168.6 696.938 1161.12 696.938H1037.77V696.937H956.125C948.652 696.937 942.594 690.964 942.594 683.595C942.594 676.226 948.652 670.252 956.125 670.252H1189.22H1189.3H1314.32C1321.79 670.252 1327.85 664.279 1327.85 656.91C1327.85 649.548 1321.8 643.578 1314.34 643.567H1314.32H1234.48H1044.05C1036.58 643.567 1030.52 637.594 1030.52 630.225C1030.52 622.856 1036.58 616.882 1044.05 616.882H1234.48H1370.52C1377.99 616.882 1384.05 610.909 1384.05 603.539C1384.05 596.171 1377.99 590.197 1370.52 590.197H1234.48H1213.71H1213.7H1035.96H980.602C973.129 590.197 967.07 584.224 967.07 576.855C967.07 569.486 973.129 563.512 980.602 563.512H1143.98C1151.41 563.471 1157.43 557.513 1157.43 550.17C1157.43 542.801 1151.37 536.828 1143.9 536.828H1035.96V536.827H1001.45C993.977 536.827 987.919 530.853 987.919 523.485C987.919 516.116 993.977 510.142 1001.45 510.142H1078.72C1086.15 510.098 1092.16 504.142 1092.16 496.8C1092.16 489.431 1086.11 483.457 1078.63 483.457H1035.96H848.322H825.594C818.121 483.457 812.063 489.431 812.063 496.8C812.063 504.142 818.076 510.098 825.512 510.142H932.689C940.163 510.142 946.221 516.116 946.221 523.485C946.221 530.853 940.163 536.827 932.689 536.827H848.322ZM591.787 603.539C591.787 596.171 597.845 590.197 605.319 590.197H657.119C664.592 590.197 670.651 596.171 670.651 603.539C670.651 610.909 664.592 616.882 657.119 616.882H605.319C597.845 616.882 591.787 610.909 591.787 603.539Z" fill="#37DEAD"/>
    <path fill-rule="evenodd" clip-rule="evenodd" d="M1105 2780.27H1122.49C1129.93 2780.27 1135.96 2774.32 1135.96 2766.98C1135.96 2759.65 1129.93 2753.7 1122.49 2753.7H1105H944.82H910.304C902.867 2753.7 896.838 2759.65 896.838 2766.98C896.838 2774.32 902.867 2780.27 910.304 2780.27H944.82H972.37C979.8 2780.27 985.83 2786.21 985.83 2793.54C985.83 2800.87 979.8 2806.82 972.37 2806.82H854.476C847.09 2806.88 841.122 2812.8 841.122 2820.09C841.122 2827.43 847.15 2833.37 854.587 2833.37H944.82H990.16C997.6 2833.37 1003.63 2839.32 1003.63 2846.66C1003.63 2853.94 997.67 2859.86 990.29 2859.93H1044.82C1037.45 2859.86 1031.49 2853.94 1031.49 2846.66C1031.49 2839.32 1037.52 2833.37 1044.95 2833.37H1105H1199.1C1206.54 2833.37 1212.57 2827.43 1212.57 2820.09C1212.57 2812.8 1206.6 2806.88 1199.21 2806.82H1034.89C1027.46 2806.82 1021.43 2800.87 1021.43 2793.54C1021.43 2786.21 1027.46 2780.27 1034.89 2780.27H1105ZM1044.84 2859.93C1044.88 2859.93 1044.92 2859.93 1044.95 2859.93H1196.89C1204.28 2859.99 1210.25 2865.91 1210.25 2873.21C1210.25 2880.54 1204.22 2886.48 1196.78 2886.48H1187.81H1109.96C1102.52 2886.48 1096.49 2892.43 1096.49 2899.76C1096.49 2907.1 1102.52 2913.04 1109.96 2913.04H1282.87C1290.22 2913.14 1296.14 2919.05 1296.14 2926.32C1296.14 2933.65 1290.11 2939.59 1282.68 2939.59H1187.81V2939.6H1065.85C1065.81 2939.6 1065.78 2939.6 1065.75 2939.6H1011.16C1011.13 2939.6 1011.09 2939.6 1011.06 2939.6H815.898H815.845H815.797H775.346V2939.59H709.105C701.668 2939.59 695.639 2933.65 695.639 2926.32C695.639 2919.05 701.561 2913.14 708.906 2913.04H935.99C943.43 2913.04 949.46 2907.1 949.46 2899.76C949.46 2892.43 943.43 2886.48 935.99 2886.48H775.346H661.127C653.69 2886.48 647.661 2880.54 647.661 2873.21C647.661 2865.87 653.69 2859.93 661.127 2859.93H775.346H794.891H794.959H795.002H990.16H990.23H990.27H1044.84ZM1134.11 2966.15H1065.85C1058.41 2966.15 1052.38 2960.21 1052.38 2952.87C1052.38 2945.57 1058.35 2939.66 1065.73 2939.6H1011.18C1018.56 2939.66 1024.53 2945.57 1024.53 2952.87C1024.53 2960.21 1018.5 2966.15 1011.06 2966.15H923.64C917.518 2967.42 912.927 2972.78 912.927 2979.19C912.927 2986.55 918.98 2992.53 926.45 2992.53H943.27V2992.71H1020.34C1027.78 2992.71 1033.81 2998.65 1033.81 3005.98C1033.81 3013.31 1027.78 3019.26 1020.34 3019.26H925.04C918.233 3019.96 912.927 3025.63 912.927 3032.52C912.927 3039.89 918.98 3045.85 926.45 3045.85H1159.4C1166.87 3045.85 1172.92 3039.89 1172.92 3032.52C1172.92 3025.63 1167.62 3019.96 1160.81 3019.26H1072.04C1064.6 3019.26 1058.57 3013.31 1058.57 3005.98C1058.57 2998.65 1064.6 2992.71 1072.04 2992.71H1103.45V2992.53H1131.29C1138.76 2992.53 1144.81 2986.55 1144.81 2979.19C1144.81 2972.78 1140.22 2967.42 1134.11 2966.15ZM1324 2873.21C1324 2865.87 1317.97 2859.93 1310.53 2859.93H1270.14C1262.7 2859.93 1256.68 2865.87 1256.68 2873.21C1256.68 2880.54 1262.7 2886.48 1270.14 2886.48H1310.53C1317.97 2886.48 1324 2880.54 1324 2873.21Z" fill="#37DEAD"/>
    <path fill-rule="evenodd" clip-rule="evenodd" d="M188.431 3787.97H220.314H255.234H341.269H351.897C359.164 3787.97 365.055 3782.16 365.055 3774.99C365.055 3767.84 359.164 3762.03 351.897 3762.03H341.269H297.745C290.478 3762.03 284.587 3756.22 284.587 3749.05C284.587 3741.88 290.478 3736.08 297.745 3736.08H341.269H409.084H449.065C456.332 3736.08 462.223 3741.88 462.223 3749.05C462.223 3756.22 456.332 3762.03 449.065 3762.03H409.084H402.505C395.238 3762.03 389.347 3767.84 389.347 3774.99C389.347 3782.16 395.238 3787.97 402.505 3787.97H409.084H528.52H596.842C604.109 3787.97 610 3793.78 610 3800.95C610 3808.12 604.109 3813.92 596.842 3813.92H528.52H443.498C436.231 3813.92 430.34 3819.73 430.34 3826.9C430.34 3834.06 436.231 3839.88 443.498 3839.88H528.52H561.922C569.189 3839.88 575.08 3845.68 575.08 3852.84C575.08 3860.01 569.189 3865.82 561.922 3865.82H528.52H417.688H371.634C364.367 3865.82 358.476 3871.63 358.476 3878.79C358.476 3885.96 364.367 3891.77 371.634 3891.77H417.688H421.23H421.25C428.508 3891.78 434.388 3897.59 434.388 3904.75C434.388 3911.91 428.497 3917.71 421.23 3917.71L417.688 3917.72L307.867 3917.71L305.337 3917.72V3917.48C299.28 3916.31 294.709 3911.06 294.709 3904.75C294.709 3898.44 299.28 3893.17 305.337 3892.01V3891.77H327.604C334.872 3891.77 340.763 3885.96 340.763 3878.79C340.763 3871.63 334.872 3865.82 327.604 3865.82H305.337H255.234H150.981H124.158C116.891 3865.82 111 3860.01 111 3852.84C111 3845.68 116.891 3839.88 124.158 3839.88H164.959H255.234H377.007C384.274 3839.88 390.165 3834.06 390.165 3826.9C390.165 3819.73 384.274 3813.92 377.007 3813.92H255.234H188.431C181.164 3813.92 175.273 3808.12 175.273 3800.95C175.273 3793.78 181.164 3787.97 188.431 3787.97ZM124.158 3787.97C116.891 3787.97 111 3793.78 111 3800.95C111 3808.12 116.891 3813.92 124.158 3813.92H132.201C139.468 3813.92 145.359 3808.12 145.359 3800.95C145.359 3793.78 139.468 3787.97 132.201 3787.97H124.158Z" fill="#37DEAD"/>
    <path fill-rule="evenodd" clip-rule="evenodd" d="M277.903 1618.29V1618.29H240.609C233.35 1618.29 227.466 1612.4 227.466 1605.14C227.466 1597.88 233.35 1592 240.609 1592H277.903H469.38H501.071C508.33 1592 514.214 1597.88 514.214 1605.14C514.214 1612.4 508.33 1618.29 501.071 1618.29H469.38V1618.29H434.888C427.629 1618.29 421.745 1624.17 421.745 1631.43C421.745 1638.69 427.629 1644.57 434.888 1644.57H589.975C597.155 1644.66 602.947 1650.51 602.947 1657.71C602.947 1664.97 597.063 1670.86 589.805 1670.86H469.38V1670.86H451.701C444.442 1670.86 438.558 1676.74 438.558 1684C438.558 1691.26 444.442 1697.14 451.701 1697.14H655.187C655.229 1697.14 655.271 1697.14 655.313 1697.14H659.857C667.116 1697.14 673 1703.03 673 1710.29C673 1717.54 667.116 1723.43 659.857 1723.43H458.173V1723.43H421.812C414.553 1723.43 408.669 1729.31 408.669 1736.57C408.669 1743.83 414.553 1749.71 421.812 1749.71H539.42C546.654 1749.74 552.51 1755.62 552.51 1762.86C552.51 1770.12 546.625 1776 539.367 1776H102.372C95.1138 1776 89.2295 1770.12 89.2295 1762.86C89.2295 1755.62 95.0848 1749.74 102.319 1749.71H293.716C300.974 1749.71 306.858 1743.83 306.858 1736.57C306.858 1729.31 300.974 1723.43 293.716 1723.43H276.971V1723.43H210.72C203.461 1723.43 197.577 1717.54 197.577 1710.29C197.577 1703.07 203.393 1697.21 210.594 1697.14H324.54C331.798 1697.14 337.683 1691.26 337.683 1684C337.683 1676.74 331.798 1670.86 324.54 1670.86H277.903V1670.86H108.91C101.652 1670.86 95.7676 1664.97 95.7676 1657.71C95.7676 1650.46 101.652 1644.57 108.91 1644.57H123.684C123.741 1644.57 123.798 1644.57 123.855 1644.57H365.636C372.895 1644.57 378.779 1638.69 378.779 1631.43C378.779 1624.17 372.895 1618.29 365.636 1618.29H277.903ZM111.713 1697.14L111.67 1697.14L111.587 1697.14H63.1429C55.8843 1697.14 50 1703.03 50 1710.29C50 1717.54 55.8843 1723.43 63.1429 1723.43H118.118C125.377 1723.43 131.261 1717.54 131.261 1710.29C131.261 1703.07 125.445 1697.21 118.244 1697.14H111.713Z" fill="#37DEAD"/>
    </g>
    </svg>
    