<svg width="1440" height="4224" viewBox="0 0 1440 4224" fill="none" xmlns="http://www.w3.org/2000/svg">
    <g opacity="0.32">
    <path opacity="0.33" fill-rule="evenodd" clip-rule="evenodd" d="M859.322 555.431V555.432H746.852C739.379 555.432 733.32 561.49 733.32 568.963C733.32 576.411 739.337 582.453 746.775 582.495H931.905C939.378 582.495 945.437 588.553 945.437 596.026C945.437 603.5 939.378 609.558 931.905 609.558H859.322H749.551C742.087 609.569 736.04 615.623 736.04 623.089C736.04 630.563 742.098 636.621 749.572 636.621H762.327H855.759C863.232 636.621 869.29 642.679 869.29 650.153C869.29 657.626 863.232 663.684 855.759 663.684H762.327H648.952H648.932C641.468 663.695 635.421 669.749 635.421 677.216C635.421 684.689 641.479 690.747 648.952 690.747H674.254C674.28 690.747 674.307 690.747 674.333 690.747H907.43C914.903 690.747 920.961 696.805 920.961 704.279C920.961 711.752 914.903 717.81 907.43 717.81H861.134V717.811H764.076C756.603 717.811 750.545 723.869 750.545 731.342C750.545 738.78 756.546 744.816 763.97 744.873H900.178C907.651 744.873 913.709 750.932 913.709 758.405C913.709 765.878 907.651 771.937 900.178 771.937H861.134H750.477C743.004 771.937 736.945 777.995 736.945 785.468C736.945 792.942 743.004 799 750.477 799H1158.52C1166 799 1172.06 792.942 1172.06 785.468C1172.06 777.995 1166 771.937 1158.52 771.937H1048.77H956.248C948.775 771.937 942.717 765.878 942.717 758.405C942.717 750.932 948.775 744.873 956.248 744.873H1172.23C1179.65 744.816 1185.65 738.78 1185.65 731.342C1185.65 723.869 1179.6 717.811 1172.12 717.811H1048.77V717.81H967.125C959.652 717.81 953.594 711.752 953.594 704.279C953.594 696.805 959.652 690.747 967.125 690.747H1200.22H1200.3H1325.32C1332.79 690.747 1338.85 684.689 1338.85 677.216C1338.85 669.749 1332.8 663.695 1325.34 663.684H1325.32H1245.48H1055.05C1047.58 663.684 1041.52 657.626 1041.52 650.153C1041.52 642.679 1047.58 636.621 1055.05 636.621H1245.48H1381.52C1388.99 636.621 1395.05 630.563 1395.05 623.089C1395.05 615.616 1388.99 609.558 1381.52 609.558H1245.48H1224.71H1224.7H1046.96H991.602C984.129 609.558 978.07 603.5 978.07 596.026C978.07 588.553 984.129 582.495 991.602 582.495H1154.98C1162.41 582.453 1168.43 576.411 1168.43 568.963C1168.43 561.49 1162.37 555.432 1154.9 555.432H1046.96V555.431H1012.45C1004.98 555.431 998.919 549.373 998.919 541.9C998.919 534.427 1004.98 528.368 1012.45 528.368H1089.72C1097.15 528.324 1103.16 522.283 1103.16 514.837C1103.16 507.364 1097.11 501.305 1089.63 501.305H1046.96H859.322H836.594C829.121 501.305 823.063 507.364 823.063 514.837C823.063 522.283 829.076 528.324 836.512 528.368H943.689C951.163 528.368 957.221 534.427 957.221 541.9C957.221 549.373 951.163 555.431 943.689 555.431H859.322ZM602.787 623.089C602.787 615.616 608.845 609.558 616.319 609.558H668.119C675.592 609.558 681.651 615.616 681.651 623.089C681.651 630.563 675.592 636.621 668.119 636.621H616.319C608.845 636.621 602.787 630.563 602.787 623.089Z" fill="black"/>
    <path opacity="0.33" fill-rule="evenodd" clip-rule="evenodd" d="M1116 2830.65H1133.49C1140.93 2830.65 1146.96 2824.62 1146.96 2817.18C1146.96 2809.74 1140.93 2803.71 1133.49 2803.71H1116H955.82H921.304C913.867 2803.71 907.838 2809.74 907.838 2817.18C907.838 2824.62 913.867 2830.65 921.304 2830.65H955.82H983.37C990.8 2830.65 996.83 2836.68 996.83 2844.11C996.83 2851.55 990.8 2857.58 983.37 2857.58H865.476C858.09 2857.64 852.122 2863.64 852.122 2871.04C852.122 2878.48 858.15 2884.51 865.587 2884.51H955.82H1001.16C1008.6 2884.51 1014.63 2890.54 1014.63 2897.98C1014.63 2905.37 1008.67 2911.37 1001.29 2911.44H1055.82C1048.45 2911.37 1042.49 2905.37 1042.49 2897.98C1042.49 2890.54 1048.52 2884.51 1055.95 2884.51H1116H1210.1C1217.54 2884.51 1223.57 2878.48 1223.57 2871.04C1223.57 2863.64 1217.6 2857.64 1210.21 2857.58H1045.89C1038.46 2857.58 1032.43 2851.55 1032.43 2844.11C1032.43 2836.68 1038.46 2830.65 1045.89 2830.65H1116ZM1055.84 2911.44C1055.88 2911.44 1055.92 2911.44 1055.95 2911.44H1207.89C1215.28 2911.5 1221.25 2917.51 1221.25 2924.91C1221.25 2932.34 1215.22 2938.37 1207.78 2938.37H1198.81H1120.96C1113.52 2938.37 1107.49 2944.4 1107.49 2951.84C1107.49 2959.28 1113.52 2965.3 1120.96 2965.3H1293.87C1301.22 2965.41 1307.14 2971.4 1307.14 2978.77C1307.14 2986.21 1301.11 2992.23 1293.68 2992.23H1198.81V2992.24H1076.85C1076.81 2992.24 1076.78 2992.24 1076.75 2992.24H1022.16C1022.13 2992.24 1022.09 2992.24 1022.06 2992.24H826.898H826.845H826.797H786.346V2992.23H720.105C712.668 2992.23 706.639 2986.21 706.639 2978.77C706.639 2971.4 712.561 2965.41 719.906 2965.3H946.99C954.43 2965.3 960.46 2959.28 960.46 2951.84C960.46 2944.4 954.43 2938.37 946.99 2938.37H786.346H672.127C664.69 2938.37 658.661 2932.34 658.661 2924.91C658.661 2917.47 664.69 2911.44 672.127 2911.44H786.346H805.891H805.959H806.002H1001.16H1001.23H1001.27H1055.84ZM1145.11 3019.17H1076.85C1069.41 3019.17 1063.38 3013.14 1063.38 3005.7C1063.38 2998.3 1069.35 2992.3 1076.73 2992.24H1022.18C1029.56 2992.3 1035.53 2998.3 1035.53 3005.7C1035.53 3013.14 1029.5 3019.17 1022.06 3019.17H934.64C928.518 3020.46 923.927 3025.89 923.927 3032.39C923.927 3039.86 929.98 3045.92 937.45 3045.92H954.27V3046.1H1031.34C1038.78 3046.1 1044.81 3052.13 1044.81 3059.56C1044.81 3067 1038.78 3073.03 1031.34 3073.03H936.04C929.233 3073.74 923.927 3079.49 923.927 3086.48C923.927 3093.95 929.98 3100 937.45 3100H1170.4C1177.87 3100 1183.92 3093.95 1183.92 3086.48C1183.92 3079.49 1178.62 3073.74 1171.81 3073.03H1083.04C1075.6 3073.03 1069.57 3067 1069.57 3059.56C1069.57 3052.13 1075.6 3046.1 1083.04 3046.1H1114.45V3045.92H1142.29C1149.76 3045.92 1155.81 3039.86 1155.81 3032.39C1155.81 3025.89 1151.22 3020.46 1145.11 3019.17ZM1335 2924.91C1335 2917.47 1328.97 2911.44 1321.53 2911.44H1281.14C1273.7 2911.44 1267.68 2917.47 1267.68 2924.91C1267.68 2932.34 1273.7 2938.37 1281.14 2938.37H1321.53C1328.97 2938.37 1335 2932.34 1335 2924.91Z" fill="black"/>
    <path opacity="0.33" fill-rule="evenodd" clip-rule="evenodd" d="M199.431 3852.63H231.314H266.234H352.269H362.897C370.164 3852.63 376.055 3846.74 376.055 3839.47C376.055 3832.21 370.164 3826.32 362.897 3826.32H352.269H308.745C301.478 3826.32 295.587 3820.43 295.587 3813.16C295.587 3805.89 301.478 3800 308.745 3800H352.269H420.084H460.065C467.332 3800 473.223 3805.89 473.223 3813.16C473.223 3820.43 467.332 3826.32 460.065 3826.32H420.084H413.505C406.238 3826.32 400.347 3832.21 400.347 3839.47C400.347 3846.74 406.238 3852.63 413.505 3852.63H420.084H539.52H607.842C615.109 3852.63 621 3858.52 621 3865.79C621 3873.06 615.109 3878.95 607.842 3878.95H539.52H454.498C447.231 3878.95 441.34 3884.84 441.34 3892.11C441.34 3899.37 447.231 3905.27 454.498 3905.27H539.52H572.922C580.189 3905.27 586.08 3911.16 586.08 3918.42C586.08 3925.69 580.189 3931.58 572.922 3931.58H539.52H428.688H382.634C375.367 3931.58 369.476 3937.47 369.476 3944.74C369.476 3952.01 375.367 3957.9 382.634 3957.9H428.688H432.23H432.25C439.508 3957.91 445.388 3963.8 445.388 3971.06C445.388 3978.32 439.497 3984.21 432.23 3984.21L428.688 3984.22L318.867 3984.21L316.337 3984.22V3983.97C310.28 3982.79 305.709 3977.46 305.709 3971.06C305.709 3964.66 310.28 3959.32 316.337 3958.14V3957.9H338.604C345.872 3957.9 351.763 3952.01 351.763 3944.74C351.763 3937.47 345.872 3931.58 338.604 3931.58H316.337H266.234H161.981H135.158C127.891 3931.58 122 3925.69 122 3918.42C122 3911.16 127.891 3905.27 135.158 3905.27H175.959H266.234H388.007C395.274 3905.27 401.165 3899.37 401.165 3892.11C401.165 3884.84 395.274 3878.95 388.007 3878.95H266.234H199.431C192.164 3878.95 186.273 3873.06 186.273 3865.79C186.273 3858.52 192.164 3852.63 199.431 3852.63ZM135.158 3852.63C127.891 3852.63 122 3858.52 122 3865.79C122 3873.06 127.891 3878.95 135.158 3878.95H143.201C150.468 3878.95 156.359 3873.06 156.359 3865.79C156.359 3858.52 150.468 3852.63 143.201 3852.63H135.158Z" fill="black"/>
    <path opacity="0.33" fill-rule="evenodd" clip-rule="evenodd" d="M288.903 1629.29V1629.29H251.609C244.35 1629.29 238.466 1623.4 238.466 1616.14C238.466 1608.88 244.35 1603 251.609 1603H288.903H480.38H512.071C519.33 1603 525.214 1608.88 525.214 1616.14C525.214 1623.4 519.33 1629.29 512.071 1629.29H480.38V1629.29H445.888C438.629 1629.29 432.745 1635.17 432.745 1642.43C432.745 1649.69 438.629 1655.57 445.888 1655.57H600.975C608.155 1655.66 613.947 1661.51 613.947 1668.71C613.947 1675.97 608.063 1681.86 600.805 1681.86H480.38V1681.86H462.701C455.442 1681.86 449.558 1687.74 449.558 1695C449.558 1702.26 455.442 1708.14 462.701 1708.14H666.187C666.229 1708.14 666.271 1708.14 666.313 1708.14H670.857C678.116 1708.14 684 1714.03 684 1721.29C684 1728.54 678.116 1734.43 670.857 1734.43H469.173V1734.43H432.812C425.553 1734.43 419.669 1740.31 419.669 1747.57C419.669 1754.83 425.553 1760.71 432.812 1760.71H550.42C557.654 1760.74 563.51 1766.62 563.51 1773.86C563.51 1781.12 557.625 1787 550.367 1787H113.372C106.114 1787 100.229 1781.12 100.229 1773.86C100.229 1766.62 106.085 1760.74 113.319 1760.71H304.716C311.974 1760.71 317.858 1754.83 317.858 1747.57C317.858 1740.31 311.974 1734.43 304.716 1734.43H287.971V1734.43H221.72C214.461 1734.43 208.577 1728.54 208.577 1721.29C208.577 1714.07 214.393 1708.21 221.594 1708.14H335.54C342.798 1708.14 348.683 1702.26 348.683 1695C348.683 1687.74 342.798 1681.86 335.54 1681.86H288.903V1681.86H119.91C112.652 1681.86 106.768 1675.97 106.768 1668.71C106.768 1661.46 112.652 1655.57 119.91 1655.57H134.684C134.741 1655.57 134.798 1655.57 134.855 1655.57H376.636C383.895 1655.57 389.779 1649.69 389.779 1642.43C389.779 1635.17 383.895 1629.29 376.636 1629.29H288.903ZM122.713 1708.14L122.67 1708.14L122.587 1708.14H74.1429C66.8843 1708.14 61 1714.03 61 1721.29C61 1728.54 66.8843 1734.43 74.1429 1734.43H129.118C136.377 1734.43 142.261 1728.54 142.261 1721.29C142.261 1714.07 136.445 1708.21 129.244 1708.14H122.713Z" fill="black"/>
    <path fill-rule="evenodd" clip-rule="evenodd" d="M848.322 544.431V544.432H735.852C728.379 544.432 722.32 550.49 722.32 557.963C722.32 565.411 728.337 571.453 735.775 571.495H920.905C928.378 571.495 934.437 577.553 934.437 585.026C934.437 592.5 928.378 598.558 920.905 598.558H848.322H738.551C731.087 598.569 725.04 604.623 725.04 612.089C725.04 619.563 731.098 625.621 738.572 625.621H751.327H844.759C852.232 625.621 858.29 631.679 858.29 639.153C858.29 646.626 852.232 652.684 844.759 652.684H751.327H637.952H637.932C630.468 652.695 624.421 658.749 624.421 666.216C624.421 673.689 630.479 679.747 637.952 679.747H663.254C663.28 679.747 663.307 679.747 663.333 679.747H896.43C903.903 679.747 909.961 685.805 909.961 693.279C909.961 700.752 903.903 706.81 896.43 706.81H850.134V706.811H753.076C745.603 706.811 739.545 712.869 739.545 720.342C739.545 727.78 745.546 733.816 752.97 733.873H889.178C896.651 733.873 902.709 739.932 902.709 747.405C902.709 754.878 896.651 760.937 889.178 760.937H850.134H739.477C732.004 760.937 725.945 766.995 725.945 774.468C725.945 781.942 732.004 788 739.477 788H1147.52C1155 788 1161.06 781.942 1161.06 774.468C1161.06 766.995 1155 760.937 1147.52 760.937H1037.77H945.248C937.775 760.937 931.717 754.878 931.717 747.405C931.717 739.932 937.775 733.873 945.248 733.873H1161.23C1168.65 733.816 1174.65 727.78 1174.65 720.342C1174.65 712.869 1168.6 706.811 1161.12 706.811H1037.77V706.81H956.125C948.652 706.81 942.594 700.752 942.594 693.279C942.594 685.805 948.652 679.747 956.125 679.747H1189.22H1189.3H1314.32C1321.79 679.747 1327.85 673.689 1327.85 666.216C1327.85 658.749 1321.8 652.695 1314.34 652.684H1314.32H1234.48H1044.05C1036.58 652.684 1030.52 646.626 1030.52 639.153C1030.52 631.679 1036.58 625.621 1044.05 625.621H1234.48H1370.52C1377.99 625.621 1384.05 619.563 1384.05 612.089C1384.05 604.616 1377.99 598.558 1370.52 598.558H1234.48H1213.71H1213.7H1035.96H980.602C973.129 598.558 967.07 592.5 967.07 585.026C967.07 577.553 973.129 571.495 980.602 571.495H1143.98C1151.41 571.453 1157.43 565.411 1157.43 557.963C1157.43 550.49 1151.37 544.432 1143.9 544.432H1035.96V544.431H1001.45C993.977 544.431 987.919 538.373 987.919 530.9C987.919 523.427 993.977 517.368 1001.45 517.368H1078.72C1086.15 517.324 1092.16 511.283 1092.16 503.837C1092.16 496.364 1086.11 490.305 1078.63 490.305H1035.96H848.322H825.594C818.121 490.305 812.063 496.364 812.063 503.837C812.063 511.283 818.076 517.324 825.512 517.368H932.689C940.163 517.368 946.221 523.427 946.221 530.9C946.221 538.373 940.163 544.431 932.689 544.431H848.322ZM591.787 612.089C591.787 604.616 597.845 598.558 605.319 598.558H657.119C664.592 598.558 670.651 604.616 670.651 612.089C670.651 619.563 664.592 625.621 657.119 625.621H605.319C597.845 625.621 591.787 619.563 591.787 612.089Z" fill="#37DEAD"/>
    <path fill-rule="evenodd" clip-rule="evenodd" d="M1105 2819.65H1122.49C1129.93 2819.65 1135.96 2813.62 1135.96 2806.18C1135.96 2798.74 1129.93 2792.71 1122.49 2792.71H1105H944.82H910.304C902.867 2792.71 896.838 2798.74 896.838 2806.18C896.838 2813.62 902.867 2819.65 910.304 2819.65H944.82H972.37C979.8 2819.65 985.83 2825.68 985.83 2833.11C985.83 2840.55 979.8 2846.58 972.37 2846.58H854.476C847.09 2846.64 841.122 2852.64 841.122 2860.04C841.122 2867.48 847.15 2873.51 854.587 2873.51H944.82H990.16C997.6 2873.51 1003.63 2879.54 1003.63 2886.98C1003.63 2894.37 997.67 2900.37 990.29 2900.44H1044.82C1037.45 2900.37 1031.49 2894.37 1031.49 2886.98C1031.49 2879.54 1037.52 2873.51 1044.95 2873.51H1105H1199.1C1206.54 2873.51 1212.57 2867.48 1212.57 2860.04C1212.57 2852.64 1206.6 2846.64 1199.21 2846.58H1034.89C1027.46 2846.58 1021.43 2840.55 1021.43 2833.11C1021.43 2825.68 1027.46 2819.65 1034.89 2819.65H1105ZM1044.84 2900.44C1044.88 2900.44 1044.92 2900.44 1044.95 2900.44H1196.89C1204.28 2900.5 1210.25 2906.51 1210.25 2913.91C1210.25 2921.34 1204.22 2927.37 1196.78 2927.37H1187.81H1109.96C1102.52 2927.37 1096.49 2933.4 1096.49 2940.84C1096.49 2948.28 1102.52 2954.3 1109.96 2954.3H1282.87C1290.22 2954.41 1296.14 2960.4 1296.14 2967.77C1296.14 2975.21 1290.11 2981.23 1282.68 2981.23H1187.81V2981.24H1065.85C1065.81 2981.24 1065.78 2981.24 1065.75 2981.24H1011.16C1011.13 2981.24 1011.09 2981.24 1011.06 2981.24H815.898H815.845H815.797H775.346V2981.23H709.105C701.668 2981.23 695.639 2975.21 695.639 2967.77C695.639 2960.4 701.561 2954.41 708.906 2954.3H935.99C943.43 2954.3 949.46 2948.28 949.46 2940.84C949.46 2933.4 943.43 2927.37 935.99 2927.37H775.346H661.127C653.69 2927.37 647.661 2921.34 647.661 2913.91C647.661 2906.47 653.69 2900.44 661.127 2900.44H775.346H794.891H794.959H795.002H990.16H990.23H990.27H1044.84ZM1134.11 3008.17H1065.85C1058.41 3008.17 1052.38 3002.14 1052.38 2994.7C1052.38 2987.3 1058.35 2981.3 1065.73 2981.24H1011.18C1018.56 2981.3 1024.53 2987.3 1024.53 2994.7C1024.53 3002.14 1018.5 3008.17 1011.06 3008.17H923.64C917.518 3009.46 912.927 3014.89 912.927 3021.39C912.927 3028.86 918.98 3034.92 926.45 3034.92H943.27V3035.1H1020.34C1027.78 3035.1 1033.81 3041.13 1033.81 3048.56C1033.81 3056 1027.78 3062.03 1020.34 3062.03H925.04C918.233 3062.74 912.927 3068.49 912.927 3075.48C912.927 3082.95 918.98 3089 926.45 3089H1159.4C1166.87 3089 1172.92 3082.95 1172.92 3075.48C1172.92 3068.49 1167.62 3062.74 1160.81 3062.03H1072.04C1064.6 3062.03 1058.57 3056 1058.57 3048.56C1058.57 3041.13 1064.6 3035.1 1072.04 3035.1H1103.45V3034.92H1131.29C1138.76 3034.92 1144.81 3028.86 1144.81 3021.39C1144.81 3014.89 1140.22 3009.46 1134.11 3008.17ZM1324 2913.91C1324 2906.47 1317.97 2900.44 1310.53 2900.44H1270.14C1262.7 2900.44 1256.68 2906.47 1256.68 2913.91C1256.68 2921.34 1262.7 2927.37 1270.14 2927.37H1310.53C1317.97 2927.37 1324 2921.34 1324 2913.91Z" fill="#37DEAD"/>
    <path fill-rule="evenodd" clip-rule="evenodd" d="M188.431 3841.63H220.314H255.234H341.269H351.897C359.164 3841.63 365.055 3835.74 365.055 3828.47C365.055 3821.21 359.164 3815.32 351.897 3815.32H341.269H297.745C290.478 3815.32 284.587 3809.43 284.587 3802.16C284.587 3794.89 290.478 3789 297.745 3789H341.269H409.084H449.065C456.332 3789 462.223 3794.89 462.223 3802.16C462.223 3809.43 456.332 3815.32 449.065 3815.32H409.084H402.505C395.238 3815.32 389.347 3821.21 389.347 3828.47C389.347 3835.74 395.238 3841.63 402.505 3841.63H409.084H528.52H596.842C604.109 3841.63 610 3847.52 610 3854.79C610 3862.06 604.109 3867.95 596.842 3867.95H528.52H443.498C436.231 3867.95 430.34 3873.84 430.34 3881.11C430.34 3888.37 436.231 3894.27 443.498 3894.27H528.52H561.922C569.189 3894.27 575.08 3900.16 575.08 3907.42C575.08 3914.69 569.189 3920.58 561.922 3920.58H528.52H417.688H371.634C364.367 3920.58 358.476 3926.47 358.476 3933.74C358.476 3941.01 364.367 3946.9 371.634 3946.9H417.688H421.23H421.25C428.508 3946.91 434.388 3952.8 434.388 3960.06C434.388 3967.32 428.497 3973.21 421.23 3973.21L417.688 3973.22L307.867 3973.21L305.337 3973.22V3972.97C299.28 3971.79 294.709 3966.46 294.709 3960.06C294.709 3953.66 299.28 3948.32 305.337 3947.14V3946.9H327.604C334.872 3946.9 340.763 3941.01 340.763 3933.74C340.763 3926.47 334.872 3920.58 327.604 3920.58H305.337H255.234H150.981H124.158C116.891 3920.58 111 3914.69 111 3907.42C111 3900.16 116.891 3894.27 124.158 3894.27H164.959H255.234H377.007C384.274 3894.27 390.165 3888.37 390.165 3881.11C390.165 3873.84 384.274 3867.95 377.007 3867.95H255.234H188.431C181.164 3867.95 175.273 3862.06 175.273 3854.79C175.273 3847.52 181.164 3841.63 188.431 3841.63ZM124.158 3841.63C116.891 3841.63 111 3847.52 111 3854.79C111 3862.06 116.891 3867.95 124.158 3867.95H132.201C139.468 3867.95 145.359 3862.06 145.359 3854.79C145.359 3847.52 139.468 3841.63 132.201 3841.63H124.158Z" fill="#37DEAD"/>
    <path fill-rule="evenodd" clip-rule="evenodd" d="M277.903 1618.29V1618.29H240.609C233.35 1618.29 227.466 1612.4 227.466 1605.14C227.466 1597.88 233.35 1592 240.609 1592H277.903H469.38H501.071C508.33 1592 514.214 1597.88 514.214 1605.14C514.214 1612.4 508.33 1618.29 501.071 1618.29H469.38V1618.29H434.888C427.629 1618.29 421.745 1624.17 421.745 1631.43C421.745 1638.69 427.629 1644.57 434.888 1644.57H589.975C597.155 1644.66 602.947 1650.51 602.947 1657.71C602.947 1664.97 597.063 1670.86 589.805 1670.86H469.38V1670.86H451.701C444.442 1670.86 438.558 1676.74 438.558 1684C438.558 1691.26 444.442 1697.14 451.701 1697.14H655.187C655.229 1697.14 655.271 1697.14 655.313 1697.14H659.857C667.116 1697.14 673 1703.03 673 1710.29C673 1717.54 667.116 1723.43 659.857 1723.43H458.173V1723.43H421.812C414.553 1723.43 408.669 1729.31 408.669 1736.57C408.669 1743.83 414.553 1749.71 421.812 1749.71H539.42C546.654 1749.74 552.51 1755.62 552.51 1762.86C552.51 1770.12 546.625 1776 539.367 1776H102.372C95.1138 1776 89.2295 1770.12 89.2295 1762.86C89.2295 1755.62 95.0848 1749.74 102.319 1749.71H293.716C300.974 1749.71 306.858 1743.83 306.858 1736.57C306.858 1729.31 300.974 1723.43 293.716 1723.43H276.971V1723.43H210.72C203.461 1723.43 197.577 1717.54 197.577 1710.29C197.577 1703.07 203.393 1697.21 210.594 1697.14H324.54C331.798 1697.14 337.683 1691.26 337.683 1684C337.683 1676.74 331.798 1670.86 324.54 1670.86H277.903V1670.86H108.91C101.652 1670.86 95.7676 1664.97 95.7676 1657.71C95.7676 1650.46 101.652 1644.57 108.91 1644.57H123.684C123.741 1644.57 123.798 1644.57 123.855 1644.57H365.636C372.895 1644.57 378.779 1638.69 378.779 1631.43C378.779 1624.17 372.895 1618.29 365.636 1618.29H277.903ZM111.713 1697.14L111.67 1697.14L111.587 1697.14H63.1429C55.8843 1697.14 50 1703.03 50 1710.29C50 1717.54 55.8843 1723.43 63.1429 1723.43H118.118C125.377 1723.43 131.261 1717.54 131.261 1710.29C131.261 1703.07 125.445 1697.21 118.244 1697.14H111.713Z" fill="#37DEAD"/>
    </g>
    </svg>
    