<svg width="1440" height="4224" viewBox="0 0 1440 4224" fill="none" xmlns="http://www.w3.org/2000/svg">
    <g filter="url(#filter0_d)">
    <path fill-rule="evenodd" clip-rule="evenodd" d="M338.058 2246H536.758H553.541H578.796C587.295 2246 594.185 2252.89 594.185 2261.39C594.185 2269.86 587.333 2276.74 578.865 2276.78H473.678C465.179 2276.78 458.289 2283.67 458.289 2292.17C458.289 2300.67 465.179 2307.56 473.678 2307.56H553.541V2307.56H611.394C619.893 2307.56 626.783 2314.45 626.783 2322.94C626.783 2331.42 619.93 2338.3 611.463 2338.33H508.817C500.318 2338.33 493.428 2345.22 493.428 2353.72C493.428 2362.22 500.318 2369.11 508.817 2369.11H651.681C660.148 2369.15 667.001 2376.02 667.001 2384.5C667.001 2392.94 660.213 2399.79 651.8 2399.89H468.599C460.1 2399.89 453.21 2406.78 453.21 2415.28C453.21 2423.78 460.1 2430.67 468.599 2430.67H553.541V2430.67H607.161C615.66 2430.67 622.549 2437.56 622.549 2446.06C622.549 2454.49 615.761 2461.34 607.349 2461.44H498.234C489.735 2461.44 482.845 2468.33 482.845 2476.83C482.845 2485.33 489.735 2492.22 498.234 2492.22H553.541V2492.22H597.424C605.923 2492.22 612.812 2499.11 612.812 2507.61C612.812 2516.11 605.923 2523 597.424 2523H536.758L536.704 2523C536.67 2523 536.635 2523 536.601 2523H356.697C356.645 2523 356.592 2523 356.539 2523H233.642C225.143 2523 218.254 2516.11 218.254 2507.61C218.254 2499.11 225.143 2492.22 233.642 2492.22H338.058V2492.22H420.463C428.962 2492.22 435.852 2485.33 435.852 2476.83C435.852 2468.33 428.962 2461.44 420.463 2461.44H292.298C283.886 2461.34 277.098 2454.49 277.098 2446.06C277.098 2437.56 283.987 2430.67 292.486 2430.67H338.058V2430.67H370.931C379.43 2430.67 386.32 2423.78 386.32 2415.28C386.32 2406.78 379.43 2399.89 370.931 2399.89H271.742L271.671 2399.89C271.631 2399.89 271.592 2399.89 271.553 2399.89H195.118C186.619 2399.89 179.729 2393 179.729 2384.5C179.729 2376 186.619 2369.11 195.118 2369.11H271.673L271.742 2369.11H428.93C437.429 2369.11 444.319 2362.22 444.319 2353.72C444.319 2345.22 437.429 2338.33 428.93 2338.33H285.218C276.751 2338.3 269.899 2331.42 269.899 2322.94C269.899 2314.45 276.788 2307.56 285.287 2307.56H338.058V2307.56H362.465C370.964 2307.56 377.853 2300.67 377.853 2292.17C377.853 2283.67 370.964 2276.78 362.465 2276.78H271.742C271.705 2276.78 271.668 2276.78 271.631 2276.78H138.388C129.889 2276.78 122.999 2269.89 122.999 2261.39C122.999 2252.89 129.889 2246 138.388 2246H338.058V2246Z" fill="#37DEAD" fill-opacity="0.3" shape-rendering="crispEdges"/>
    </g>
    <g filter="url(#filter1_d)">
    <path fill-rule="evenodd" clip-rule="evenodd" d="M220.309 479C212.313 479 205.832 485.481 205.832 493.477C205.832 501.436 212.255 507.895 220.201 507.953H331.93C339.925 507.953 346.406 514.434 346.406 522.43C346.406 530.425 339.925 536.906 331.93 536.906H290.687V536.907H217.19C209.195 536.907 202.713 543.388 202.713 551.384C202.713 559.343 209.137 565.802 217.083 565.86H424.662C432.657 565.86 439.138 572.341 439.138 580.337C439.138 588.332 432.657 594.813 424.662 594.813H290.687V594.814H146.478C138.482 594.814 132.001 601.295 132.001 609.29C132.001 617.286 138.482 623.767 146.478 623.767H175.879C175.915 623.767 175.951 623.767 175.987 623.767H370.309C378.304 623.767 384.786 630.248 384.786 638.243C384.786 646.239 378.304 652.72 370.309 652.72H208.728C200.783 652.779 194.362 659.238 194.362 667.196C194.362 675.192 200.843 681.673 208.838 681.673H290.687V681.673H591.356V681.673H666.525C674.52 681.673 681.001 675.192 681.001 667.196C681.001 659.238 674.58 652.779 666.635 652.72H418.75C410.755 652.72 404.273 646.239 404.273 638.243C404.273 630.248 410.755 623.767 418.75 623.767H600.194C608.14 623.708 614.563 617.25 614.563 609.29C614.563 601.295 608.081 594.814 600.086 594.814H591.356V594.813H522.132C514.136 594.813 507.655 588.332 507.655 580.337C507.655 572.341 514.136 565.86 522.132 565.86H631.554C639.5 565.802 645.923 559.343 645.923 551.384C645.923 543.388 639.442 536.907 631.446 536.907H591.356V536.906H473.106C465.111 536.906 458.629 530.425 458.629 522.43C458.629 514.434 465.111 507.953 473.106 507.953H613.188C621.134 507.895 627.557 501.436 627.557 493.477C627.557 485.481 621.076 479 613.08 479H591.356H561.115H323.661H290.687H220.309ZM146.478 536.907C138.482 536.907 132.001 543.388 132.001 551.384C132.001 559.379 138.482 565.86 146.478 565.86H155.326C163.321 565.86 169.803 559.379 169.803 551.384C169.803 543.388 163.321 536.907 155.326 536.907H146.478Z" fill="#37DEAD" fill-opacity="0.3" shape-rendering="crispEdges"/>
    </g>
    <g filter="url(#filter2_d)">
    <path fill-rule="evenodd" clip-rule="evenodd" d="M896.305 1428C886.576 1428 878.689 1435.89 878.689 1445.62C878.689 1455.34 886.576 1463.23 896.305 1463.23H976.253L1022.32 1463.23C1032.05 1463.23 1039.94 1471.12 1039.94 1480.85C1039.94 1490.58 1032.05 1498.46 1022.32 1498.46L976.253 1498.46H823.131C813.402 1498.46 805.515 1506.35 805.515 1516.08C805.515 1525.81 813.402 1533.69 823.131 1533.69H862.928C862.988 1533.69 863.047 1533.69 863.107 1533.69H1128.7C1138.42 1533.69 1146.31 1541.58 1146.31 1551.31C1146.31 1561.04 1138.42 1568.92 1128.7 1568.92L976.253 1568.92H811.614C801.885 1568.92 793.998 1576.81 793.998 1586.54C793.998 1596.27 801.885 1604.16 811.614 1604.16H976.253V1604.16H1321.11V1604.16H1329.92C1339.65 1604.16 1347.54 1596.27 1347.54 1586.54C1347.54 1576.81 1339.65 1568.92 1329.92 1568.92H1321.11L1242.52 1568.92C1232.79 1568.92 1224.9 1561.04 1224.9 1551.31C1224.9 1541.58 1232.79 1533.69 1242.52 1533.69H1351.78C1361.43 1533.6 1369.22 1525.75 1369.22 1516.08C1369.22 1506.35 1361.33 1498.46 1351.6 1498.46H1321.11L1186.28 1498.46C1176.56 1498.46 1168.67 1490.58 1168.67 1480.85C1168.67 1471.12 1176.56 1463.23 1186.28 1463.23L1321.11 1463.23H1344.83C1354.55 1463.23 1362.44 1455.34 1362.44 1445.62C1362.44 1435.89 1354.55 1428 1344.83 1428H1321.11H1287.24H1012.84H976.253H896.305ZM1392.25 1568.92C1382.52 1568.92 1374.63 1576.81 1374.63 1586.54C1374.63 1596.27 1382.52 1604.16 1392.25 1604.16H1400.38C1410.11 1604.16 1418 1596.27 1418 1586.54C1418 1576.81 1410.11 1568.92 1400.38 1568.92H1392.25Z" fill="#37DEAD" fill-opacity="0.3" shape-rendering="crispEdges"/>
    </g>
    <g filter="url(#filter3_d)">
    <path fill-rule="evenodd" clip-rule="evenodd" d="M1258.45 3854C1269.63 3854 1278.7 3863.07 1278.7 3874.25C1278.7 3885.44 1269.63 3894.51 1258.45 3894.51H1185.05V3894.51H1133.57C1122.39 3894.51 1113.32 3903.57 1113.32 3914.76C1113.32 3925.95 1122.39 3935.01 1133.57 3935.01H1279.73C1279.78 3935.01 1279.84 3935.01 1279.89 3935.01H1328.69C1339.88 3935.01 1348.95 3944.08 1348.95 3955.27C1348.95 3966.45 1339.88 3975.52 1328.69 3975.52H1185.05V3975.52H1031.46C1020.28 3975.52 1011.21 3984.59 1011.21 3995.77C1011.21 4006.96 1020.28 4016.03 1031.46 4016.03H1279.73C1279.78 4016.03 1279.84 4016.03 1279.9 4016.03H1339.75C1350.93 4016.03 1360 4025.09 1360 4036.28C1360 4047.47 1350.93 4056.53 1339.75 4056.53H1185.05V4056.53H883.247L883.179 4056.53L883.117 4056.54H848.699C837.55 4056.54 828.512 4047.5 828.512 4036.35C828.512 4025.2 837.55 4016.16 848.699 4016.16H854.004V4016.03H915.515C926.701 4016.03 935.769 4006.96 935.769 3995.77C935.769 3984.59 926.701 3975.52 915.515 3975.52H854.004V3975.52H828.081C816.895 3975.52 807.827 3966.45 807.827 3955.27C807.827 3944.14 816.804 3935.1 827.912 3935.01H969.497C980.683 3935.01 989.751 3925.95 989.751 3914.76C989.751 3903.57 980.683 3894.51 969.497 3894.51H854.004V3894.51H834.584C823.399 3894.51 814.331 3885.44 814.331 3874.25C814.331 3863.07 823.399 3854 834.584 3854H854.004H883.179H1153.27H1185.05H1258.45ZM802.624 4036.28C802.624 4025.15 793.648 4016.12 782.541 4016.03H781.083C769.975 4016.12 760.999 4025.15 760.999 4036.28C760.999 4047.47 770.067 4056.53 781.253 4056.53H782.37C793.556 4056.53 802.624 4047.47 802.624 4036.28Z" fill="#37DEAD" fill-opacity="0.3" shape-rendering="crispEdges"/>
    </g>
    <g filter="url(#filter4_d)">
    <path fill-rule="evenodd" clip-rule="evenodd" d="M211 3255C211 3246.16 218.163 3239 227 3239H248.538C257.375 3239 264.538 3246.16 264.538 3255C264.538 3263.8 257.433 3270.94 248.646 3271H231.309C231.273 3271 231.237 3271 231.201 3271H227C218.163 3271 211 3263.84 211 3255ZM319.307 3303V3303H249.155C240.318 3303 233.155 3310.16 233.155 3319C233.155 3327.84 240.318 3335 249.155 3335H367.308L367.355 3335H616.491L616.538 3335H674.999C683.836 3335 690.999 3327.84 690.999 3319C690.999 3310.16 683.836 3303 674.999 3303H647.306V3303H524.844C516.008 3303 508.844 3295.84 508.844 3287C508.844 3278.16 516.008 3271 524.844 3271H776.646C785.432 3270.94 792.538 3263.8 792.538 3255C792.538 3246.16 785.374 3239 776.538 3239H647.306H616.538H367.307H319.307H310.692C301.856 3239 294.692 3246.16 294.692 3255C294.692 3263.8 301.797 3270.94 310.584 3271H375.924C384.76 3271 391.924 3278.16 391.924 3287C391.924 3295.84 384.76 3303 375.924 3303H319.307Z" fill="#37DEAD" fill-opacity="0.3" shape-rendering="crispEdges"/>
    </g>
    <defs>
    <filter id="filter0_d" x="122.999" y="2246" width="550.002" height="291" filterUnits="userSpaceOnUse" color-interpolation-filters="sRGB">
    <feFlood flood-opacity="0" result="BackgroundImageFix"/>
    <feColorMatrix in="SourceAlpha" type="matrix" values="0 0 0 0 0 0 0 0 0 0 0 0 0 0 0 0 0 0 127 0" result="hardAlpha"/>
    <feOffset dx="6" dy="14"/>
    <feComposite in2="hardAlpha" operator="out"/>
    <feColorMatrix type="matrix" values="0 0 0 0 0 0 0 0 0 0 0 0 0 0 0 0 0 0 0.05 0"/>
    <feBlend mode="normal" in2="BackgroundImageFix" result="effect1_dropShadow"/>
    <feBlend mode="normal" in="SourceGraphic" in2="effect1_dropShadow" result="shape"/>
    </filter>
    <filter id="filter1_d" x="132.001" y="479" width="555" height="216.673" filterUnits="userSpaceOnUse" color-interpolation-filters="sRGB">
    <feFlood flood-opacity="0" result="BackgroundImageFix"/>
    <feColorMatrix in="SourceAlpha" type="matrix" values="0 0 0 0 0 0 0 0 0 0 0 0 0 0 0 0 0 0 127 0" result="hardAlpha"/>
    <feOffset dx="6" dy="14"/>
    <feComposite in2="hardAlpha" operator="out"/>
    <feColorMatrix type="matrix" values="0 0 0 0 0 0 0 0 0 0 0 0 0 0 0 0 0 0 0.05 0"/>
    <feBlend mode="normal" in2="BackgroundImageFix" result="effect1_dropShadow"/>
    <feBlend mode="normal" in="SourceGraphic" in2="effect1_dropShadow" result="shape"/>
    </filter>
    <filter id="filter2_d" x="793.998" y="1428" width="629.998" height="190.156" filterUnits="userSpaceOnUse" color-interpolation-filters="sRGB">
    <feFlood flood-opacity="0" result="BackgroundImageFix"/>
    <feColorMatrix in="SourceAlpha" type="matrix" values="0 0 0 0 0 0 0 0 0 0 0 0 0 0 0 0 0 0 127 0" result="hardAlpha"/>
    <feOffset dx="6" dy="14"/>
    <feComposite in2="hardAlpha" operator="out"/>
    <feColorMatrix type="matrix" values="0 0 0 0 0 0 0 0 0 0 0 0 0 0 0 0 0 0 0.05 0"/>
    <feBlend mode="normal" in2="BackgroundImageFix" result="effect1_dropShadow"/>
    <feBlend mode="normal" in="SourceGraphic" in2="effect1_dropShadow" result="shape"/>
    </filter>
    <filter id="filter3_d" x="760.999" y="3854" width="605.001" height="216.535" filterUnits="userSpaceOnUse" color-interpolation-filters="sRGB">
    <feFlood flood-opacity="0" result="BackgroundImageFix"/>
    <feColorMatrix in="SourceAlpha" type="matrix" values="0 0 0 0 0 0 0 0 0 0 0 0 0 0 0 0 0 0 127 0" result="hardAlpha"/>
    <feOffset dx="6" dy="14"/>
    <feComposite in2="hardAlpha" operator="out"/>
    <feColorMatrix type="matrix" values="0 0 0 0 0 0 0 0 0 0 0 0 0 0 0 0 0 0 0.05 0"/>
    <feBlend mode="normal" in2="BackgroundImageFix" result="effect1_dropShadow"/>
    <feBlend mode="normal" in="SourceGraphic" in2="effect1_dropShadow" result="shape"/>
    </filter>
    <filter id="filter4_d" x="211" y="3239" width="591.019" height="118.124" filterUnits="userSpaceOnUse" color-interpolation-filters="sRGB">
    <feFlood flood-opacity="0" result="BackgroundImageFix"/>
    <feColorMatrix in="SourceAlpha" type="matrix" values="0 0 0 0 0 0 0 0 0 0 0 0 0 0 0 0 0 0 127 0" result="hardAlpha"/>
    <feOffset dx="9.48158" dy="22.1237"/>
    <feComposite in2="hardAlpha" operator="out"/>
    <feColorMatrix type="matrix" values="0 0 0 0 0 0 0 0 0 0 0 0 0 0 0 0 0 0 0.05 0"/>
    <feBlend mode="normal" in2="BackgroundImageFix" result="effect1_dropShadow"/>
    <feBlend mode="normal" in="SourceGraphic" in2="effect1_dropShadow" result="shape"/>
    </filter>
    </defs>
    </svg>
    