<svg width="1240" height="900" viewBox="0 0 1240 900" fill="none" xmlns="http://www.w3.org/2000/svg">
<g opacity="0.19">
<path fill-rule="evenodd" clip-rule="evenodd" d="M391.605 7H12.3379V907H391.605H588.126H779.255C785.972 907 791.417 901.555 791.417 894.838C791.417 888.121 785.972 882.676 779.255 882.676L779.254 882.676L588.126 882.676L159.105 882.676C152.388 882.676 146.943 877.23 146.943 870.513C146.943 863.797 152.388 858.351 159.105 858.351H588.126H779.254H991.36C998.077 858.351 1003.52 852.906 1003.52 846.189C1003.52 839.472 998.077 834.027 991.36 834.027H779.294L779.255 834.027L588.126 834.027L326.343 834.027C319.626 834.027 314.18 828.582 314.18 821.865C314.18 815.148 319.626 809.703 326.343 809.703L588.126 809.703H779.255C785.972 809.703 791.417 804.258 791.417 797.541C791.417 790.832 785.986 785.393 779.281 785.378L779.254 785.378L588.126 785.378L232.526 785.378C225.809 785.378 220.364 779.933 220.364 773.216C220.364 766.499 225.809 761.054 232.526 761.054L588.126 761.054H644.65C651.366 761.054 656.812 755.609 656.812 748.892C656.812 742.188 651.387 736.751 644.688 736.73L644.65 736.73H588.126L465.026 736.73C458.309 736.73 452.864 731.285 452.864 724.568C452.864 717.851 458.309 712.405 465.026 712.405L588.126 712.405L779.254 712.405L779.255 712.405C785.972 712.405 791.417 706.96 791.417 700.243C791.417 693.535 785.986 688.096 779.282 688.081L779.255 688.081L779.255 688.081H588.126L171.343 688.081C164.626 688.081 159.181 682.636 159.181 675.919C159.181 669.202 164.626 663.757 171.343 663.757L588.126 663.757L779.255 663.757L1044.39 663.757C1051.1 663.757 1056.55 658.312 1056.55 651.595C1056.55 644.878 1051.1 639.432 1044.39 639.432H779.294L779.255 639.432L588.126 639.432L326.343 639.432C319.626 639.432 314.18 633.987 314.18 627.27C314.18 620.553 319.626 615.108 326.343 615.108L588.126 615.108H779.255C785.972 615.108 791.417 609.663 791.417 602.946C791.417 596.229 785.972 590.784 779.255 590.784H588.126H497.658C490.941 590.784 485.495 585.339 485.495 578.622C485.495 571.905 490.941 566.459 497.658 566.459H588.126H779.254H1170.83C1177.55 566.459 1183 561.014 1183 554.297C1183 547.58 1177.55 542.135 1170.83 542.135H779.255H588.126H220.29C213.573 542.135 208.128 536.69 208.128 529.973C208.128 523.256 213.573 517.811 220.29 517.811H588.126H779.255H917.939C924.656 517.811 930.101 512.366 930.101 505.649C930.101 498.932 924.656 493.486 917.939 493.486L779.254 493.486L588.126 493.486L285.552 493.486C278.835 493.486 273.39 488.041 273.39 481.324C273.39 474.607 278.835 469.162 285.552 469.162L588.126 469.162H636.492L636.519 469.162C643.223 469.147 648.654 463.708 648.654 457C648.654 450.283 643.209 444.838 636.492 444.838H588.126L195.817 444.838C189.1 444.838 183.654 439.393 183.654 432.676C183.654 425.959 189.1 420.513 195.817 420.513L588.126 420.514L779.255 420.513L779.283 420.514H1052.54C1059.26 420.514 1064.71 415.068 1064.71 408.351C1064.71 401.634 1059.26 396.189 1052.54 396.189H779.255H588.126H301.869C295.152 396.189 289.707 390.744 289.707 384.027C289.707 377.31 295.152 371.865 301.869 371.865L588.126 371.865L779.255 371.865L1170.83 371.865C1177.55 371.865 1183 366.42 1183 359.703C1183 352.986 1177.55 347.541 1170.83 347.541H779.255H588.126H179.5C172.783 347.541 167.338 342.095 167.338 335.378C167.338 328.661 172.783 323.216 179.5 323.216H588.126H779.255H995.439C1002.16 323.216 1007.6 317.771 1007.6 311.054C1007.6 304.337 1002.16 298.892 995.439 298.892H779.281L779.254 298.892L588.126 298.892L526.21 298.892C519.493 298.892 514.047 293.447 514.047 286.73C514.047 280.013 519.493 274.568 526.21 274.568H588.126H644.649C651.366 274.568 656.812 269.122 656.812 262.405C656.812 255.688 651.366 250.243 644.649 250.243H588.126L473.183 250.243C466.466 250.243 461.021 244.798 461.021 238.081C461.021 231.364 466.466 225.919 473.183 225.919H779.254L779.288 225.919H1072.94C1079.66 225.919 1085.1 220.474 1085.1 213.757C1085.1 207.04 1079.66 201.595 1072.94 201.595L779.255 201.595L588.126 201.595L228.447 201.595C221.73 201.595 216.285 196.149 216.285 189.432C216.285 182.715 221.73 177.27 228.447 177.27H588.126H779.255H885.308C892.025 177.27 897.47 171.825 897.47 165.108C897.47 158.391 892.025 152.946 885.308 152.946L779.255 152.946L588.126 152.946L126.474 152.946C119.757 152.946 114.312 147.501 114.312 140.784C114.312 134.067 119.757 128.622 126.474 128.622H779.255L779.283 128.622H1097.41C1104.13 128.622 1109.57 123.176 1109.57 116.459C1109.57 109.742 1104.13 104.297 1097.41 104.297H588.126L310.026 104.297C303.309 104.297 297.864 98.8521 297.864 92.1351C297.864 85.4181 303.309 79.973 310.026 79.973H636.522C643.225 79.9564 648.654 74.5175 648.654 67.8108C648.654 61.0939 643.209 55.6487 636.492 55.6487H588.126L391.605 55.6487C384.888 55.6487 379.443 50.2035 379.443 43.4865C379.443 36.7695 384.888 31.3243 391.605 31.3243L588.126 31.3243H962.807C969.524 31.3243 974.97 25.8791 974.97 19.1622C974.97 12.4452 969.524 7 962.807 7H588.126H391.605ZM754.604 469.162L754.631 469.162L779.254 469.162L779.282 469.162H860.833C867.55 469.162 872.995 463.717 872.995 457C872.995 450.283 867.55 444.838 860.833 444.838L779.255 444.838L754.631 444.838C747.915 444.838 742.469 450.283 742.469 457C742.469 463.708 747.9 469.147 754.604 469.162ZM909.706 603.847C909.706 597.13 915.151 591.685 921.868 591.685H1117.81C1124.52 591.685 1129.97 597.13 1129.97 603.847C1129.97 610.564 1124.52 616.009 1117.81 616.009H921.868C915.151 616.009 909.706 610.564 909.706 603.847ZM799.501 55.6487C792.784 55.6487 787.339 61.0939 787.339 67.8108C787.339 74.5278 792.784 79.973 799.501 79.973H930.177C936.894 79.973 942.339 74.5278 942.339 67.8108C942.339 61.0939 936.894 55.6487 930.177 55.6487H799.501ZM779.18 262.405C779.18 255.688 784.625 250.243 791.342 250.243H901.623C908.34 250.243 913.785 255.688 913.785 262.405C913.785 269.122 908.34 274.568 901.623 274.568H791.342C784.625 274.568 779.18 269.122 779.18 262.405ZM799.575 748.892C799.575 742.175 805.02 736.73 811.737 736.73H938.334C945.051 736.73 950.496 742.175 950.496 748.892C950.496 755.609 945.051 761.054 938.334 761.054H811.737C805.02 761.054 799.575 755.609 799.575 748.892Z" fill="black" fill-opacity="0.21"/>
<path fill-rule="evenodd" clip-rule="evenodd" d="M379.267 0H0V900H379.267H575.788H766.916C773.633 900 779.078 894.555 779.078 887.838C779.078 881.121 773.633 875.676 766.916 875.676H575.788L146.767 875.676C140.05 875.676 134.605 870.23 134.605 863.513C134.605 856.797 140.05 851.351 146.767 851.351H575.788H766.916H979.021C985.738 851.351 991.184 845.906 991.184 839.189C991.184 832.472 985.738 827.027 979.021 827.027H766.956L766.917 827.027L575.788 827.027L314.005 827.027C307.288 827.027 301.842 821.582 301.842 814.865C301.842 808.148 307.288 802.703 314.005 802.703L575.788 802.703H766.916C773.633 802.703 779.078 797.258 779.078 790.541C779.078 783.833 773.648 778.393 766.943 778.378H766.916H575.788L220.188 778.378C213.471 778.378 208.026 772.933 208.026 766.216C208.026 759.499 213.471 754.054 220.188 754.054L575.788 754.054H632.311C639.028 754.054 644.473 748.609 644.473 741.892C644.473 735.188 639.049 729.751 632.35 729.73L632.311 729.73H575.788L452.688 729.73C445.971 729.73 440.526 724.285 440.526 717.568C440.526 710.851 445.971 705.405 452.688 705.405L575.788 705.405H766.916C773.633 705.405 779.078 699.96 779.078 693.243C779.078 686.535 773.648 681.096 766.944 681.081L766.918 681.081L766.916 681.081H575.788L159.005 681.081C152.288 681.081 146.843 675.636 146.843 668.919C146.843 662.202 152.288 656.757 159.005 656.757L575.788 656.757L766.918 656.757L1032.05 656.757C1038.77 656.757 1044.21 651.312 1044.21 644.595C1044.21 637.878 1038.77 632.432 1032.05 632.432H766.956L766.917 632.432L575.788 632.432L314.005 632.432C307.288 632.432 301.842 626.987 301.842 620.27C301.842 613.553 307.288 608.108 314.005 608.108L575.788 608.108H766.916C773.633 608.108 779.078 602.663 779.078 595.946C779.078 589.229 773.633 583.784 766.916 583.784H575.788H485.32C478.603 583.784 473.158 578.339 473.158 571.622C473.158 564.905 478.603 559.459 485.32 559.459H575.788H766.916H1158.5C1165.21 559.459 1170.66 554.014 1170.66 547.297C1170.66 540.58 1165.21 535.135 1158.5 535.135H766.918H575.788H207.953C201.236 535.135 195.791 529.69 195.791 522.973C195.791 516.256 201.236 510.811 207.953 510.811L575.788 510.811L766.918 510.811L766.946 510.811H905.6C912.317 510.811 917.762 505.366 917.762 498.649C917.762 491.932 912.317 486.486 905.6 486.486L766.917 486.486L575.788 486.486L273.215 486.486C266.498 486.486 261.053 481.041 261.053 474.324C261.053 467.607 266.498 462.162 273.215 462.162L575.788 462.162H624.153L624.181 462.162C630.885 462.147 636.315 456.708 636.315 450C636.315 443.283 630.87 437.838 624.153 437.838H575.788L183.479 437.838C176.762 437.838 171.317 432.393 171.317 425.676C171.317 418.959 176.762 413.513 183.479 413.513L575.788 413.514L766.918 413.513L766.945 413.514H1040.21C1046.92 413.514 1052.37 408.068 1052.37 401.351C1052.37 394.634 1046.92 389.189 1040.21 389.189H766.917H575.788H289.531C282.814 389.189 277.369 383.744 277.369 377.027C277.369 370.31 282.814 364.865 289.531 364.865L575.788 364.865L766.917 364.865L1158.5 364.865C1165.21 364.865 1170.66 359.42 1170.66 352.703C1170.66 345.986 1165.21 340.541 1158.5 340.541H766.917H575.788H167.162C160.445 340.541 155 335.095 155 328.378C155 321.661 160.445 316.216 167.162 316.216H575.788H766.917H983.1C989.817 316.216 995.262 310.771 995.262 304.054C995.262 297.337 989.817 291.892 983.1 291.892H766.943L766.916 291.892L575.788 291.892L513.871 291.892C507.155 291.892 501.709 286.447 501.709 279.73C501.709 273.013 507.154 267.568 513.871 267.568H575.788H632.311C639.028 267.568 644.473 262.122 644.473 255.405C644.473 248.688 639.028 243.243 632.311 243.243H575.788L460.846 243.243C454.129 243.243 448.683 237.798 448.683 231.081C448.683 224.364 454.129 218.919 460.846 218.919H766.916L766.95 218.919H1060.6C1067.32 218.919 1072.76 213.474 1072.76 206.757C1072.76 200.04 1067.32 194.595 1060.6 194.595L766.917 194.595L575.788 194.595L216.109 194.595C209.392 194.595 203.947 189.149 203.947 182.432C203.947 175.715 209.392 170.27 216.109 170.27H575.788H766.917H872.969C879.686 170.27 885.131 164.825 885.131 158.108C885.131 151.391 879.686 145.946 872.969 145.946L766.917 145.946L575.788 145.946L114.136 145.946C107.419 145.946 101.974 140.501 101.974 133.784C101.974 127.067 107.419 121.622 114.136 121.622H766.917L766.948 121.622H1085.07C1091.79 121.622 1097.24 116.176 1097.24 109.459C1097.24 102.742 1091.79 97.2973 1085.07 97.2973H575.788L297.688 97.2973C290.971 97.2973 285.526 91.8521 285.526 85.1351C285.526 78.4181 290.971 72.973 297.688 72.973H624.184C630.887 72.9564 636.315 67.5175 636.315 60.8108C636.315 54.0939 630.87 48.6487 624.153 48.6487H575.788L379.267 48.6487C372.55 48.6487 367.105 43.2035 367.105 36.4865C367.105 29.7695 372.55 24.3243 379.267 24.3243L575.788 24.3243H950.469C957.186 24.3243 962.631 18.8791 962.631 12.1622C962.631 5.44518 957.186 0 950.469 0H575.788H379.267ZM742.266 462.162L742.293 462.162L766.917 462.162L766.944 462.162H848.496C855.213 462.162 860.658 456.717 860.658 450C860.658 443.283 855.213 437.838 848.496 437.838L766.918 437.838L742.293 437.838C735.576 437.838 730.131 443.283 730.131 450C730.131 456.708 735.562 462.147 742.266 462.162ZM897.367 596.847C897.367 590.13 902.813 584.685 909.53 584.685H1105.47C1112.19 584.685 1117.63 590.13 1117.63 596.847C1117.63 603.564 1112.19 609.009 1105.47 609.009H909.53C902.813 609.009 897.367 603.564 897.367 596.847ZM787.162 48.6487C780.445 48.6487 775 54.0939 775 60.8108C775 67.5278 780.445 72.973 787.162 72.973H917.838C924.555 72.973 930 67.5278 930 60.8108C930 54.0939 924.555 48.6487 917.838 48.6487H787.162ZM766.841 255.405C766.841 248.688 772.286 243.243 779.003 243.243H889.284C896.001 243.243 901.447 248.688 901.447 255.405C901.447 262.122 896.001 267.568 889.284 267.568H779.003C772.286 267.568 766.841 262.122 766.841 255.405ZM787.236 741.892C787.236 735.175 792.681 729.73 799.398 729.73H925.995C932.712 729.73 938.157 735.175 938.157 741.892C938.157 748.609 932.712 754.054 925.995 754.054H799.398C792.681 754.054 787.236 748.609 787.236 741.892Z" fill="#37DEAD"/>
</g>
</svg>
