<svg width="603" height="900" viewBox="0 0 603 900" fill="none" xmlns="http://www.w3.org/2000/svg">
    <g opacity="0.38" clip-path="url(#clip0)">
    <path fill-rule="evenodd" clip-rule="evenodd" d="M196.682 7H6V907H196.682H286H372.696C379.413 907 384.859 901.555 384.859 894.838C384.859 888.121 379.413 882.676 372.696 882.676H286L83.6192 882.676C76.9022 882.676 71.457 877.23 71.457 870.513C71.457 863.797 76.9022 858.351 83.6192 858.351H286H372.696H475.841C482.558 858.351 488.003 852.906 488.003 846.189C488.003 839.472 482.558 834.027 475.841 834.027H372.736L372.697 834.027L286 834.027L164.945 834.027C158.228 834.027 152.783 828.582 152.783 821.865C152.783 815.148 158.228 809.703 164.945 809.703L286 809.703H372.696C379.413 809.703 384.859 804.258 384.859 797.541C384.859 790.833 379.428 785.393 372.723 785.378H372.696H286L119.323 785.378C112.606 785.378 107.161 779.933 107.161 773.216C107.161 766.499 112.606 761.054 119.323 761.054L286 761.054H307.239C313.956 761.054 319.401 755.609 319.401 748.892C319.401 742.188 313.977 736.751 307.278 736.73L307.239 736.73H286L232.386 736.73C225.669 736.73 220.224 731.285 220.224 724.568C220.224 717.851 225.669 712.405 232.386 712.405L286 712.405H372.696C379.413 712.405 384.859 706.96 384.859 700.243C384.859 693.535 379.428 688.096 372.723 688.081H372.696H286L89.5704 688.081C82.8534 688.081 77.4082 682.636 77.4082 675.919C77.4082 669.202 82.8534 663.757 89.5704 663.757L286 663.757L372.697 663.757L501.627 663.757C508.344 663.757 513.789 658.312 513.789 651.595C513.789 644.878 508.344 639.432 501.627 639.432H372.736L372.697 639.432L286 639.432L164.945 639.432C158.228 639.432 152.783 633.987 152.783 627.27C152.783 620.553 158.228 615.108 164.945 615.108L286 615.108H372.696C379.413 615.108 384.859 609.663 384.859 602.946C384.859 596.229 379.413 590.784 372.696 590.784H286H248.254C241.537 590.784 236.092 585.339 236.092 578.622C236.092 571.905 241.537 566.459 248.254 566.459H286H372.696H563.117C569.834 566.459 575.28 561.014 575.28 554.297C575.28 547.58 569.834 542.135 563.117 542.135H372.697H286H113.373C106.656 542.135 101.211 536.69 101.211 529.973C101.211 523.256 106.656 517.811 113.373 517.811L286 517.811L372.697 517.811L372.724 517.811H440.137C446.854 517.811 452.299 512.366 452.299 505.649C452.299 498.932 446.854 493.486 440.137 493.486L372.696 493.486L286 493.486L145.109 493.486C138.392 493.486 132.947 488.041 132.947 481.324C132.947 474.607 138.392 469.162 145.109 469.162L286 469.162H303.272L303.3 469.162C310.004 469.147 315.434 463.708 315.434 457C315.434 450.283 309.989 444.838 303.272 444.838H286L101.472 444.838C94.7547 444.838 89.3096 439.393 89.3096 432.676C89.3096 425.959 94.7548 420.513 101.472 420.513L286 420.514L372.697 420.513L372.724 420.514H505.594C512.311 420.514 517.757 415.068 517.757 408.351C517.757 401.634 512.311 396.189 505.594 396.189H372.697H286H153.044C146.327 396.189 140.882 390.744 140.882 384.027C140.882 377.31 146.327 371.865 153.044 371.865L286 371.865L372.697 371.865L563.117 371.865C569.834 371.865 575.28 366.42 575.28 359.703C575.28 352.986 569.834 347.541 563.117 347.541H372.696H286H93.5372C86.8202 347.541 81.375 342.095 81.375 335.378C81.375 328.661 86.8202 323.216 93.5372 323.216H286H372.696H477.825C484.542 323.216 489.987 317.771 489.987 311.054C489.987 304.337 484.542 298.892 477.825 298.892H372.724L372.696 298.892L286 298.892L262.139 298.892C255.422 298.892 249.977 293.447 249.977 286.73C249.977 280.013 255.422 274.568 262.139 274.568H286H307.239C313.956 274.568 319.401 269.122 319.401 262.405C319.401 255.688 313.956 250.243 307.239 250.243H286L236.353 250.243C229.636 250.243 224.19 244.798 224.19 238.081C224.19 231.364 229.636 225.919 236.353 225.919H372.696L372.73 225.919H515.512C522.229 225.919 527.674 220.474 527.674 213.757C527.674 207.04 522.229 201.595 515.512 201.595L372.696 201.595L286 201.595L117.34 201.595C110.623 201.595 105.178 196.149 105.178 189.432C105.178 182.715 110.623 177.27 117.34 177.27H286H372.696H424.269C430.986 177.27 436.431 171.825 436.431 165.108C436.431 158.391 430.986 152.946 424.269 152.946L372.696 152.946L286 152.946L67.751 152.946C61.0341 152.946 55.5889 147.501 55.5889 140.784C55.5889 134.067 61.0341 128.622 67.751 128.622H372.696L372.727 128.622H527.414C534.13 128.622 539.576 123.176 539.576 116.459C539.576 109.742 534.13 104.297 527.414 104.297H286L157.011 104.297C150.294 104.297 144.849 98.8521 144.849 92.1351C144.849 85.4181 150.294 79.973 157.011 79.973H303.303C310.006 79.9564 315.434 74.5175 315.434 67.8108C315.434 61.0939 309.989 55.6487 303.272 55.6487H286L196.682 55.6487C189.965 55.6487 184.52 50.2035 184.52 43.4865C184.52 36.7695 189.965 31.3243 196.682 31.3243L286 31.3243H461.956C468.673 31.3243 474.118 25.8791 474.118 19.1622C474.118 12.4452 468.673 7 461.956 7H286H196.682ZM442.382 603.847C442.382 597.13 447.827 591.685 454.544 591.685H537.331C544.048 591.685 549.493 597.13 549.493 603.847C549.493 610.564 544.048 616.009 537.331 616.009H454.544C447.827 616.009 442.382 610.564 442.382 603.847ZM395.037 55.6487C388.32 55.6487 382.875 61.0939 382.875 67.8108C382.875 74.5278 388.32 79.973 395.037 79.973H446.088C452.805 79.973 458.25 74.5278 458.25 67.8108C458.25 61.0939 452.805 55.6487 446.088 55.6487H395.037ZM378.908 262.405C378.908 255.688 384.353 250.243 391.07 250.243H432.203C438.92 250.243 444.365 255.688 444.365 262.405C444.365 269.122 438.92 274.568 432.203 274.568H391.07C384.353 274.568 378.908 269.122 378.908 262.405ZM373.218 444.838H412.367C419.084 444.838 424.53 450.283 424.53 457C424.53 463.717 419.084 469.162 412.367 469.162H373.218C366.501 469.162 361.056 463.717 361.056 457C361.056 450.283 366.501 444.838 373.218 444.838ZM388.826 748.892C388.826 742.175 394.271 736.73 400.988 736.73H450.055C456.772 736.73 462.217 742.175 462.217 748.892C462.217 755.609 456.772 761.054 450.055 761.054H400.988C394.271 761.054 388.826 755.609 388.826 748.892Z" fill="black" fill-opacity="0.21"/>
    <path fill-rule="evenodd" clip-rule="evenodd" d="M190.682 0H0V900H190.682H280H366.696C373.413 900 378.859 894.555 378.859 887.838C378.859 881.121 373.413 875.676 366.696 875.676H280L77.6192 875.676C70.9022 875.676 65.457 870.23 65.457 863.513C65.457 856.797 70.9022 851.351 77.6192 851.351H280H366.696H469.841C476.558 851.351 482.003 845.906 482.003 839.189C482.003 832.472 476.558 827.027 469.841 827.027H366.736L366.697 827.027L280 827.027L158.945 827.027C152.228 827.027 146.783 821.582 146.783 814.865C146.783 808.148 152.228 802.703 158.945 802.703L280 802.703H366.696C373.413 802.703 378.859 797.258 378.859 790.541C378.859 783.833 373.428 778.393 366.723 778.378H366.696H280L113.323 778.378C106.606 778.378 101.161 772.933 101.161 766.216C101.161 759.499 106.606 754.054 113.323 754.054L280 754.054H301.239C307.956 754.054 313.401 748.609 313.401 741.892C313.401 735.188 307.977 729.751 301.278 729.73L301.239 729.73H280L226.386 729.73C219.669 729.73 214.224 724.285 214.224 717.568C214.224 710.851 219.669 705.405 226.386 705.405L280 705.405H366.696C373.413 705.405 378.859 699.96 378.859 693.243C378.859 686.535 373.428 681.096 366.723 681.081H366.696H280L83.5704 681.081C76.8534 681.081 71.4082 675.636 71.4082 668.919C71.4082 662.202 76.8534 656.757 83.5704 656.757L280 656.757L366.697 656.757L495.627 656.757C502.344 656.757 507.789 651.312 507.789 644.595C507.789 637.878 502.344 632.432 495.627 632.432H366.736L366.697 632.432L280 632.432L158.945 632.432C152.228 632.432 146.783 626.987 146.783 620.27C146.783 613.553 152.228 608.108 158.945 608.108L280 608.108H366.696C373.413 608.108 378.859 602.663 378.859 595.946C378.859 589.229 373.413 583.784 366.696 583.784H280H242.254C235.537 583.784 230.092 578.339 230.092 571.622C230.092 564.905 235.537 559.459 242.254 559.459H280H366.696H557.117C563.834 559.459 569.28 554.014 569.28 547.297C569.28 540.58 563.834 535.135 557.117 535.135H366.697H280H107.373C100.656 535.135 95.2109 529.69 95.2109 522.973C95.2109 516.256 100.656 510.811 107.373 510.811L280 510.811L366.697 510.811L366.724 510.811H434.137C440.854 510.811 446.299 505.366 446.299 498.649C446.299 491.932 440.854 486.486 434.137 486.486L366.696 486.486L280 486.486L139.109 486.486C132.392 486.486 126.947 481.041 126.947 474.324C126.947 467.607 132.392 462.162 139.109 462.162L280 462.162H297.272L297.3 462.162C304.004 462.147 309.434 456.708 309.434 450C309.434 443.283 303.989 437.838 297.272 437.838H280L95.4717 437.838C88.7547 437.838 83.3096 432.393 83.3096 425.676C83.3096 418.959 88.7548 413.513 95.4717 413.513L280 413.514L366.697 413.513L366.724 413.514H499.594C506.311 413.514 511.757 408.068 511.757 401.351C511.757 394.634 506.311 389.189 499.594 389.189H366.697H280H147.044C140.327 389.189 134.882 383.744 134.882 377.027C134.882 370.31 140.327 364.865 147.044 364.865L280 364.865L366.697 364.865L557.117 364.865C563.834 364.865 569.28 359.42 569.28 352.703C569.28 345.986 563.834 340.541 557.117 340.541H366.696H280H87.5372C80.8202 340.541 75.375 335.095 75.375 328.378C75.375 321.661 80.8202 316.216 87.5372 316.216H280H366.696H471.825C478.542 316.216 483.987 310.771 483.987 304.054C483.987 297.337 478.542 291.892 471.825 291.892H366.724L366.696 291.892L280 291.892L256.139 291.892C249.422 291.892 243.977 286.447 243.977 279.73C243.977 273.013 249.422 267.568 256.139 267.568H280H301.239C307.956 267.568 313.401 262.122 313.401 255.405C313.401 248.688 307.956 243.243 301.239 243.243H280L230.353 243.243C223.636 243.243 218.19 237.798 218.19 231.081C218.19 224.364 223.636 218.919 230.353 218.919H366.696L366.73 218.919H509.512C516.229 218.919 521.674 213.474 521.674 206.757C521.674 200.04 516.229 194.595 509.512 194.595L366.696 194.595L280 194.595L111.34 194.595C104.623 194.595 99.1777 189.149 99.1777 182.432C99.1777 175.715 104.623 170.27 111.34 170.27H280H366.696H418.269C424.986 170.27 430.431 164.825 430.431 158.108C430.431 151.391 424.986 145.946 418.269 145.946L366.696 145.946L280 145.946L61.751 145.946C55.0341 145.946 49.5889 140.501 49.5889 133.784C49.5889 127.067 55.0341 121.622 61.751 121.622H366.696L366.727 121.622H521.414C528.13 121.622 533.576 116.176 533.576 109.459C533.576 102.742 528.13 97.2973 521.414 97.2973H280L151.011 97.2973C144.294 97.2973 138.849 91.8521 138.849 85.1351C138.849 78.4181 144.294 72.973 151.011 72.973H297.303C304.006 72.9564 309.434 67.5175 309.434 60.8108C309.434 54.0939 303.989 48.6487 297.272 48.6487H280L190.682 48.6487C183.965 48.6487 178.52 43.2035 178.52 36.4865C178.52 29.7695 183.965 24.3243 190.682 24.3243L280 24.3243H455.956C462.673 24.3243 468.118 18.8791 468.118 12.1622C468.118 5.44518 462.673 0 455.956 0H280H190.682ZM436.382 596.847C436.382 590.13 441.827 584.685 448.544 584.685H531.331C538.048 584.685 543.493 590.13 543.493 596.847C543.493 603.564 538.048 609.009 531.331 609.009H448.544C441.827 609.009 436.382 603.564 436.382 596.847ZM389.037 48.6487C382.32 48.6487 376.875 54.0939 376.875 60.8108C376.875 67.5278 382.32 72.973 389.037 72.973H440.088C446.805 72.973 452.25 67.5278 452.25 60.8108C452.25 54.0939 446.805 48.6487 440.088 48.6487H389.037ZM372.908 255.405C372.908 248.688 378.353 243.243 385.07 243.243H426.203C432.92 243.243 438.365 248.688 438.365 255.405C438.365 262.122 432.92 267.568 426.203 267.568H385.07C378.353 267.568 372.908 262.122 372.908 255.405ZM367.218 437.838H406.367C413.084 437.838 418.53 443.283 418.53 450C418.53 456.717 413.084 462.162 406.367 462.162H367.218C360.501 462.162 355.056 456.717 355.056 450C355.056 443.283 360.501 437.838 367.218 437.838ZM382.826 741.892C382.826 735.175 388.271 729.73 394.988 729.73H444.055C450.772 729.73 456.217 735.175 456.217 741.892C456.217 748.609 450.772 754.054 444.055 754.054H394.988C388.271 754.054 382.826 748.609 382.826 741.892Z" fill="#37DEAD"/>
    </g>
    <defs>
    <clipPath id="clip0">
    <rect width="603" height="900" fill="white"/>
    </clipPath>
    </defs>
    </svg>
    