<svg viewBox="0 0 324 736" preserveAspectRatio="slice" fill="none" xmlns="http://www.w3.org/2000/svg">
<path fill-rule="evenodd" clip-rule="evenodd" d="M97.6403 0H0V735.682H97.5979L97.6403 735.682H184.693C188.677 735.682 191.906 732.453 191.906 728.469C191.906 724.486 188.677 721.257 184.693 721.257L184.692 721.257L141.668 721.257L53.2125 721.257C49.2292 721.257 46 718.027 46 714.044C46 710.061 49.2292 706.832 53.2126 706.832L141.668 706.831H161.585C165.568 706.831 168.797 703.602 168.797 699.619C168.797 695.636 165.568 692.406 161.585 692.406H141.668V692H103C99.134 692 96 688.866 96 685C96 681.134 99.134 678 103 678H141.668V677.981H245.982C249.966 677.981 253.195 674.752 253.195 670.769C253.195 666.785 249.966 663.556 245.982 663.556L184.691 663.556L141.668 663.556L53.2126 663.556C49.2292 663.556 46 660.327 46 656.344C46 652.36 49.2292 649.131 53.2126 649.131L141.668 649.131L184.692 649.131L184.714 649.131C188.688 649.12 191.906 645.895 191.906 641.918C191.906 638.404 189.393 635.477 186.066 634.836C185.561 634.944 185.037 635 184.5 635H34.5C30.3579 635 27 631.642 27 627.5C27 623.358 30.3579 620 34.5 620H184.5C185.207 620 185.891 620.098 186.54 620.281H292.2C296.184 620.281 299.413 617.052 299.413 613.068C299.413 609.085 296.184 605.856 292.2 605.856H185.972C185.496 605.95 185.004 606 184.5 606H71.5C67.3579 606 64 602.642 64 598.5C64 594.358 67.3579 591 71.5 591H184.5C185.145 591 185.772 591.082 186.369 591.235C189.544 590.479 191.906 587.624 191.906 584.218C191.906 580.234 188.677 577.005 184.693 577.005H141.668V577H88C84.134 577 81 573.866 81 570C81 566.134 84.134 563 88 563H141.668V562.58H281.148C285.132 562.58 288.361 559.351 288.361 555.368C288.361 551.384 285.132 548.155 281.148 548.155H141.668V548H77C73.134 548 70 544.866 70 541C70 537.134 73.134 534 77 534H141.668V533.73H184.693C188.677 533.73 191.906 530.501 191.906 526.517C191.906 522.534 188.677 519.305 184.693 519.305H141.668V519H33C29.134 519 26 515.866 26 512C26 508.134 29.134 505 33 505H141.668V504.88H236.94C240.923 504.88 244.152 501.651 244.152 497.667C244.152 493.684 240.923 490.454 236.94 490.454H141.668V490H96C92.134 490 89 486.866 89 483C89 479.134 92.134 476 96 476H185C185.095 476 185.189 476.002 185.283 476.006C188.991 475.706 191.906 472.602 191.906 468.817C191.906 464.84 188.688 461.615 184.714 461.604L184.692 461.604H53.2125C49.2292 461.604 46 458.375 46 454.392C46 450.408 49.2292 447.179 53.2126 447.179H141.668H151.537C155.521 447.179 158.75 443.95 158.75 439.967C158.75 436.632 156.486 433.825 153.411 433H34.5C30.3579 433 27 429.642 27 425.5C27 421.358 30.3579 418 34.5 418H184.5C185.067 418 185.619 418.063 186.149 418.182C189.435 417.508 191.906 414.601 191.906 411.116C191.906 407.385 189.072 404.315 185.439 403.942C185.131 403.98 184.818 404 184.5 404H83.5C79.3579 404 76 400.642 76 396.5C76 392.358 79.3579 389 83.5 389H184.5C185.43 389 186.32 389.169 187.142 389.479H250.001C253.985 389.479 257.214 386.249 257.214 382.266C257.214 378.283 253.985 375.053 250.001 375.053H141.668V375H63C59.134 375 56 371.866 56 368C56 364.134 59.134 361 63 361H141.668V360.628H184.693C188.677 360.628 191.906 357.399 191.906 353.416C191.906 349.432 188.677 346.203 184.693 346.203H141.668V346H31C27.134 346 24 342.866 24 339C24 335.134 27.134 332 31 332H141.668V331.778H281.148C285.132 331.778 288.361 328.549 288.361 324.566C288.361 320.582 285.132 317.353 281.148 317.353H141.668V317H94C90.134 317 87 313.866 87 310C87 306.134 90.134 303 94 303H141.668V302.928H218.854C222.838 302.928 226.067 299.699 226.067 295.715C226.067 291.732 222.838 288.503 218.854 288.503H184.728L184.692 288.503H53.2126C49.2292 288.503 46 285.273 46 281.29C46 277.307 49.2292 274.078 53.2126 274.078H172.815C175.977 273.225 178.305 270.336 178.305 266.904C178.305 263.772 176.366 261.092 173.623 260H87.5C83.3579 260 80 256.642 80 252.5C80 248.358 83.3579 245 87.5 245H184.5C185.135 245 185.751 245.079 186.34 245.227H252.011C255.994 245.227 259.223 241.998 259.223 238.015C259.223 234.031 255.994 230.802 252.011 230.802H186.219C185.667 230.932 185.091 231 184.5 231H40.5C36.3579 231 33 227.642 33 223.5C33 219.358 36.3579 216 40.5 216H184.5C185.323 216 186.114 216.132 186.855 216.377H281.148C285.132 216.377 288.361 213.148 288.361 209.164C288.361 205.181 285.132 201.952 281.148 201.952H185.825C185.554 201.984 185.279 202 185 202H58C54.134 202 51 198.866 51 195C51 191.134 54.134 188 58 188H141.668V187.527H237.945C241.928 187.527 245.157 184.298 245.157 180.314C245.157 176.331 241.928 173.102 237.945 173.102H141.668V173H24C20.134 173 17 169.866 17 166C17 162.134 20.134 159 24 159H141.668V158.676H199.765C203.748 158.676 206.977 155.447 206.977 151.464C206.977 147.48 203.748 144.251 199.765 144.251H141.668V144H38C34.134 144 31 140.866 31 137C31 133.134 34.134 130 38 130H141.668V129.826H257.034C261.018 129.826 264.247 126.597 264.247 122.614C264.247 118.63 261.018 115.401 257.035 115.401H184.702L184.692 115.401L141.668 115.401L53.2125 115.401C49.2292 115.401 46 112.172 46 108.189C46 104.205 49.2292 100.976 53.2126 100.976L141.668 100.976L184.692 100.976L210.817 100.976C214.8 100.976 218.029 97.7468 218.029 93.7634C218.029 89.78 214.8 86.5508 210.817 86.5508H187.063C186.263 86.8415 185.4 87 184.5 87H108.5C104.358 87 101 83.6421 101 79.5C101 75.3579 104.358 72 108.5 72H184.5C184.969 72 185.429 72.0431 185.874 72.1257H263.063C267.046 72.1257 270.275 68.8965 270.275 64.9131C270.275 60.9297 267.046 57.7005 263.063 57.7005H184.708L184.692 57.7006H53.2126C49.2292 57.7006 46 54.4714 46 50.488C46 46.5046 49.2292 43.2754 53.2126 43.2754L141.668 43.2754H207.802C211.786 43.2754 215.015 40.0462 215.015 36.0628C215.015 32.0794 211.786 28.8503 207.802 28.8503H185.999C185.514 28.9485 185.013 29 184.5 29H44.5C40.3579 29 37 25.6421 37 21.5C37 17.3579 40.3579 14 44.5 14H184.5C185.375 14 186.215 14.1498 186.995 14.4251H229.907C233.89 14.4251 237.119 11.196 237.119 7.21257C237.119 3.22917 233.89 0 229.907 0H141.668H97.6403ZM221.041 353.95C221.041 349.967 224.27 346.737 228.254 346.737H268.084C272.068 346.737 275.297 349.967 275.297 353.95C275.297 357.933 272.068 361.163 268.084 361.163H228.254C224.27 361.163 221.041 357.933 221.041 353.95ZM251.188 36.0628C251.188 32.0794 254.417 28.8503 258.4 28.8503H316.316C320.299 28.8503 323.529 32.0794 323.529 36.0628C323.529 40.0462 320.299 43.2754 316.316 43.2754H258.4C254.417 43.2754 251.188 40.0462 251.188 36.0628ZM246.343 144.251C242.36 144.251 239.131 147.48 239.131 151.464C239.131 155.447 242.36 158.676 246.343 158.676H290.193C294.176 158.676 297.406 155.447 297.406 151.464C297.406 147.48 294.176 144.251 290.193 144.251H246.343ZM217.786 259.475C213.683 259.475 210.357 262.801 210.357 266.904C210.357 271.007 213.683 274.333 217.786 274.333H283.065C287.168 274.333 290.494 271.007 290.494 266.904C290.494 262.801 287.168 259.475 283.065 259.475H217.786ZM201.131 432.754C197.147 432.754 193.918 435.983 193.918 439.967C193.918 443.95 197.147 447.179 201.131 447.179H223.881C227.864 447.179 231.093 443.95 231.093 439.967C231.093 435.983 227.864 432.754 223.881 432.754H201.131Z" fill="#37DEAD" fill-opacity="0.34"/>
</svg>
