<svg width="324" height="736" viewBox="0 0 324 736" fill="none" xmlns="http://www.w3.org/2000/svg">
<g opacity="0.19" clip-path="url(#clip0_1243_5915)">
<path fill-rule="evenodd" clip-rule="evenodd" d="M101.64 4H4V739.682H101.598L101.64 739.682H188.693C192.677 739.682 195.906 736.453 195.906 732.469C195.906 728.486 192.677 725.257 188.693 725.257L188.692 725.257L145.668 725.257L57.2125 725.257C53.2292 725.257 50 722.027 50 718.044C50 714.061 53.2292 710.832 57.2126 710.832L145.668 710.831H165.585C169.568 710.831 172.797 707.602 172.797 703.619C172.797 699.636 169.568 696.406 165.585 696.406H145.668V696H107C103.134 696 100 692.866 100 689C100 685.134 103.134 682 107 682H145.668V681.981H249.982C253.966 681.981 257.195 678.752 257.195 674.769C257.195 670.785 253.966 667.556 249.982 667.556L188.691 667.556L145.668 667.556L57.2126 667.556C53.2292 667.556 50 664.327 50 660.344C50 656.36 53.2292 653.131 57.2126 653.131L145.668 653.131L188.692 653.131L188.714 653.131C192.688 653.12 195.906 649.895 195.906 645.918C195.906 642.404 193.393 639.477 190.066 638.836C189.561 638.944 189.037 639 188.5 639H38.5C34.3579 639 31 635.642 31 631.5C31 627.358 34.3579 624 38.5 624H188.5C189.207 624 189.891 624.098 190.54 624.281H296.2C300.184 624.281 303.413 621.052 303.413 617.068C303.413 613.085 300.184 609.856 296.2 609.856H189.972C189.496 609.95 189.004 610 188.5 610H75.5C71.3579 610 68 606.642 68 602.5C68 598.358 71.3579 595 75.5 595H188.5C189.145 595 189.772 595.082 190.369 595.235C193.544 594.479 195.906 591.624 195.906 588.218C195.906 584.234 192.677 581.005 188.693 581.005H145.668V581H92C88.134 581 85 577.866 85 574C85 570.134 88.134 567 92 567H145.668V566.58H285.148C289.132 566.58 292.361 563.351 292.361 559.368C292.361 555.384 289.132 552.155 285.148 552.155H145.668V552H81C77.134 552 74 548.866 74 545C74 541.134 77.134 538 81 538H145.668V537.73H188.693C192.677 537.73 195.906 534.501 195.906 530.517C195.906 526.534 192.677 523.305 188.693 523.305H145.668V523H37C33.134 523 30 519.866 30 516C30 512.134 33.134 509 37 509H145.668V508.88H240.94C244.923 508.88 248.152 505.651 248.152 501.667C248.152 497.684 244.923 494.454 240.94 494.454H145.668V494H100C96.134 494 93 490.866 93 487C93 483.134 96.134 480 100 480H189C189.095 480 189.189 480.002 189.283 480.006C192.991 479.706 195.906 476.602 195.906 472.817C195.906 468.84 192.688 465.615 188.714 465.604L188.692 465.604H57.2125C53.2292 465.604 50 462.375 50 458.392C50 454.408 53.2292 451.179 57.2126 451.179H145.668H155.537C159.521 451.179 162.75 447.95 162.75 443.967C162.75 440.632 160.486 437.825 157.411 437H38.5C34.3579 437 31 433.642 31 429.5C31 425.358 34.3579 422 38.5 422H188.5C189.067 422 189.619 422.063 190.149 422.182C193.435 421.508 195.906 418.601 195.906 415.116C195.906 411.385 193.072 408.315 189.439 407.942C189.131 407.98 188.818 408 188.5 408H87.5C83.3579 408 80 404.642 80 400.5C80 396.358 83.3579 393 87.5 393H188.5C189.43 393 190.32 393.169 191.142 393.479H254.001C257.985 393.479 261.214 390.249 261.214 386.266C261.214 382.283 257.985 379.053 254.001 379.053H145.668V379H67C63.134 379 60 375.866 60 372C60 368.134 63.134 365 67 365H145.668V364.628H188.693C192.677 364.628 195.906 361.399 195.906 357.416C195.906 353.432 192.677 350.203 188.693 350.203H145.668V350H35C31.134 350 28 346.866 28 343C28 339.134 31.134 336 35 336H145.668V335.778H285.148C289.132 335.778 292.361 332.549 292.361 328.566C292.361 324.582 289.132 321.353 285.148 321.353H145.668V321H98C94.134 321 91 317.866 91 314C91 310.134 94.134 307 98 307H145.668V306.928H222.854C226.838 306.928 230.067 303.699 230.067 299.715C230.067 295.732 226.838 292.503 222.854 292.503H188.728L188.692 292.503H57.2126C53.2292 292.503 50 289.273 50 285.29C50 281.307 53.2292 278.078 57.2126 278.078H176.815C179.977 277.225 182.305 274.336 182.305 270.904C182.305 267.772 180.366 265.092 177.623 264H91.5C87.3579 264 84 260.642 84 256.5C84 252.358 87.3579 249 91.5 249H188.5C189.135 249 189.751 249.079 190.34 249.227H256.011C259.994 249.227 263.223 245.998 263.223 242.015C263.223 238.031 259.994 234.802 256.011 234.802H190.219C189.667 234.932 189.091 235 188.5 235H44.5C40.3579 235 37 231.642 37 227.5C37 223.358 40.3579 220 44.5 220H188.5C189.323 220 190.114 220.132 190.855 220.377H285.148C289.132 220.377 292.361 217.148 292.361 213.164C292.361 209.181 289.132 205.952 285.148 205.952H189.825C189.554 205.984 189.279 206 189 206H62C58.134 206 55 202.866 55 199C55 195.134 58.134 192 62 192H145.668V191.527H241.945C245.928 191.527 249.157 188.298 249.157 184.314C249.157 180.331 245.928 177.102 241.945 177.102H145.668V177H28C24.134 177 21 173.866 21 170C21 166.134 24.134 163 28 163H145.668V162.676H203.765C207.748 162.676 210.977 159.447 210.977 155.464C210.977 151.48 207.748 148.251 203.765 148.251H145.668V148H42C38.134 148 35 144.866 35 141C35 137.134 38.134 134 42 134H145.668V133.826H261.034C265.018 133.826 268.247 130.597 268.247 126.614C268.247 122.63 265.018 119.401 261.035 119.401H188.702L188.692 119.401L145.668 119.401L57.2125 119.401C53.2292 119.401 50 116.172 50 112.189C50 108.205 53.2292 104.976 57.2126 104.976L145.668 104.976L188.692 104.976L214.817 104.976C218.8 104.976 222.029 101.747 222.029 97.7634C222.029 93.78 218.8 90.5508 214.817 90.5508H191.063C190.263 90.8415 189.4 91 188.5 91H112.5C108.358 91 105 87.6421 105 83.5C105 79.3579 108.358 76 112.5 76H188.5C188.969 76 189.429 76.0431 189.874 76.1257H267.063C271.046 76.1257 274.275 72.8965 274.275 68.9131C274.275 64.9297 271.046 61.7005 267.063 61.7005H188.708L188.692 61.7006H57.2126C53.2292 61.7006 50 58.4714 50 54.488C50 50.5046 53.2292 47.2754 57.2126 47.2754L145.668 47.2754H211.802C215.786 47.2754 219.015 44.0462 219.015 40.0628C219.015 36.0794 215.786 32.8503 211.802 32.8503H189.999C189.514 32.9485 189.013 33 188.5 33H48.5C44.3579 33 41 29.6421 41 25.5C41 21.3579 44.3579 18 48.5 18H188.5C189.375 18 190.215 18.1498 190.995 18.4251H233.907C237.89 18.4251 241.119 15.196 241.119 11.2126C241.119 7.22917 237.89 4 233.907 4H145.668H101.64ZM225.041 357.95C225.041 353.967 228.27 350.737 232.254 350.737H272.084C276.068 350.737 279.297 353.967 279.297 357.95C279.297 361.933 276.068 365.163 272.084 365.163H232.254C228.27 365.163 225.041 361.933 225.041 357.95ZM255.188 40.0628C255.188 36.0794 258.417 32.8503 262.4 32.8503H320.316C324.299 32.8503 327.529 36.0794 327.529 40.0628C327.529 44.0462 324.299 47.2754 320.316 47.2754H262.4C258.417 47.2754 255.188 44.0462 255.188 40.0628ZM250.343 148.251C246.36 148.251 243.131 151.48 243.131 155.464C243.131 159.447 246.36 162.676 250.343 162.676H294.193C298.176 162.676 301.406 159.447 301.406 155.464C301.406 151.48 298.176 148.251 294.193 148.251H250.343ZM221.786 263.475C217.683 263.475 214.357 266.801 214.357 270.904C214.357 275.007 217.683 278.333 221.786 278.333H287.065C291.168 278.333 294.494 275.007 294.494 270.904C294.494 266.801 291.168 263.475 287.065 263.475H221.786ZM205.131 436.754C201.147 436.754 197.918 439.983 197.918 443.967C197.918 447.95 201.147 451.179 205.131 451.179H227.881C231.864 451.179 235.093 447.95 235.093 443.967C235.093 439.983 231.864 436.754 227.881 436.754H205.131Z" fill="black" fill-opacity="0.23"/>
<path fill-rule="evenodd" clip-rule="evenodd" d="M97.6403 0H0V735.682H97.5979L97.6403 735.682H184.693C188.677 735.682 191.906 732.453 191.906 728.469C191.906 724.486 188.677 721.257 184.693 721.257H141.668V720.257H53.2125C49.2292 720.257 46 717.027 46 713.044C46 709.061 49.2292 705.832 53.2126 705.832H165.251C167.374 704.576 168.797 702.264 168.797 699.619C168.797 695.636 165.568 692.406 161.585 692.406H141.668V691H103C99.134 691 96 687.866 96 684C96 680.134 99.134 677 103 677H185C186.307 677 187.53 677.358 188.576 677.981H245.982C249.966 677.981 253.195 674.752 253.195 670.769C253.195 666.785 249.966 663.556 245.982 663.556H141.668V662.556H53.2126C49.2292 662.556 46 659.327 46 655.344C46 651.36 49.2292 648.131 53.2126 648.131H184.692C185.625 648.131 186.518 648.308 187.337 648.631C190.012 647.577 191.906 644.969 191.906 641.918C191.906 637.935 188.677 634.706 184.694 634.706H141.668V634H34.5C30.3579 634 27 630.642 27 626.5C27 622.358 30.3579 619 34.5 619H184.5C186.053 619 187.496 619.472 188.693 620.281H292.2C296.184 620.281 299.413 617.052 299.413 613.068C299.413 609.085 296.184 605.856 292.2 605.856H141.668V605H71.5C67.3579 605 64 601.642 64 597.5C64 593.358 67.3579 590 71.5 590H184.5C185.67 590 186.778 590.268 187.765 590.746C190.212 589.592 191.906 587.103 191.906 584.218C191.906 580.234 188.677 577.005 184.693 577.005H141.668V576H88C84.134 576 81 572.866 81 569C81 565.134 84.134 562 88 562H185C185.994 562 186.939 562.207 187.795 562.58H281.148C285.132 562.58 288.361 559.351 288.361 555.368C288.361 551.384 285.132 548.155 281.148 548.155H141.668V547H77C73.134 547 70 543.866 70 540C70 536.134 73.134 533 77 533H185C185.731 533 186.435 533.112 187.097 533.32C189.899 532.33 191.906 529.658 191.906 526.517C191.906 522.534 188.677 519.305 184.693 519.305H141.668V518H33C29.134 518 26 514.866 26 511C26 507.134 29.134 504 33 504H185C186.234 504 187.393 504.319 188.4 504.88H236.94C240.923 504.88 244.152 501.651 244.152 497.667C244.152 493.684 240.923 490.454 236.94 490.454H141.668V489H96C92.134 489 89 485.866 89 482C89 478.134 92.134 475 96 475H185C185.882 475 186.727 475.163 187.504 475.461C190.091 474.366 191.906 471.803 191.906 468.817C191.906 464.833 188.677 461.604 184.693 461.604H141.668V460.604H53.2125C49.2292 460.604 46 457.375 46 453.392C46 449.408 49.2292 446.179 53.2126 446.179H155.204C157.326 444.924 158.75 442.611 158.75 439.967C158.75 435.983 155.521 432.754 151.537 432.754H141.668V432H34.5C30.3579 432 27 428.642 27 424.5C27 420.358 30.3579 417 34.5 417H184.5C185.627 417 186.697 417.249 187.656 417.694C190.162 416.564 191.906 414.044 191.906 411.116C191.906 407.133 188.677 403.904 184.693 403.904H141.668V403H83.5C79.3579 403 76 399.642 76 395.5C76 391.358 79.3579 388 83.5 388H184.5C186.176 388 187.723 388.55 188.972 389.479H250.001C253.985 389.479 257.214 386.249 257.214 382.266C257.214 378.283 253.985 375.053 250.001 375.053H141.668V374H63C59.134 374 56 370.866 56 367C56 363.134 59.134 360 63 360H185C185.673 360 186.323 360.095 186.939 360.272C189.823 359.328 191.906 356.615 191.906 353.416C191.906 349.432 188.677 346.203 184.693 346.203H141.668V345H31C27.134 345 24 341.866 24 338C24 334.134 27.134 331 31 331H185C186.157 331 187.249 331.281 188.211 331.778H281.148C285.132 331.778 288.361 328.549 288.361 324.566C288.361 320.582 285.132 317.353 281.148 317.353H141.668V316H94C90.134 316 87 312.866 87 309C87 305.134 90.134 302 94 302H185C186.269 302 187.459 302.338 188.485 302.928H218.854C222.838 302.928 226.067 299.699 226.067 295.715C226.067 291.732 222.838 288.503 218.854 288.503H141.668V287.503H53.2126C49.2292 287.503 46 284.273 46 280.29C46 276.307 49.2292 273.078 53.2126 273.078H175.01C176.997 271.744 178.305 269.477 178.305 266.904C178.305 262.801 174.979 259.475 170.876 259.475H141.668V259H87.5C83.3579 259 80 255.642 80 251.5C80 247.358 83.3579 244 87.5 244H184.5C186.019 244 187.432 244.451 188.613 245.227H252.011C255.994 245.227 259.223 241.998 259.223 238.015C259.223 234.031 255.994 230.802 252.011 230.802H141.668V230H40.5C36.3579 230 33 226.642 33 222.5C33 218.358 36.3579 215 40.5 215H184.5C186.114 215 187.609 215.51 188.832 216.377H281.148C285.132 216.377 288.361 213.148 288.361 209.164C288.361 205.181 285.132 201.952 281.148 201.952H141.668V201H58C54.134 201 51 197.866 51 194C51 190.134 54.134 187 58 187H185C185.945 187 186.846 187.187 187.669 187.527H237.945C241.928 187.527 245.157 184.298 245.157 180.314C245.157 176.331 241.928 173.102 237.945 173.102H141.668V172H24C20.134 172 17 168.866 17 165C17 161.134 20.134 158 24 158H185C186.076 158 187.095 158.243 188.006 158.676H199.765C203.748 158.676 206.977 155.447 206.977 151.464C206.977 147.48 203.748 144.251 199.765 144.251H141.668V143H38C34.134 143 31 139.866 31 136C31 132.134 34.134 129 38 129H185C186.194 129 187.318 129.299 188.302 129.826H257.034C261.018 129.826 264.247 126.597 264.247 122.614C264.247 118.63 261.018 115.401 257.035 115.401H141.668V114.401H53.2125C49.2292 114.401 46 111.172 46 107.189C46 103.205 49.2292 99.976 53.2126 99.976H184.692C186.03 99.976 187.284 100.341 188.358 100.976H210.817C214.8 100.976 218.029 97.7468 218.029 93.7634C218.029 89.78 214.8 86.5508 210.817 86.5508H141.668V86H108.5C104.358 86 101 82.6421 101 78.5C101 74.3579 104.358 71 108.5 71H184.5C185.951 71 187.306 71.4121 188.454 72.1257H263.063C267.046 72.1257 270.275 68.8965 270.275 64.9131C270.275 60.9297 267.046 57.7005 263.063 57.7005H141.668V56.7006H53.2126C49.2292 56.7006 46 53.4714 46 49.488C46 45.5046 49.2292 42.2754 53.2126 42.2754H184.692C186.03 42.2754 187.283 42.64 188.358 43.2754H207.802C211.786 43.2754 215.015 40.0462 215.015 36.0628C215.015 32.0794 211.786 28.8503 207.802 28.8503H141.668V28H44.5C40.3579 28 37 24.6421 37 20.5C37 16.3579 40.3579 13 44.5 13H184.5C186.143 13 187.664 13.5286 188.899 14.4251H229.907C233.89 14.4251 237.119 11.196 237.119 7.21257C237.119 3.22917 233.89 0 229.907 0H141.668H97.6403ZM221.041 353.95C221.041 349.967 224.27 346.737 228.254 346.737H268.084C272.068 346.737 275.297 349.967 275.297 353.95C275.297 357.933 272.068 361.163 268.084 361.163H228.254C224.27 361.163 221.041 357.933 221.041 353.95ZM251.188 36.0628C251.188 32.0794 254.417 28.8503 258.4 28.8503H316.316C320.299 28.8503 323.529 32.0794 323.529 36.0628C323.529 40.0462 320.299 43.2754 316.316 43.2754H258.4C254.417 43.2754 251.188 40.0462 251.188 36.0628ZM246.343 144.251C242.36 144.251 239.131 147.48 239.131 151.464C239.131 155.447 242.36 158.676 246.343 158.676H290.193C294.176 158.676 297.406 155.447 297.406 151.464C297.406 147.48 294.176 144.251 290.193 144.251H246.343ZM217.786 259.475C213.683 259.475 210.357 262.801 210.357 266.904C210.357 271.007 213.683 274.333 217.786 274.333H283.065C287.168 274.333 290.494 271.007 290.494 266.904C290.494 262.801 287.168 259.475 283.065 259.475H217.786ZM201.131 432.754C197.147 432.754 193.918 435.983 193.918 439.967C193.918 443.95 197.147 447.179 201.131 447.179H223.881C227.864 447.179 231.093 443.95 231.093 439.967C231.093 435.983 227.864 432.754 223.881 432.754H201.131Z" fill="#37DEAD"/>
</g>
<defs>
<clipPath id="clip0_1243_5915">
<rect width="324" height="736" fill="white"/>
</clipPath>
</defs>
</svg>
