                <svg width="50" height="50" viewBox="0 0 50 50" fill="none" xmlns="http://www.w3.org/2000/svg">
                    <g clip-path="url(#clip0)">
                    <rect width="50" height="50" rx="25" fill="#5C35B0"/>
                    <g clip-path="url(#clip1)">
                    <path d="M-25 0V50H75V0H-25Z" fill="#012169"/>
                    <path d="M-25 0L75 50L-25 0ZM75 0L-25 50Z" fill="black"/>
                    <path d="M75 0L-25 50M-25 0L75 50L-25 0Z" stroke="white" stroke-width="10"/>
                    <path d="M-25 0L75 50L-25 0ZM75 0L-25 50Z" fill="black"/>
                    <path d="M75 0L-25 50M-25 0L75 50L-25 0Z" stroke="#C8102E" stroke-width="6.66667"/>
                    <path d="M25 0V50V0ZM-25 25H75Z" fill="black"/>
                    <path d="M-25 25H75M25 0V50V0Z" stroke="white" stroke-width="16.6667"/>
                    <path d="M25 0V50V0ZM-25 25H75Z" fill="black"/>
                    <path d="M-25 25H75M25 0V50V0Z" stroke="#C8102E" stroke-width="10"/>
                    </g>
                    </g>
                    <defs>
                    <clipPath id="clip0">
                    <rect width="50" height="50" rx="25" fill="white"/>
                    </clipPath>
                    <clipPath id="clip1">
                    <rect width="100" height="50" fill="white" transform="translate(-25)"/>
                    </clipPath>
                    </defs>
                    </svg>